<mxfile host="app.diagrams.net" agent="Mozilla/5.0 (Windows NT 10.0; Win64; x64) AppleWebKit/537.36 (KHTML, like Gecko) Chrome/128.0.0.0 YaBrowser/24.10.0.0 Safari/537.36" version="25.0.1">
  <diagram name="Страница — 1" id="TGCEh2yxvta_5OMEY0MG">
    <mxGraphModel dx="2188" dy="1048" grid="1" gridSize="10" guides="1" tooltips="1" connect="1" arrows="1" fold="1" page="1" pageScale="1" pageWidth="827" pageHeight="1169" math="0" shadow="0">
      <root>
        <mxCell id="0" />
        <mxCell id="1" parent="0" />
        <mxCell id="PEr6sbL7nsEstti_IK5p-2" value="" style="shape=table;startSize=0;container=1;collapsible=0;childLayout=tableLayout;fontSize=16;" vertex="1" parent="1">
          <mxGeometry x="156.5" y="1210" width="1390" height="750" as="geometry" />
        </mxCell>
        <mxCell id="PEr6sbL7nsEstti_IK5p-3" value="" style="shape=tableRow;horizontal=0;startSize=0;swimlaneHead=0;swimlaneBody=0;strokeColor=inherit;top=0;left=0;bottom=0;right=0;collapsible=0;dropTarget=0;fillColor=none;points=[[0,0.5],[1,0.5]];portConstraint=eastwest;fontSize=16;" vertex="1" parent="PEr6sbL7nsEstti_IK5p-2">
          <mxGeometry width="1390" height="28" as="geometry" />
        </mxCell>
        <mxCell id="PEr6sbL7nsEstti_IK5p-4" value="№" style="shape=partialRectangle;html=1;whiteSpace=wrap;connectable=0;strokeColor=inherit;overflow=hidden;fillColor=none;top=0;left=0;bottom=0;right=0;pointerEvents=1;fontSize=16;" vertex="1" parent="PEr6sbL7nsEstti_IK5p-3">
          <mxGeometry width="80" height="28" as="geometry">
            <mxRectangle width="80" height="28" as="alternateBounds" />
          </mxGeometry>
        </mxCell>
        <mxCell id="PEr6sbL7nsEstti_IK5p-100" value="Взаимодействие" style="shape=partialRectangle;html=1;whiteSpace=wrap;connectable=0;strokeColor=inherit;overflow=hidden;fillColor=none;top=0;left=0;bottom=0;right=0;pointerEvents=1;fontSize=16;" vertex="1" parent="PEr6sbL7nsEstti_IK5p-3">
          <mxGeometry x="80" width="174" height="28" as="geometry">
            <mxRectangle width="174" height="28" as="alternateBounds" />
          </mxGeometry>
        </mxCell>
        <mxCell id="PEr6sbL7nsEstti_IK5p-5" value="Описание" style="shape=partialRectangle;html=1;whiteSpace=wrap;connectable=0;strokeColor=inherit;overflow=hidden;fillColor=none;top=0;left=0;bottom=0;right=0;pointerEvents=1;fontSize=16;" vertex="1" parent="PEr6sbL7nsEstti_IK5p-3">
          <mxGeometry x="254" width="1136" height="28" as="geometry">
            <mxRectangle width="1136" height="28" as="alternateBounds" />
          </mxGeometry>
        </mxCell>
        <mxCell id="PEr6sbL7nsEstti_IK5p-7" value="" style="shape=tableRow;horizontal=0;startSize=0;swimlaneHead=0;swimlaneBody=0;strokeColor=inherit;top=0;left=0;bottom=0;right=0;collapsible=0;dropTarget=0;fillColor=none;points=[[0,0.5],[1,0.5]];portConstraint=eastwest;fontSize=16;" vertex="1" parent="PEr6sbL7nsEstti_IK5p-2">
          <mxGeometry y="28" width="1390" height="32" as="geometry" />
        </mxCell>
        <mxCell id="PEr6sbL7nsEstti_IK5p-8" value="1" style="shape=partialRectangle;html=1;whiteSpace=wrap;connectable=0;strokeColor=inherit;overflow=hidden;fillColor=none;top=0;left=0;bottom=0;right=0;pointerEvents=1;fontSize=16;" vertex="1" parent="PEr6sbL7nsEstti_IK5p-7">
          <mxGeometry width="80" height="32" as="geometry">
            <mxRectangle width="80" height="32" as="alternateBounds" />
          </mxGeometry>
        </mxCell>
        <mxCell id="PEr6sbL7nsEstti_IK5p-101" value="User -&amp;gt; Frontend" style="shape=partialRectangle;html=1;whiteSpace=wrap;connectable=0;strokeColor=inherit;overflow=hidden;fillColor=none;top=0;left=0;bottom=0;right=0;pointerEvents=1;fontSize=16;" vertex="1" parent="PEr6sbL7nsEstti_IK5p-7">
          <mxGeometry x="80" width="174" height="32" as="geometry">
            <mxRectangle width="174" height="32" as="alternateBounds" />
          </mxGeometry>
        </mxCell>
        <mxCell id="PEr6sbL7nsEstti_IK5p-9" value="Пользователь нажимает кнопку &quot;Расходы&quot;" style="shape=partialRectangle;html=1;whiteSpace=wrap;connectable=0;strokeColor=inherit;overflow=hidden;fillColor=none;top=0;left=0;bottom=0;right=0;pointerEvents=1;fontSize=16;" vertex="1" parent="PEr6sbL7nsEstti_IK5p-7">
          <mxGeometry x="254" width="1136" height="32" as="geometry">
            <mxRectangle width="1136" height="32" as="alternateBounds" />
          </mxGeometry>
        </mxCell>
        <mxCell id="PEr6sbL7nsEstti_IK5p-15" style="shape=tableRow;horizontal=0;startSize=0;swimlaneHead=0;swimlaneBody=0;strokeColor=inherit;top=0;left=0;bottom=0;right=0;collapsible=0;dropTarget=0;fillColor=none;points=[[0,0.5],[1,0.5]];portConstraint=eastwest;fontSize=16;" vertex="1" parent="PEr6sbL7nsEstti_IK5p-2">
          <mxGeometry y="60" width="1390" height="28" as="geometry" />
        </mxCell>
        <mxCell id="PEr6sbL7nsEstti_IK5p-16" value="2" style="shape=partialRectangle;html=1;whiteSpace=wrap;connectable=0;strokeColor=inherit;overflow=hidden;fillColor=none;top=0;left=0;bottom=0;right=0;pointerEvents=1;fontSize=16;" vertex="1" parent="PEr6sbL7nsEstti_IK5p-15">
          <mxGeometry width="80" height="28" as="geometry">
            <mxRectangle width="80" height="28" as="alternateBounds" />
          </mxGeometry>
        </mxCell>
        <mxCell id="PEr6sbL7nsEstti_IK5p-102" value="Frontend -&amp;gt; Backend" style="shape=partialRectangle;html=1;whiteSpace=wrap;connectable=0;strokeColor=inherit;overflow=hidden;fillColor=none;top=0;left=0;bottom=0;right=0;pointerEvents=1;fontSize=16;" vertex="1" parent="PEr6sbL7nsEstti_IK5p-15">
          <mxGeometry x="80" width="174" height="28" as="geometry">
            <mxRectangle width="174" height="28" as="alternateBounds" />
          </mxGeometry>
        </mxCell>
        <mxCell id="PEr6sbL7nsEstti_IK5p-17" value="https-запрос на список расходов и категории расходов" style="shape=partialRectangle;html=1;whiteSpace=wrap;connectable=0;strokeColor=inherit;overflow=hidden;fillColor=none;top=0;left=0;bottom=0;right=0;pointerEvents=1;fontSize=16;" vertex="1" parent="PEr6sbL7nsEstti_IK5p-15">
          <mxGeometry x="254" width="1136" height="28" as="geometry">
            <mxRectangle width="1136" height="28" as="alternateBounds" />
          </mxGeometry>
        </mxCell>
        <mxCell id="PEr6sbL7nsEstti_IK5p-11" value="" style="shape=tableRow;horizontal=0;startSize=0;swimlaneHead=0;swimlaneBody=0;strokeColor=inherit;top=0;left=0;bottom=0;right=0;collapsible=0;dropTarget=0;fillColor=none;points=[[0,0.5],[1,0.5]];portConstraint=eastwest;fontSize=16;" vertex="1" parent="PEr6sbL7nsEstti_IK5p-2">
          <mxGeometry y="88" width="1390" height="29" as="geometry" />
        </mxCell>
        <mxCell id="PEr6sbL7nsEstti_IK5p-12" value="3" style="shape=partialRectangle;html=1;whiteSpace=wrap;connectable=0;strokeColor=inherit;overflow=hidden;fillColor=none;top=0;left=0;bottom=0;right=0;pointerEvents=1;fontSize=16;" vertex="1" parent="PEr6sbL7nsEstti_IK5p-11">
          <mxGeometry width="80" height="29" as="geometry">
            <mxRectangle width="80" height="29" as="alternateBounds" />
          </mxGeometry>
        </mxCell>
        <mxCell id="PEr6sbL7nsEstti_IK5p-103" value="Backend -&amp;gt; DB" style="shape=partialRectangle;html=1;whiteSpace=wrap;connectable=0;strokeColor=inherit;overflow=hidden;fillColor=none;top=0;left=0;bottom=0;right=0;pointerEvents=1;fontSize=16;" vertex="1" parent="PEr6sbL7nsEstti_IK5p-11">
          <mxGeometry x="80" width="174" height="29" as="geometry">
            <mxRectangle width="174" height="29" as="alternateBounds" />
          </mxGeometry>
        </mxCell>
        <mxCell id="PEr6sbL7nsEstti_IK5p-13" value="SQL-запрос на формирование списка расходов" style="shape=partialRectangle;html=1;whiteSpace=wrap;connectable=0;strokeColor=inherit;overflow=hidden;fillColor=none;top=0;left=0;bottom=0;right=0;pointerEvents=1;fontSize=16;" vertex="1" parent="PEr6sbL7nsEstti_IK5p-11">
          <mxGeometry x="254" width="1136" height="29" as="geometry">
            <mxRectangle width="1136" height="29" as="alternateBounds" />
          </mxGeometry>
        </mxCell>
        <mxCell id="PEr6sbL7nsEstti_IK5p-18" style="shape=tableRow;horizontal=0;startSize=0;swimlaneHead=0;swimlaneBody=0;strokeColor=inherit;top=0;left=0;bottom=0;right=0;collapsible=0;dropTarget=0;fillColor=none;points=[[0,0.5],[1,0.5]];portConstraint=eastwest;fontSize=16;" vertex="1" parent="PEr6sbL7nsEstti_IK5p-2">
          <mxGeometry y="117" width="1390" height="28" as="geometry" />
        </mxCell>
        <mxCell id="PEr6sbL7nsEstti_IK5p-19" value="4" style="shape=partialRectangle;html=1;whiteSpace=wrap;connectable=0;strokeColor=inherit;overflow=hidden;fillColor=none;top=0;left=0;bottom=0;right=0;pointerEvents=1;fontSize=16;" vertex="1" parent="PEr6sbL7nsEstti_IK5p-18">
          <mxGeometry width="80" height="28" as="geometry">
            <mxRectangle width="80" height="28" as="alternateBounds" />
          </mxGeometry>
        </mxCell>
        <mxCell id="PEr6sbL7nsEstti_IK5p-104" value="DB --&amp;gt; Backend" style="shape=partialRectangle;html=1;whiteSpace=wrap;connectable=0;strokeColor=inherit;overflow=hidden;fillColor=none;top=0;left=0;bottom=0;right=0;pointerEvents=1;fontSize=16;" vertex="1" parent="PEr6sbL7nsEstti_IK5p-18">
          <mxGeometry x="80" width="174" height="28" as="geometry">
            <mxRectangle width="174" height="28" as="alternateBounds" />
          </mxGeometry>
        </mxCell>
        <mxCell id="PEr6sbL7nsEstti_IK5p-20" value="Возвращает список расходов" style="shape=partialRectangle;html=1;whiteSpace=wrap;connectable=0;strokeColor=inherit;overflow=hidden;fillColor=none;top=0;left=0;bottom=0;right=0;pointerEvents=1;fontSize=16;" vertex="1" parent="PEr6sbL7nsEstti_IK5p-18">
          <mxGeometry x="254" width="1136" height="28" as="geometry">
            <mxRectangle width="1136" height="28" as="alternateBounds" />
          </mxGeometry>
        </mxCell>
        <mxCell id="PEr6sbL7nsEstti_IK5p-21" style="shape=tableRow;horizontal=0;startSize=0;swimlaneHead=0;swimlaneBody=0;strokeColor=inherit;top=0;left=0;bottom=0;right=0;collapsible=0;dropTarget=0;fillColor=none;points=[[0,0.5],[1,0.5]];portConstraint=eastwest;fontSize=16;" vertex="1" parent="PEr6sbL7nsEstti_IK5p-2">
          <mxGeometry y="145" width="1390" height="28" as="geometry" />
        </mxCell>
        <mxCell id="PEr6sbL7nsEstti_IK5p-22" value="5" style="shape=partialRectangle;html=1;whiteSpace=wrap;connectable=0;strokeColor=inherit;overflow=hidden;fillColor=none;top=0;left=0;bottom=0;right=0;pointerEvents=1;fontSize=16;" vertex="1" parent="PEr6sbL7nsEstti_IK5p-21">
          <mxGeometry width="80" height="28" as="geometry">
            <mxRectangle width="80" height="28" as="alternateBounds" />
          </mxGeometry>
        </mxCell>
        <mxCell id="PEr6sbL7nsEstti_IK5p-105" value="Backend -&amp;gt; DB" style="shape=partialRectangle;html=1;whiteSpace=wrap;connectable=0;strokeColor=inherit;overflow=hidden;fillColor=none;top=0;left=0;bottom=0;right=0;pointerEvents=1;fontSize=16;" vertex="1" parent="PEr6sbL7nsEstti_IK5p-21">
          <mxGeometry x="80" width="174" height="28" as="geometry">
            <mxRectangle width="174" height="28" as="alternateBounds" />
          </mxGeometry>
        </mxCell>
        <mxCell id="PEr6sbL7nsEstti_IK5p-23" value="SQL-запрос на формирование списка категорий" style="shape=partialRectangle;html=1;whiteSpace=wrap;connectable=0;strokeColor=inherit;overflow=hidden;fillColor=none;top=0;left=0;bottom=0;right=0;pointerEvents=1;fontSize=16;" vertex="1" parent="PEr6sbL7nsEstti_IK5p-21">
          <mxGeometry x="254" width="1136" height="28" as="geometry">
            <mxRectangle width="1136" height="28" as="alternateBounds" />
          </mxGeometry>
        </mxCell>
        <mxCell id="PEr6sbL7nsEstti_IK5p-24" style="shape=tableRow;horizontal=0;startSize=0;swimlaneHead=0;swimlaneBody=0;strokeColor=inherit;top=0;left=0;bottom=0;right=0;collapsible=0;dropTarget=0;fillColor=none;points=[[0,0.5],[1,0.5]];portConstraint=eastwest;fontSize=16;" vertex="1" parent="PEr6sbL7nsEstti_IK5p-2">
          <mxGeometry y="173" width="1390" height="30" as="geometry" />
        </mxCell>
        <mxCell id="PEr6sbL7nsEstti_IK5p-25" value="6" style="shape=partialRectangle;html=1;whiteSpace=wrap;connectable=0;strokeColor=inherit;overflow=hidden;fillColor=none;top=0;left=0;bottom=0;right=0;pointerEvents=1;fontSize=16;" vertex="1" parent="PEr6sbL7nsEstti_IK5p-24">
          <mxGeometry width="80" height="30" as="geometry">
            <mxRectangle width="80" height="30" as="alternateBounds" />
          </mxGeometry>
        </mxCell>
        <mxCell id="PEr6sbL7nsEstti_IK5p-106" value="DB --&amp;gt; Backend" style="shape=partialRectangle;html=1;whiteSpace=wrap;connectable=0;strokeColor=inherit;overflow=hidden;fillColor=none;top=0;left=0;bottom=0;right=0;pointerEvents=1;fontSize=16;" vertex="1" parent="PEr6sbL7nsEstti_IK5p-24">
          <mxGeometry x="80" width="174" height="30" as="geometry">
            <mxRectangle width="174" height="30" as="alternateBounds" />
          </mxGeometry>
        </mxCell>
        <mxCell id="PEr6sbL7nsEstti_IK5p-26" value="Возвращает список категорий и сумм" style="shape=partialRectangle;html=1;whiteSpace=wrap;connectable=0;strokeColor=inherit;overflow=hidden;fillColor=none;top=0;left=0;bottom=0;right=0;pointerEvents=1;fontSize=16;" vertex="1" parent="PEr6sbL7nsEstti_IK5p-24">
          <mxGeometry x="254" width="1136" height="30" as="geometry">
            <mxRectangle width="1136" height="30" as="alternateBounds" />
          </mxGeometry>
        </mxCell>
        <mxCell id="PEr6sbL7nsEstti_IK5p-27" style="shape=tableRow;horizontal=0;startSize=0;swimlaneHead=0;swimlaneBody=0;strokeColor=inherit;top=0;left=0;bottom=0;right=0;collapsible=0;dropTarget=0;fillColor=none;points=[[0,0.5],[1,0.5]];portConstraint=eastwest;fontSize=16;" vertex="1" parent="PEr6sbL7nsEstti_IK5p-2">
          <mxGeometry y="203" width="1390" height="28" as="geometry" />
        </mxCell>
        <mxCell id="PEr6sbL7nsEstti_IK5p-28" value="7" style="shape=partialRectangle;html=1;whiteSpace=wrap;connectable=0;strokeColor=inherit;overflow=hidden;fillColor=none;top=0;left=0;bottom=0;right=0;pointerEvents=1;fontSize=16;" vertex="1" parent="PEr6sbL7nsEstti_IK5p-27">
          <mxGeometry width="80" height="28" as="geometry">
            <mxRectangle width="80" height="28" as="alternateBounds" />
          </mxGeometry>
        </mxCell>
        <mxCell id="PEr6sbL7nsEstti_IK5p-107" value="Backend -&amp;gt; Backend" style="shape=partialRectangle;html=1;whiteSpace=wrap;connectable=0;strokeColor=inherit;overflow=hidden;fillColor=none;top=0;left=0;bottom=0;right=0;pointerEvents=1;fontSize=16;" vertex="1" parent="PEr6sbL7nsEstti_IK5p-27">
          <mxGeometry x="80" width="174" height="28" as="geometry">
            <mxRectangle width="174" height="28" as="alternateBounds" />
          </mxGeometry>
        </mxCell>
        <mxCell id="PEr6sbL7nsEstti_IK5p-29" value="Формирование json" style="shape=partialRectangle;html=1;whiteSpace=wrap;connectable=0;strokeColor=inherit;overflow=hidden;fillColor=none;top=0;left=0;bottom=0;right=0;pointerEvents=1;fontSize=16;" vertex="1" parent="PEr6sbL7nsEstti_IK5p-27">
          <mxGeometry x="254" width="1136" height="28" as="geometry">
            <mxRectangle width="1136" height="28" as="alternateBounds" />
          </mxGeometry>
        </mxCell>
        <mxCell id="PEr6sbL7nsEstti_IK5p-30" style="shape=tableRow;horizontal=0;startSize=0;swimlaneHead=0;swimlaneBody=0;strokeColor=inherit;top=0;left=0;bottom=0;right=0;collapsible=0;dropTarget=0;fillColor=none;points=[[0,0.5],[1,0.5]];portConstraint=eastwest;fontSize=16;" vertex="1" parent="PEr6sbL7nsEstti_IK5p-2">
          <mxGeometry y="231" width="1390" height="28" as="geometry" />
        </mxCell>
        <mxCell id="PEr6sbL7nsEstti_IK5p-31" value="8" style="shape=partialRectangle;html=1;whiteSpace=wrap;connectable=0;strokeColor=inherit;overflow=hidden;fillColor=none;top=0;left=0;bottom=0;right=0;pointerEvents=1;fontSize=16;" vertex="1" parent="PEr6sbL7nsEstti_IK5p-30">
          <mxGeometry width="80" height="28" as="geometry">
            <mxRectangle width="80" height="28" as="alternateBounds" />
          </mxGeometry>
        </mxCell>
        <mxCell id="PEr6sbL7nsEstti_IK5p-108" value="Backend --&amp;gt; Frontend" style="shape=partialRectangle;html=1;whiteSpace=wrap;connectable=0;strokeColor=inherit;overflow=hidden;fillColor=none;top=0;left=0;bottom=0;right=0;pointerEvents=1;fontSize=16;" vertex="1" parent="PEr6sbL7nsEstti_IK5p-30">
          <mxGeometry x="80" width="174" height="28" as="geometry">
            <mxRectangle width="174" height="28" as="alternateBounds" />
          </mxGeometry>
        </mxCell>
        <mxCell id="PEr6sbL7nsEstti_IK5p-32" value="Возвращает json со списком расходов и категорий" style="shape=partialRectangle;html=1;whiteSpace=wrap;connectable=0;strokeColor=inherit;overflow=hidden;fillColor=none;top=0;left=0;bottom=0;right=0;pointerEvents=1;fontSize=16;" vertex="1" parent="PEr6sbL7nsEstti_IK5p-30">
          <mxGeometry x="254" width="1136" height="28" as="geometry">
            <mxRectangle width="1136" height="28" as="alternateBounds" />
          </mxGeometry>
        </mxCell>
        <mxCell id="PEr6sbL7nsEstti_IK5p-33" style="shape=tableRow;horizontal=0;startSize=0;swimlaneHead=0;swimlaneBody=0;strokeColor=inherit;top=0;left=0;bottom=0;right=0;collapsible=0;dropTarget=0;fillColor=none;points=[[0,0.5],[1,0.5]];portConstraint=eastwest;fontSize=16;" vertex="1" parent="PEr6sbL7nsEstti_IK5p-2">
          <mxGeometry y="259" width="1390" height="31" as="geometry" />
        </mxCell>
        <mxCell id="PEr6sbL7nsEstti_IK5p-34" value="9" style="shape=partialRectangle;html=1;whiteSpace=wrap;connectable=0;strokeColor=inherit;overflow=hidden;fillColor=none;top=0;left=0;bottom=0;right=0;pointerEvents=1;fontSize=16;" vertex="1" parent="PEr6sbL7nsEstti_IK5p-33">
          <mxGeometry width="80" height="31" as="geometry">
            <mxRectangle width="80" height="31" as="alternateBounds" />
          </mxGeometry>
        </mxCell>
        <mxCell id="PEr6sbL7nsEstti_IK5p-109" value="Frontend --&amp;gt; User" style="shape=partialRectangle;html=1;whiteSpace=wrap;connectable=0;strokeColor=inherit;overflow=hidden;fillColor=none;top=0;left=0;bottom=0;right=0;pointerEvents=1;fontSize=16;" vertex="1" parent="PEr6sbL7nsEstti_IK5p-33">
          <mxGeometry x="80" width="174" height="31" as="geometry">
            <mxRectangle width="174" height="31" as="alternateBounds" />
          </mxGeometry>
        </mxCell>
        <mxCell id="PEr6sbL7nsEstti_IK5p-35" value="Отображает категории и список расходов" style="shape=partialRectangle;html=1;whiteSpace=wrap;connectable=0;strokeColor=inherit;overflow=hidden;fillColor=none;top=0;left=0;bottom=0;right=0;pointerEvents=1;fontSize=16;" vertex="1" parent="PEr6sbL7nsEstti_IK5p-33">
          <mxGeometry x="254" width="1136" height="31" as="geometry">
            <mxRectangle width="1136" height="31" as="alternateBounds" />
          </mxGeometry>
        </mxCell>
        <mxCell id="PEr6sbL7nsEstti_IK5p-36" style="shape=tableRow;horizontal=0;startSize=0;swimlaneHead=0;swimlaneBody=0;strokeColor=inherit;top=0;left=0;bottom=0;right=0;collapsible=0;dropTarget=0;fillColor=none;points=[[0,0.5],[1,0.5]];portConstraint=eastwest;fontSize=16;" vertex="1" parent="PEr6sbL7nsEstti_IK5p-2">
          <mxGeometry y="290" width="1390" height="28" as="geometry" />
        </mxCell>
        <mxCell id="PEr6sbL7nsEstti_IK5p-37" value="10" style="shape=partialRectangle;html=1;whiteSpace=wrap;connectable=0;strokeColor=inherit;overflow=hidden;fillColor=none;top=0;left=0;bottom=0;right=0;pointerEvents=1;fontSize=16;" vertex="1" parent="PEr6sbL7nsEstti_IK5p-36">
          <mxGeometry width="80" height="28" as="geometry">
            <mxRectangle width="80" height="28" as="alternateBounds" />
          </mxGeometry>
        </mxCell>
        <mxCell id="PEr6sbL7nsEstti_IK5p-110" value="User -&gt; Frontend" style="shape=partialRectangle;html=1;whiteSpace=wrap;connectable=0;strokeColor=inherit;overflow=hidden;fillColor=none;top=0;left=0;bottom=0;right=0;pointerEvents=1;fontSize=16;" vertex="1" parent="PEr6sbL7nsEstti_IK5p-36">
          <mxGeometry x="80" width="174" height="28" as="geometry">
            <mxRectangle width="174" height="28" as="alternateBounds" />
          </mxGeometry>
        </mxCell>
        <mxCell id="PEr6sbL7nsEstti_IK5p-38" value="&lt;div&gt;Пользователь нажимает кнопку категории,&amp;nbsp;&lt;span style=&quot;background-color: initial;&quot;&gt;выбирает временной период&lt;/span&gt;&lt;/div&gt;" style="shape=partialRectangle;html=1;whiteSpace=wrap;connectable=0;strokeColor=inherit;overflow=hidden;fillColor=none;top=0;left=0;bottom=0;right=0;pointerEvents=1;fontSize=16;" vertex="1" parent="PEr6sbL7nsEstti_IK5p-36">
          <mxGeometry x="254" width="1136" height="28" as="geometry">
            <mxRectangle width="1136" height="28" as="alternateBounds" />
          </mxGeometry>
        </mxCell>
        <mxCell id="PEr6sbL7nsEstti_IK5p-39" style="shape=tableRow;horizontal=0;startSize=0;swimlaneHead=0;swimlaneBody=0;strokeColor=inherit;top=0;left=0;bottom=0;right=0;collapsible=0;dropTarget=0;fillColor=none;points=[[0,0.5],[1,0.5]];portConstraint=eastwest;fontSize=16;" vertex="1" parent="PEr6sbL7nsEstti_IK5p-2">
          <mxGeometry y="318" width="1390" height="29" as="geometry" />
        </mxCell>
        <mxCell id="PEr6sbL7nsEstti_IK5p-40" value="11" style="shape=partialRectangle;html=1;whiteSpace=wrap;connectable=0;strokeColor=inherit;overflow=hidden;fillColor=none;top=0;left=0;bottom=0;right=0;pointerEvents=1;fontSize=16;" vertex="1" parent="PEr6sbL7nsEstti_IK5p-39">
          <mxGeometry width="80" height="29" as="geometry">
            <mxRectangle width="80" height="29" as="alternateBounds" />
          </mxGeometry>
        </mxCell>
        <mxCell id="PEr6sbL7nsEstti_IK5p-111" value="Frontend -&gt; Backend" style="shape=partialRectangle;html=1;whiteSpace=wrap;connectable=0;strokeColor=inherit;overflow=hidden;fillColor=none;top=0;left=0;bottom=0;right=0;pointerEvents=1;fontSize=16;" vertex="1" parent="PEr6sbL7nsEstti_IK5p-39">
          <mxGeometry x="80" width="174" height="29" as="geometry">
            <mxRectangle width="174" height="29" as="alternateBounds" />
          </mxGeometry>
        </mxCell>
        <mxCell id="PEr6sbL7nsEstti_IK5p-41" value="&lt;div&gt;https-запрос на список расходов по выбранной категории &lt;span style=&quot;background-color: initial;&quot;&gt;и список подкатегорий&lt;/span&gt;&lt;/div&gt;" style="shape=partialRectangle;html=1;whiteSpace=wrap;connectable=0;strokeColor=inherit;overflow=hidden;fillColor=none;top=0;left=0;bottom=0;right=0;pointerEvents=1;fontSize=16;" vertex="1" parent="PEr6sbL7nsEstti_IK5p-39">
          <mxGeometry x="254" width="1136" height="29" as="geometry">
            <mxRectangle width="1136" height="29" as="alternateBounds" />
          </mxGeometry>
        </mxCell>
        <mxCell id="PEr6sbL7nsEstti_IK5p-42" style="shape=tableRow;horizontal=0;startSize=0;swimlaneHead=0;swimlaneBody=0;strokeColor=inherit;top=0;left=0;bottom=0;right=0;collapsible=0;dropTarget=0;fillColor=none;points=[[0,0.5],[1,0.5]];portConstraint=eastwest;fontSize=16;" vertex="1" parent="PEr6sbL7nsEstti_IK5p-2">
          <mxGeometry y="347" width="1390" height="28" as="geometry" />
        </mxCell>
        <mxCell id="PEr6sbL7nsEstti_IK5p-43" value="12" style="shape=partialRectangle;html=1;whiteSpace=wrap;connectable=0;strokeColor=inherit;overflow=hidden;fillColor=none;top=0;left=0;bottom=0;right=0;pointerEvents=1;fontSize=16;" vertex="1" parent="PEr6sbL7nsEstti_IK5p-42">
          <mxGeometry width="80" height="28" as="geometry">
            <mxRectangle width="80" height="28" as="alternateBounds" />
          </mxGeometry>
        </mxCell>
        <mxCell id="PEr6sbL7nsEstti_IK5p-112" value="Backend -&gt; DB" style="shape=partialRectangle;html=1;whiteSpace=wrap;connectable=0;strokeColor=inherit;overflow=hidden;fillColor=none;top=0;left=0;bottom=0;right=0;pointerEvents=1;fontSize=16;" vertex="1" parent="PEr6sbL7nsEstti_IK5p-42">
          <mxGeometry x="80" width="174" height="28" as="geometry">
            <mxRectangle width="174" height="28" as="alternateBounds" />
          </mxGeometry>
        </mxCell>
        <mxCell id="PEr6sbL7nsEstti_IK5p-44" value="&lt;div&gt;SQL-запрос на формирование списка расходов&amp;nbsp;&lt;span style=&quot;background-color: initial;&quot;&gt;по выбранной категории&lt;/span&gt;&lt;/div&gt;" style="shape=partialRectangle;html=1;whiteSpace=wrap;connectable=0;strokeColor=inherit;overflow=hidden;fillColor=none;top=0;left=0;bottom=0;right=0;pointerEvents=1;fontSize=16;" vertex="1" parent="PEr6sbL7nsEstti_IK5p-42">
          <mxGeometry x="254" width="1136" height="28" as="geometry">
            <mxRectangle width="1136" height="28" as="alternateBounds" />
          </mxGeometry>
        </mxCell>
        <mxCell id="PEr6sbL7nsEstti_IK5p-45" style="shape=tableRow;horizontal=0;startSize=0;swimlaneHead=0;swimlaneBody=0;strokeColor=inherit;top=0;left=0;bottom=0;right=0;collapsible=0;dropTarget=0;fillColor=none;points=[[0,0.5],[1,0.5]];portConstraint=eastwest;fontSize=16;" vertex="1" parent="PEr6sbL7nsEstti_IK5p-2">
          <mxGeometry y="375" width="1390" height="28" as="geometry" />
        </mxCell>
        <mxCell id="PEr6sbL7nsEstti_IK5p-46" value="13" style="shape=partialRectangle;html=1;whiteSpace=wrap;connectable=0;strokeColor=inherit;overflow=hidden;fillColor=none;top=0;left=0;bottom=0;right=0;pointerEvents=1;fontSize=16;" vertex="1" parent="PEr6sbL7nsEstti_IK5p-45">
          <mxGeometry width="80" height="28" as="geometry">
            <mxRectangle width="80" height="28" as="alternateBounds" />
          </mxGeometry>
        </mxCell>
        <mxCell id="PEr6sbL7nsEstti_IK5p-113" value="DB --&gt; Backend" style="shape=partialRectangle;html=1;whiteSpace=wrap;connectable=0;strokeColor=inherit;overflow=hidden;fillColor=none;top=0;left=0;bottom=0;right=0;pointerEvents=1;fontSize=16;" vertex="1" parent="PEr6sbL7nsEstti_IK5p-45">
          <mxGeometry x="80" width="174" height="28" as="geometry">
            <mxRectangle width="174" height="28" as="alternateBounds" />
          </mxGeometry>
        </mxCell>
        <mxCell id="PEr6sbL7nsEstti_IK5p-47" value="Возвращает список расходов" style="shape=partialRectangle;html=1;whiteSpace=wrap;connectable=0;strokeColor=inherit;overflow=hidden;fillColor=none;top=0;left=0;bottom=0;right=0;pointerEvents=1;fontSize=16;" vertex="1" parent="PEr6sbL7nsEstti_IK5p-45">
          <mxGeometry x="254" width="1136" height="28" as="geometry">
            <mxRectangle width="1136" height="28" as="alternateBounds" />
          </mxGeometry>
        </mxCell>
        <mxCell id="PEr6sbL7nsEstti_IK5p-48" style="shape=tableRow;horizontal=0;startSize=0;swimlaneHead=0;swimlaneBody=0;strokeColor=inherit;top=0;left=0;bottom=0;right=0;collapsible=0;dropTarget=0;fillColor=none;points=[[0,0.5],[1,0.5]];portConstraint=eastwest;fontSize=16;" vertex="1" parent="PEr6sbL7nsEstti_IK5p-2">
          <mxGeometry y="403" width="1390" height="29" as="geometry" />
        </mxCell>
        <mxCell id="PEr6sbL7nsEstti_IK5p-49" value="14" style="shape=partialRectangle;html=1;whiteSpace=wrap;connectable=0;strokeColor=inherit;overflow=hidden;fillColor=none;top=0;left=0;bottom=0;right=0;pointerEvents=1;fontSize=16;" vertex="1" parent="PEr6sbL7nsEstti_IK5p-48">
          <mxGeometry width="80" height="29" as="geometry">
            <mxRectangle width="80" height="29" as="alternateBounds" />
          </mxGeometry>
        </mxCell>
        <mxCell id="PEr6sbL7nsEstti_IK5p-114" value="Backend -&gt; DB" style="shape=partialRectangle;html=1;whiteSpace=wrap;connectable=0;strokeColor=inherit;overflow=hidden;fillColor=none;top=0;left=0;bottom=0;right=0;pointerEvents=1;fontSize=16;" vertex="1" parent="PEr6sbL7nsEstti_IK5p-48">
          <mxGeometry x="80" width="174" height="29" as="geometry">
            <mxRectangle width="174" height="29" as="alternateBounds" />
          </mxGeometry>
        </mxCell>
        <mxCell id="PEr6sbL7nsEstti_IK5p-50" value="SQL-запрос на формирование списка подкатегорий" style="shape=partialRectangle;html=1;whiteSpace=wrap;connectable=0;strokeColor=inherit;overflow=hidden;fillColor=none;top=0;left=0;bottom=0;right=0;pointerEvents=1;fontSize=16;" vertex="1" parent="PEr6sbL7nsEstti_IK5p-48">
          <mxGeometry x="254" width="1136" height="29" as="geometry">
            <mxRectangle width="1136" height="29" as="alternateBounds" />
          </mxGeometry>
        </mxCell>
        <mxCell id="PEr6sbL7nsEstti_IK5p-51" style="shape=tableRow;horizontal=0;startSize=0;swimlaneHead=0;swimlaneBody=0;strokeColor=inherit;top=0;left=0;bottom=0;right=0;collapsible=0;dropTarget=0;fillColor=none;points=[[0,0.5],[1,0.5]];portConstraint=eastwest;fontSize=16;" vertex="1" parent="PEr6sbL7nsEstti_IK5p-2">
          <mxGeometry y="432" width="1390" height="28" as="geometry" />
        </mxCell>
        <mxCell id="PEr6sbL7nsEstti_IK5p-52" value="15" style="shape=partialRectangle;html=1;whiteSpace=wrap;connectable=0;strokeColor=inherit;overflow=hidden;fillColor=none;top=0;left=0;bottom=0;right=0;pointerEvents=1;fontSize=16;" vertex="1" parent="PEr6sbL7nsEstti_IK5p-51">
          <mxGeometry width="80" height="28" as="geometry">
            <mxRectangle width="80" height="28" as="alternateBounds" />
          </mxGeometry>
        </mxCell>
        <mxCell id="PEr6sbL7nsEstti_IK5p-115" value="DB --&gt; Backend" style="shape=partialRectangle;html=1;whiteSpace=wrap;connectable=0;strokeColor=inherit;overflow=hidden;fillColor=none;top=0;left=0;bottom=0;right=0;pointerEvents=1;fontSize=16;" vertex="1" parent="PEr6sbL7nsEstti_IK5p-51">
          <mxGeometry x="80" width="174" height="28" as="geometry">
            <mxRectangle width="174" height="28" as="alternateBounds" />
          </mxGeometry>
        </mxCell>
        <mxCell id="PEr6sbL7nsEstti_IK5p-53" value="Возвращает список подкатегорий и сумм" style="shape=partialRectangle;html=1;whiteSpace=wrap;connectable=0;strokeColor=inherit;overflow=hidden;fillColor=none;top=0;left=0;bottom=0;right=0;pointerEvents=1;fontSize=16;" vertex="1" parent="PEr6sbL7nsEstti_IK5p-51">
          <mxGeometry x="254" width="1136" height="28" as="geometry">
            <mxRectangle width="1136" height="28" as="alternateBounds" />
          </mxGeometry>
        </mxCell>
        <mxCell id="PEr6sbL7nsEstti_IK5p-54" style="shape=tableRow;horizontal=0;startSize=0;swimlaneHead=0;swimlaneBody=0;strokeColor=inherit;top=0;left=0;bottom=0;right=0;collapsible=0;dropTarget=0;fillColor=none;points=[[0,0.5],[1,0.5]];portConstraint=eastwest;fontSize=16;" vertex="1" parent="PEr6sbL7nsEstti_IK5p-2">
          <mxGeometry y="460" width="1390" height="29" as="geometry" />
        </mxCell>
        <mxCell id="PEr6sbL7nsEstti_IK5p-55" value="16" style="shape=partialRectangle;html=1;whiteSpace=wrap;connectable=0;strokeColor=inherit;overflow=hidden;fillColor=none;top=0;left=0;bottom=0;right=0;pointerEvents=1;fontSize=16;" vertex="1" parent="PEr6sbL7nsEstti_IK5p-54">
          <mxGeometry width="80" height="29" as="geometry">
            <mxRectangle width="80" height="29" as="alternateBounds" />
          </mxGeometry>
        </mxCell>
        <mxCell id="PEr6sbL7nsEstti_IK5p-116" value="Backend -&gt; Backend" style="shape=partialRectangle;html=1;whiteSpace=wrap;connectable=0;strokeColor=inherit;overflow=hidden;fillColor=none;top=0;left=0;bottom=0;right=0;pointerEvents=1;fontSize=16;" vertex="1" parent="PEr6sbL7nsEstti_IK5p-54">
          <mxGeometry x="80" width="174" height="29" as="geometry">
            <mxRectangle width="174" height="29" as="alternateBounds" />
          </mxGeometry>
        </mxCell>
        <mxCell id="PEr6sbL7nsEstti_IK5p-56" value="Формирование json" style="shape=partialRectangle;html=1;whiteSpace=wrap;connectable=0;strokeColor=inherit;overflow=hidden;fillColor=none;top=0;left=0;bottom=0;right=0;pointerEvents=1;fontSize=16;" vertex="1" parent="PEr6sbL7nsEstti_IK5p-54">
          <mxGeometry x="254" width="1136" height="29" as="geometry">
            <mxRectangle width="1136" height="29" as="alternateBounds" />
          </mxGeometry>
        </mxCell>
        <mxCell id="PEr6sbL7nsEstti_IK5p-57" style="shape=tableRow;horizontal=0;startSize=0;swimlaneHead=0;swimlaneBody=0;strokeColor=inherit;top=0;left=0;bottom=0;right=0;collapsible=0;dropTarget=0;fillColor=none;points=[[0,0.5],[1,0.5]];portConstraint=eastwest;fontSize=16;" vertex="1" parent="PEr6sbL7nsEstti_IK5p-2">
          <mxGeometry y="489" width="1390" height="28" as="geometry" />
        </mxCell>
        <mxCell id="PEr6sbL7nsEstti_IK5p-58" value="17" style="shape=partialRectangle;html=1;whiteSpace=wrap;connectable=0;strokeColor=inherit;overflow=hidden;fillColor=none;top=0;left=0;bottom=0;right=0;pointerEvents=1;fontSize=16;" vertex="1" parent="PEr6sbL7nsEstti_IK5p-57">
          <mxGeometry width="80" height="28" as="geometry">
            <mxRectangle width="80" height="28" as="alternateBounds" />
          </mxGeometry>
        </mxCell>
        <mxCell id="PEr6sbL7nsEstti_IK5p-117" value="Backend --&gt; Frontend" style="shape=partialRectangle;html=1;whiteSpace=wrap;connectable=0;strokeColor=inherit;overflow=hidden;fillColor=none;top=0;left=0;bottom=0;right=0;pointerEvents=1;fontSize=16;" vertex="1" parent="PEr6sbL7nsEstti_IK5p-57">
          <mxGeometry x="80" width="174" height="28" as="geometry">
            <mxRectangle width="174" height="28" as="alternateBounds" />
          </mxGeometry>
        </mxCell>
        <mxCell id="PEr6sbL7nsEstti_IK5p-59" value="Возвращает json со списком расходов и подкатегорий" style="shape=partialRectangle;html=1;whiteSpace=wrap;connectable=0;strokeColor=inherit;overflow=hidden;fillColor=none;top=0;left=0;bottom=0;right=0;pointerEvents=1;fontSize=16;" vertex="1" parent="PEr6sbL7nsEstti_IK5p-57">
          <mxGeometry x="254" width="1136" height="28" as="geometry">
            <mxRectangle width="1136" height="28" as="alternateBounds" />
          </mxGeometry>
        </mxCell>
        <mxCell id="PEr6sbL7nsEstti_IK5p-60" style="shape=tableRow;horizontal=0;startSize=0;swimlaneHead=0;swimlaneBody=0;strokeColor=inherit;top=0;left=0;bottom=0;right=0;collapsible=0;dropTarget=0;fillColor=none;points=[[0,0.5],[1,0.5]];portConstraint=eastwest;fontSize=16;" vertex="1" parent="PEr6sbL7nsEstti_IK5p-2">
          <mxGeometry y="517" width="1390" height="28" as="geometry" />
        </mxCell>
        <mxCell id="PEr6sbL7nsEstti_IK5p-61" value="18" style="shape=partialRectangle;html=1;whiteSpace=wrap;connectable=0;strokeColor=inherit;overflow=hidden;fillColor=none;top=0;left=0;bottom=0;right=0;pointerEvents=1;fontSize=16;" vertex="1" parent="PEr6sbL7nsEstti_IK5p-60">
          <mxGeometry width="80" height="28" as="geometry">
            <mxRectangle width="80" height="28" as="alternateBounds" />
          </mxGeometry>
        </mxCell>
        <mxCell id="PEr6sbL7nsEstti_IK5p-118" value="Frontend --&gt; User" style="shape=partialRectangle;html=1;whiteSpace=wrap;connectable=0;strokeColor=inherit;overflow=hidden;fillColor=none;top=0;left=0;bottom=0;right=0;pointerEvents=1;fontSize=16;" vertex="1" parent="PEr6sbL7nsEstti_IK5p-60">
          <mxGeometry x="80" width="174" height="28" as="geometry">
            <mxRectangle width="174" height="28" as="alternateBounds" />
          </mxGeometry>
        </mxCell>
        <mxCell id="PEr6sbL7nsEstti_IK5p-62" value="Отображает категории и список расходов" style="shape=partialRectangle;html=1;whiteSpace=wrap;connectable=0;strokeColor=inherit;overflow=hidden;fillColor=none;top=0;left=0;bottom=0;right=0;pointerEvents=1;fontSize=16;" vertex="1" parent="PEr6sbL7nsEstti_IK5p-60">
          <mxGeometry x="254" width="1136" height="28" as="geometry">
            <mxRectangle width="1136" height="28" as="alternateBounds" />
          </mxGeometry>
        </mxCell>
        <mxCell id="PEr6sbL7nsEstti_IK5p-63" style="shape=tableRow;horizontal=0;startSize=0;swimlaneHead=0;swimlaneBody=0;strokeColor=inherit;top=0;left=0;bottom=0;right=0;collapsible=0;dropTarget=0;fillColor=none;points=[[0,0.5],[1,0.5]];portConstraint=eastwest;fontSize=16;" vertex="1" parent="PEr6sbL7nsEstti_IK5p-2">
          <mxGeometry y="545" width="1390" height="30" as="geometry" />
        </mxCell>
        <mxCell id="PEr6sbL7nsEstti_IK5p-64" value="19" style="shape=partialRectangle;html=1;whiteSpace=wrap;connectable=0;strokeColor=inherit;overflow=hidden;fillColor=none;top=0;left=0;bottom=0;right=0;pointerEvents=1;fontSize=16;" vertex="1" parent="PEr6sbL7nsEstti_IK5p-63">
          <mxGeometry width="80" height="30" as="geometry">
            <mxRectangle width="80" height="30" as="alternateBounds" />
          </mxGeometry>
        </mxCell>
        <mxCell id="PEr6sbL7nsEstti_IK5p-119" value="User -&gt; Frontend" style="shape=partialRectangle;html=1;whiteSpace=wrap;connectable=0;strokeColor=inherit;overflow=hidden;fillColor=none;top=0;left=0;bottom=0;right=0;pointerEvents=1;fontSize=16;" vertex="1" parent="PEr6sbL7nsEstti_IK5p-63">
          <mxGeometry x="80" width="174" height="30" as="geometry">
            <mxRectangle width="174" height="30" as="alternateBounds" />
          </mxGeometry>
        </mxCell>
        <mxCell id="PEr6sbL7nsEstti_IK5p-65" value="Пользователь нажимает кнопку подкатегории" style="shape=partialRectangle;html=1;whiteSpace=wrap;connectable=0;strokeColor=inherit;overflow=hidden;fillColor=none;top=0;left=0;bottom=0;right=0;pointerEvents=1;fontSize=16;" vertex="1" parent="PEr6sbL7nsEstti_IK5p-63">
          <mxGeometry x="254" width="1136" height="30" as="geometry">
            <mxRectangle width="1136" height="30" as="alternateBounds" />
          </mxGeometry>
        </mxCell>
        <mxCell id="PEr6sbL7nsEstti_IK5p-66" style="shape=tableRow;horizontal=0;startSize=0;swimlaneHead=0;swimlaneBody=0;strokeColor=inherit;top=0;left=0;bottom=0;right=0;collapsible=0;dropTarget=0;fillColor=none;points=[[0,0.5],[1,0.5]];portConstraint=eastwest;fontSize=16;" vertex="1" parent="PEr6sbL7nsEstti_IK5p-2">
          <mxGeometry y="575" width="1390" height="28" as="geometry" />
        </mxCell>
        <mxCell id="PEr6sbL7nsEstti_IK5p-67" value="20" style="shape=partialRectangle;html=1;whiteSpace=wrap;connectable=0;strokeColor=inherit;overflow=hidden;fillColor=none;top=0;left=0;bottom=0;right=0;pointerEvents=1;fontSize=16;" vertex="1" parent="PEr6sbL7nsEstti_IK5p-66">
          <mxGeometry width="80" height="28" as="geometry">
            <mxRectangle width="80" height="28" as="alternateBounds" />
          </mxGeometry>
        </mxCell>
        <mxCell id="PEr6sbL7nsEstti_IK5p-120" value="Frontend -&gt; Backend" style="shape=partialRectangle;html=1;whiteSpace=wrap;connectable=0;strokeColor=inherit;overflow=hidden;fillColor=none;top=0;left=0;bottom=0;right=0;pointerEvents=1;fontSize=16;" vertex="1" parent="PEr6sbL7nsEstti_IK5p-66">
          <mxGeometry x="80" width="174" height="28" as="geometry">
            <mxRectangle width="174" height="28" as="alternateBounds" />
          </mxGeometry>
        </mxCell>
        <mxCell id="PEr6sbL7nsEstti_IK5p-68" value="&lt;div&gt;https-запрос на список расходов по&amp;nbsp;&lt;span style=&quot;background-color: initial;&quot;&gt;выбранной подкатегории&lt;/span&gt;&lt;/div&gt;" style="shape=partialRectangle;html=1;whiteSpace=wrap;connectable=0;strokeColor=inherit;overflow=hidden;fillColor=none;top=0;left=0;bottom=0;right=0;pointerEvents=1;fontSize=16;" vertex="1" parent="PEr6sbL7nsEstti_IK5p-66">
          <mxGeometry x="254" width="1136" height="28" as="geometry">
            <mxRectangle width="1136" height="28" as="alternateBounds" />
          </mxGeometry>
        </mxCell>
        <mxCell id="PEr6sbL7nsEstti_IK5p-69" style="shape=tableRow;horizontal=0;startSize=0;swimlaneHead=0;swimlaneBody=0;strokeColor=inherit;top=0;left=0;bottom=0;right=0;collapsible=0;dropTarget=0;fillColor=none;points=[[0,0.5],[1,0.5]];portConstraint=eastwest;fontSize=16;" vertex="1" parent="PEr6sbL7nsEstti_IK5p-2">
          <mxGeometry y="603" width="1390" height="28" as="geometry" />
        </mxCell>
        <mxCell id="PEr6sbL7nsEstti_IK5p-70" value="21" style="shape=partialRectangle;html=1;whiteSpace=wrap;connectable=0;strokeColor=inherit;overflow=hidden;fillColor=none;top=0;left=0;bottom=0;right=0;pointerEvents=1;fontSize=16;" vertex="1" parent="PEr6sbL7nsEstti_IK5p-69">
          <mxGeometry width="80" height="28" as="geometry">
            <mxRectangle width="80" height="28" as="alternateBounds" />
          </mxGeometry>
        </mxCell>
        <mxCell id="PEr6sbL7nsEstti_IK5p-121" value="Backend -&gt; DB" style="shape=partialRectangle;html=1;whiteSpace=wrap;connectable=0;strokeColor=inherit;overflow=hidden;fillColor=none;top=0;left=0;bottom=0;right=0;pointerEvents=1;fontSize=16;" vertex="1" parent="PEr6sbL7nsEstti_IK5p-69">
          <mxGeometry x="80" width="174" height="28" as="geometry">
            <mxRectangle width="174" height="28" as="alternateBounds" />
          </mxGeometry>
        </mxCell>
        <mxCell id="PEr6sbL7nsEstti_IK5p-71" value="&lt;div&gt;SQL-запрос на формирование списка расходов&amp;nbsp;&lt;span style=&quot;background-color: initial;&quot;&gt;по выбранной подкатегории&lt;/span&gt;&lt;/div&gt;" style="shape=partialRectangle;html=1;whiteSpace=wrap;connectable=0;strokeColor=inherit;overflow=hidden;fillColor=none;top=0;left=0;bottom=0;right=0;pointerEvents=1;fontSize=16;" vertex="1" parent="PEr6sbL7nsEstti_IK5p-69">
          <mxGeometry x="254" width="1136" height="28" as="geometry">
            <mxRectangle width="1136" height="28" as="alternateBounds" />
          </mxGeometry>
        </mxCell>
        <mxCell id="PEr6sbL7nsEstti_IK5p-72" style="shape=tableRow;horizontal=0;startSize=0;swimlaneHead=0;swimlaneBody=0;strokeColor=inherit;top=0;left=0;bottom=0;right=0;collapsible=0;dropTarget=0;fillColor=none;points=[[0,0.5],[1,0.5]];portConstraint=eastwest;fontSize=16;" vertex="1" parent="PEr6sbL7nsEstti_IK5p-2">
          <mxGeometry y="631" width="1390" height="34" as="geometry" />
        </mxCell>
        <mxCell id="PEr6sbL7nsEstti_IK5p-73" value="22" style="shape=partialRectangle;html=1;whiteSpace=wrap;connectable=0;strokeColor=inherit;overflow=hidden;fillColor=none;top=0;left=0;bottom=0;right=0;pointerEvents=1;fontSize=16;" vertex="1" parent="PEr6sbL7nsEstti_IK5p-72">
          <mxGeometry width="80" height="34" as="geometry">
            <mxRectangle width="80" height="34" as="alternateBounds" />
          </mxGeometry>
        </mxCell>
        <mxCell id="PEr6sbL7nsEstti_IK5p-122" value="DB --&gt; Backend" style="shape=partialRectangle;html=1;whiteSpace=wrap;connectable=0;strokeColor=inherit;overflow=hidden;fillColor=none;top=0;left=0;bottom=0;right=0;pointerEvents=1;fontSize=16;" vertex="1" parent="PEr6sbL7nsEstti_IK5p-72">
          <mxGeometry x="80" width="174" height="34" as="geometry">
            <mxRectangle width="174" height="34" as="alternateBounds" />
          </mxGeometry>
        </mxCell>
        <mxCell id="PEr6sbL7nsEstti_IK5p-74" value="Возвращает список расходов" style="shape=partialRectangle;html=1;whiteSpace=wrap;connectable=0;strokeColor=inherit;overflow=hidden;fillColor=none;top=0;left=0;bottom=0;right=0;pointerEvents=1;fontSize=16;" vertex="1" parent="PEr6sbL7nsEstti_IK5p-72">
          <mxGeometry x="254" width="1136" height="34" as="geometry">
            <mxRectangle width="1136" height="34" as="alternateBounds" />
          </mxGeometry>
        </mxCell>
        <mxCell id="PEr6sbL7nsEstti_IK5p-75" style="shape=tableRow;horizontal=0;startSize=0;swimlaneHead=0;swimlaneBody=0;strokeColor=inherit;top=0;left=0;bottom=0;right=0;collapsible=0;dropTarget=0;fillColor=none;points=[[0,0.5],[1,0.5]];portConstraint=eastwest;fontSize=16;" vertex="1" parent="PEr6sbL7nsEstti_IK5p-2">
          <mxGeometry y="665" width="1390" height="28" as="geometry" />
        </mxCell>
        <mxCell id="PEr6sbL7nsEstti_IK5p-76" value="23" style="shape=partialRectangle;html=1;whiteSpace=wrap;connectable=0;strokeColor=inherit;overflow=hidden;fillColor=none;top=0;left=0;bottom=0;right=0;pointerEvents=1;fontSize=16;" vertex="1" parent="PEr6sbL7nsEstti_IK5p-75">
          <mxGeometry width="80" height="28" as="geometry">
            <mxRectangle width="80" height="28" as="alternateBounds" />
          </mxGeometry>
        </mxCell>
        <mxCell id="PEr6sbL7nsEstti_IK5p-123" value="Backend -&gt; Backend" style="shape=partialRectangle;html=1;whiteSpace=wrap;connectable=0;strokeColor=inherit;overflow=hidden;fillColor=none;top=0;left=0;bottom=0;right=0;pointerEvents=1;fontSize=16;" vertex="1" parent="PEr6sbL7nsEstti_IK5p-75">
          <mxGeometry x="80" width="174" height="28" as="geometry">
            <mxRectangle width="174" height="28" as="alternateBounds" />
          </mxGeometry>
        </mxCell>
        <mxCell id="PEr6sbL7nsEstti_IK5p-77" value="Формирование json" style="shape=partialRectangle;html=1;whiteSpace=wrap;connectable=0;strokeColor=inherit;overflow=hidden;fillColor=none;top=0;left=0;bottom=0;right=0;pointerEvents=1;fontSize=16;" vertex="1" parent="PEr6sbL7nsEstti_IK5p-75">
          <mxGeometry x="254" width="1136" height="28" as="geometry">
            <mxRectangle width="1136" height="28" as="alternateBounds" />
          </mxGeometry>
        </mxCell>
        <mxCell id="PEr6sbL7nsEstti_IK5p-78" style="shape=tableRow;horizontal=0;startSize=0;swimlaneHead=0;swimlaneBody=0;strokeColor=inherit;top=0;left=0;bottom=0;right=0;collapsible=0;dropTarget=0;fillColor=none;points=[[0,0.5],[1,0.5]];portConstraint=eastwest;fontSize=16;" vertex="1" parent="PEr6sbL7nsEstti_IK5p-2">
          <mxGeometry y="693" width="1390" height="29" as="geometry" />
        </mxCell>
        <mxCell id="PEr6sbL7nsEstti_IK5p-79" value="24" style="shape=partialRectangle;html=1;whiteSpace=wrap;connectable=0;strokeColor=inherit;overflow=hidden;fillColor=none;top=0;left=0;bottom=0;right=0;pointerEvents=1;fontSize=16;" vertex="1" parent="PEr6sbL7nsEstti_IK5p-78">
          <mxGeometry width="80" height="29" as="geometry">
            <mxRectangle width="80" height="29" as="alternateBounds" />
          </mxGeometry>
        </mxCell>
        <mxCell id="PEr6sbL7nsEstti_IK5p-124" value="Backend --&gt; Frontend" style="shape=partialRectangle;html=1;whiteSpace=wrap;connectable=0;strokeColor=inherit;overflow=hidden;fillColor=none;top=0;left=0;bottom=0;right=0;pointerEvents=1;fontSize=16;" vertex="1" parent="PEr6sbL7nsEstti_IK5p-78">
          <mxGeometry x="80" width="174" height="29" as="geometry">
            <mxRectangle width="174" height="29" as="alternateBounds" />
          </mxGeometry>
        </mxCell>
        <mxCell id="PEr6sbL7nsEstti_IK5p-80" value="Возвращает json со списком расходов" style="shape=partialRectangle;html=1;whiteSpace=wrap;connectable=0;strokeColor=inherit;overflow=hidden;fillColor=none;top=0;left=0;bottom=0;right=0;pointerEvents=1;fontSize=16;" vertex="1" parent="PEr6sbL7nsEstti_IK5p-78">
          <mxGeometry x="254" width="1136" height="29" as="geometry">
            <mxRectangle width="1136" height="29" as="alternateBounds" />
          </mxGeometry>
        </mxCell>
        <mxCell id="PEr6sbL7nsEstti_IK5p-81" style="shape=tableRow;horizontal=0;startSize=0;swimlaneHead=0;swimlaneBody=0;strokeColor=inherit;top=0;left=0;bottom=0;right=0;collapsible=0;dropTarget=0;fillColor=none;points=[[0,0.5],[1,0.5]];portConstraint=eastwest;fontSize=16;" vertex="1" parent="PEr6sbL7nsEstti_IK5p-2">
          <mxGeometry y="722" width="1390" height="28" as="geometry" />
        </mxCell>
        <mxCell id="PEr6sbL7nsEstti_IK5p-82" value="25" style="shape=partialRectangle;html=1;whiteSpace=wrap;connectable=0;strokeColor=inherit;overflow=hidden;fillColor=none;top=0;left=0;bottom=0;right=0;pointerEvents=1;fontSize=16;" vertex="1" parent="PEr6sbL7nsEstti_IK5p-81">
          <mxGeometry width="80" height="28" as="geometry">
            <mxRectangle width="80" height="28" as="alternateBounds" />
          </mxGeometry>
        </mxCell>
        <mxCell id="PEr6sbL7nsEstti_IK5p-125" value="Frontend --&gt; User" style="shape=partialRectangle;html=1;whiteSpace=wrap;connectable=0;strokeColor=inherit;overflow=hidden;fillColor=none;top=0;left=0;bottom=0;right=0;pointerEvents=1;fontSize=16;" vertex="1" parent="PEr6sbL7nsEstti_IK5p-81">
          <mxGeometry x="80" width="174" height="28" as="geometry">
            <mxRectangle width="174" height="28" as="alternateBounds" />
          </mxGeometry>
        </mxCell>
        <mxCell id="PEr6sbL7nsEstti_IK5p-83" value="&lt;div&gt;Отображает список расходов по&amp;nbsp;&lt;span style=&quot;background-color: initial;&quot;&gt;выбранной подкатегории&lt;/span&gt;&lt;/div&gt;" style="shape=partialRectangle;html=1;whiteSpace=wrap;connectable=0;strokeColor=inherit;overflow=hidden;fillColor=none;top=0;left=0;bottom=0;right=0;pointerEvents=1;fontSize=16;" vertex="1" parent="PEr6sbL7nsEstti_IK5p-81">
          <mxGeometry x="254" width="1136" height="28" as="geometry">
            <mxRectangle width="1136" height="28" as="alternateBounds" />
          </mxGeometry>
        </mxCell>
        <mxCell id="PEr6sbL7nsEstti_IK5p-99" value="" style="shape=image;verticalLabelPosition=bottom;labelBackgroundColor=default;verticalAlign=top;aspect=fixed;imageAspect=0;image=data:image/png,iVBORw0KGgoAAAANSUhEUgAABRcAAAQ9CAIAAABMZ+32AAAAKnRFWHRjb3B5bGVmdABHZW5lcmF0ZWQgYnkgaHR0cHM6Ly9wbGFudHVtbC5jb212zsofAAACzWlUWHRwbGFudHVtbAABAAAAeJzdls1u00AQx+/7FKOeWolUTRWqygdUhRCkkEAhbU+9bJMlLE3Wkb2OxC394ICKhMQDAAceIC2EJiFNXmH8Rsw6X24+SimlFCzFsdfz8Zu/Z1ZeczV3tFcqMi11UQB+9KvY8fewTed9vwp0W/P3/NfYwa/0OwHsYgewRav7WMcvZFbFhv8O28zdlQoc2xWMe9pWXmlHOIzxnLYd2HTpukypZE6WudKQdGylhcqfW4zz3K5Zy3PNd7grIBEPAsgK16IXw5wgcm/obxEycX333+Kp4etz0T3gGdbwGzaolhrW/X1DfUY2XWz5BzCHn0aV+UdzoURDtsGFSdhns+CF1mU3Qtlq2O2JFWQCEq1LSuxRvNYU2RoTotHSuFkIYqBF/98gJOIWZJ+mp+U+DEK2KX+1pwItN7A+gmoZq/Fsw2SkcyIOkXCZ+J5MTvEkcHrTV/DCGq8TdUKr5hUAJ4OY10DIB5S+zfIiXH+YfpTj8wzYl66tRh7n+3Eal7E3cJ1wmR1sX65RmmHWQWOEupPym7mg3B/Ir4PHJiq1/rDtx/sukOGiVxnKN5wGOq5t+iaZ7kBwbCsg6Y7wOJC872m0rFOgOkUwMZpmF6oHfgT8pyc32PACpoBoiDAp67YaF9Y4U5zJRrzZSTeqXrqM27wtzJDzKpvDrDfzb2wRs4T47zaK6YU2bmDoaZqnjMvPef7yPM8CvOapvpWj8Vvtf5mO+CXFp83GGp3M5zZbL9IX72YmDRXhuJLqiy4uLy3HFlfnk46Ex3YFonchumTFYlZsBTLZDTCPF9j8w/U0uLbn5ATkpasdueNp8l9gKV7h8MxTWpaEBU/KQqUSjwYL8EBVJEGUhNIstZUZGazEInGpISscIoGtDEuI59wravLI2XmpChZsbiQjqyzNVcHjBYotFLtvU1znlQXKKxbZD/RC0eUYdizoAACAAElEQVR4XuzdCZyN5f//cXvM2CWUiBBfspQtlKWiooUWRYUoCtXv2+KrkD9N2ixZ0k/ZhcEYSyjrTGSZobEPEwYZYmxjHcvM+X+c6+f63u5z7nvOzJw5zhyv5+N+eNznuq/7uq/rvk/X4353n3MmhwMAAAAAAHgmh7kAAAAAAABYIEUDAAAAAOApUjQAAAAAAJ4iRQMAAAAA4ClSNAAAAAAAniJFAwAAAADgKVI0AAAAAACeIkUDAAAAAOApUjQAAAAAAJ4iRQMAAAAA4ClSNAAAAAAAniJFAwAAAADgKVI0AAAAAACeIkUDAAAAAOApUjQAAAAAAJ4iRQMAAAAA4ClSNAAEvri4uGgLR48eNdcGAACANVI0AAS+Vq1a5bAwfPhwc20AAABYI0UDQOBTKTpPnjwNrqtRowYpGgAAIANI0QAQ+FSKLlGihC6Jjo42pegPP/ywffv233//fWhoaNOmTR944IGBAwdevnxZ77Jw4cK2bdvWrFmzfv36vXv3jo+P15vE8uXLX3nllTp16jz44IMdOnTYvn2743qb4siRI6ral19+qUq2bdum93Xb8htvvKFqmiQnJ6fZVSP7yhMmTHjhhRcaNmxYo0aNhx9++JNPPjl58qRxd9dxLV26VBp8+eWXDx06JBVkaFJBShYtWqR2cTscLSIi4sYBXbNjxw5dwWp3fTLlcG+//fYPP/xw/vx5vZeRrmk0e/ZsXcHqECb61Ml6UlLSW2+9JS+//fZbtdXq1NlcONm6ePHi559/vlatWrLjf/7znxMnTpgOp8nZVuU2vbW/uMb+Hz9+XF2m0aNHq60yopEjR8qg5FKqI0p9447t03rfAgBuWaRoAAh8nqTo6tWry8syZcqop9Zqa8+ePdXWwYMHq5L8+fPnzJlTVooWLaqisvjqq6/UVtlUsGBBWZk6dapuU3z66afyMiEhIW/evKpk2bJl9i1LcL333nvLlSuntkrH7nWS6GjfVRP7yo8++mhwcHC1atUkCubKlUs2SVpOTU1VW92OS0KaJEBZf/zxx1NSUp544gm116VLlxzWw9H9mThxoqpgtGrVKrXVZnc1kEKFClWsWDF37tyyLrFQN2ukT7vRZ599prbaHMJEtdOpUyfJunXr1pV1ScsSPtVWq1Nnc+GGDBmiCu+7775ixYrJSpUqVU6dOmU8nAxQ1Zc6jrR6a39xdf9lvVu3bmprx44d1dbHHntMXsqZrFSpUpEiRWRd6ht3zGH7vgUA3MpI0QAQ+DxP0ZJVNm3aJEFREloOZzI5dOiQpAgVUdq3b3/lypV9+/bdfvvt8rJ169ay4+HDh1XGaNy4sfqtMgk5W7du1W2K4sWLS4jq06ePepnjehqxb1nExsaq+kuWLFEl9l3VdTysHBUVpdKvkEOoY23YsMFhO674+HjJcrKpRYsW8m/hwoX37Nnj8GA44scff1RHkaH9+uuval2laPvdjZnwyy+/lHWJmrpZI1XzpZdeOuIUFBSU43qKtj+EiWrniSeeuP/++2WlZcuWxqffNqfO4e7C6fP5+eefy8uTJ0+WKlVKXg4YMEBVMA5QSbO39hdXN7h+/XqVwHMYUvRtt90mL0eOHCnrXbt2zeEuRVu9bwEAtzhSNAAEPs9TtM4n69atUxV++eWXWbNmqfXVq1errSp1BAcHy/rs2bPVVteAodrMly+f/PvVV19J8lTrurJ9yw53YUw367aruo5mX1lS3wsvvFClSpUyZcqohCbUh59txiXCwsLUVjFz5kxVmOZwxIgRI1Sdixcv6qugUrT97mogd9xxR6NGjQoVKiRZcdKkSbpZI1Mcld1zXE/R9ocw0WFSFClS5OzZs8atNqfO4e7C6fMpsVx9Olql6KZNm6oKrik6zd7aX1y19dVXX61Tp44qz2FI0S1btpSXTz755Jw5c9RzaVOKtnnfAgBucaRoAAh8nqfol156Sb3csmWLqhAaGjplyhS1/ueff6qt7777bg7nQz9Z11ujoqLUVk212a5dO8lg6kPIXbp0UZVVGrFv2eEujOlm3XZV19FsKv/9998SR2X9/vvvf++99/SHfmfMmOGwHZfDGdjUiHLmzKk/j53mcMT7778vJcWKFXMYroJqwX53naIbN26sPsMs6VF/+NzIJkXbH8JEp2iVIXv16qU32Z86h7sLpw+tPq2tPffcc6qCa4pOs7c2F1dv1f1UL3WKPn36dM2aNVV9xZSibd63AIBbHCkaAAKf5ym6XLly6mO6o0ePVhUkwOjKo0aNkk2S3NS3ZFXq2Lhxo9r6ySef6PbVc0udiz788MMczk8+r127VlVWacS+ZYe7MKabddtVXUezqawfde7fv182/fLLL+qlioI24zp16tQ999wjm9S/d955Z2JiosOD4UhyK1u2rJQ8+uijxvoqRdvvbgyZBw8eVDU3bdqkWjYyxVFjirY/hIlqp0WLFlFRUerzzz///LPaZH/qHO4unD6f8+bNUyXi4sWLBw4cUOumbjs86K3NxdVbczj/T8fq1atr1aqVw5Cijxw5Im9IKfnuu++effZZ12Zt3rcAgFscKRoAAp/nKVryRu3atTt06KBSU/369dXWhx9+OIfzC6hdunRp2rSp2nfChAlqq2RCVSIH6tGjx4MPPmj8dTFJI4cOHerTp49ErG3btqmaOo3Yt+waxnSzVl01samso1G7du0GDx4sYVi91FHQalzPP/98DufjzaSkJJXN9GNhm+Hs2LFDPUMWkqXVb0qrl9LITz/9ZL+7GkiNGjXkTKqfNMudO/fhw4evD/S/bFK0w/YQJsZ2xo0bJ+tBQUHqR6rTPHVuL1zz5s1zOJ/Df/zxx0OGDHnjjTfkPfnNN9+ora4p2pFWb20urt4qOnfuLC9NKVp9ifqxxx5zWHwv2v59CwC4lZGiASDweZ6iX3zxRQmEalOVKlUkC6mtx48fl03q062qqREjRujWTp8+LUFFf3dUwszChQt1m8Zc5JpG7Ft2G8bsu2piX/n9999XvztVpEiR7777TlXQUdDtuMaMGaPW1S+N7dy5s0CBAlIydOhQh+1w9Ld23VI/B22zu86EOZxfDK5Tp47xj1cZ2adom0OYmNqRU5HDefbUz3Tbnzq3F+7kyZOvvvqq/r1rlX6XLl2qtrq+Wxxp9db+4qqtRYsWVT8OZ0zRK1asyOG8iHFxcQ7rFK1eOty9bwEAtzJSNADgGmNyOHjwoITDlJQUUx2JT1u2bNm9e/fVq1dNm8SFCxe2b98uGUZWzNvSYt+yiSdd1dKsLDlNMtLFixeNhUYZGJfb4agU3adPH0PFa1avXp3jeopW3O7uXV45RJqnzq3z58/L+dy1a9eZM2fM2yxY9TbNiwsAQFYgRQMArnF9/ua30tXVdFXOUtHR0UWKFBk4cKCpXNK1lKu//4R08Z+LCwC4pZCiAQDXNG3atFSpUu+++655g/9JV1fTVRnZCxcXAHBTkKIBAAAAAPAUKRoAAAAAAE+RogEAAAAA8BQpGgAAAAAAT5GiAQAAAADwFCkaAAAAAABPkaIBAAAAAPAUKRoAAAAAAE+RogEAAAAA8BQpGgAAAAAAT5GiAQAAAADwFCkaAAAAAABPZSpFp165enTlxr0/zd8+8Ef5V9alxFwJAAAAAIBAkcEUffn02a2fjp1b7NGZOeobl7nFWki5bDXvAAAAAABA9peRFH1yY+yCsm1UbF5So21Ut39v+2yQ/CvrqnBB2dZSx7wbAAAAAADZXLpTtMTj2UGPSFRe3rjD8ajw1NQ/jYuUSLlsnR30MEEaAAAAABBg0peiL58+q55Cr3/93ZTLG00RWi1SLlulzrw7nziyd39SUlJycrK5IQAAAAAAsqH0peitn3yvnkJfvRTtmp/1IlvVE+nl3T6Li4tLSEggSwMAAAAAAkA6UnTqlatziz8m2dj1g9yui9S59rnuIs0iV66KiYmJj49PTEwkSAMAAAAAsrV0pOhjEZuu/ZzY/e1cM7PbZcn9z1371e7Pv1uxYoUK0klJSeZGAQAAAADIPtKRoveOu/Z4OfqtD1wDs9sl+q1/S/2f3+gTFhamgnRCQgKPowEAAAAA2Vc6UvTOLyZJKt7Sd4BrYHa7SE2pP+2Fd6dOnRoeHh4ZGRkXF8fjaAAAAABA9pWOFH39WfSHroHZ7aKfRU+cOHH69OmLFy+OiYlJTEw0twsAAAAAQDaRjhR9/XvRz7sGZreL+l70jP5fS4pWj6PXrl2bkJBgbhcAAAAAgGwiHSk6A7/RHVqo6cyfp0uKnjJlSlhYWGRkZHx8vLldAAAAAACyiXSkaMd//170qx7+vejQtr1DQ0MnTZo0efLkWbNmrVixIi4uztwoAAAAAADZRPpS9OXTZxeUbSPxeN1r76Zc3uian2WR8vWvv3stQpd4NHTiFFI0AAAAACBgpC9Fi5MbY2cHPSIheelDr7h+tFtK1FPombc1Dh0yUiL0zJkz+UQ3AAAAACAwpDtFO5xBem7pJ65F5Rz1F/3rucjWXVc2e1X+XVKjrSq89hTaGaHF9OnXvhfNr4sBAAAAAAJARlK0OLJ3/7JuA0MLXnsofcMS/HBou3fVB7nVg2jJz/ylKwAAAABAYMhgik5KSoqLi4tcuSps0IgZD7ws+Vn+ndHv65k/T9f5WZKzitDqQXRkZKTsIjua2wIAAAAAIJvIYIpOTk5OSEiIiYlZsWLF7Pb/lhQ97bmeE50mOal1FaHDwsKkmlSWXWRHc1sAAAAAAGRU8rGTZ//6++iqTWqRdSkxV/KeDKZoh/NxdHx8vGTjhZ0+ufYs+vl3f/zxx3Hjxv2vk6zIy+nTp4eHh6sILZV5EA0AAAAAyIyrF5IT12zeNfTnNc9/tKT6S7Nua2z+orFzkXLZKnWkptSXvcwNZVTGU3RycnJiYqJk4+U9BksXwzt+PHXq1MmTJ09wkhV5uXjx4sjISBWhpTIPogEAAAAAGZBy6fLfc1etafuhjs2LKrdZ/dxbmz/qt2vEt/smjvln5Uy1yLqU/Pnef1Y/003q/F+oztcoomXPfeMXXD1/0dx0OmU8RTucQTopKWndB8OkT5KlFy5cGB4ePttJVuSl5Oe4uLiEhASpRoQGAAAAAKTXpZNntvQZPbf4oxI859/VMuaDTw/Nn5R8fLXp7y5bLVJT6stesq+0EFa4mbQmbZoP47FMpWhlc7+x0pWoj7+Ljo7+448/Ip1kRV4mJiaSnwEAAAAAGXNw1nLJz6G5G67r0OufFTNSUza55mRPl5RN0oK0E5q7QVixFjvGh2csrtql6KOrNm0f+GOay8pmPSRFy7+/v/uVaXGtLG2aDwMAAAAAgIstfUZL2FzWsP3p7YvMkTgTi7QmbUrLEW8NzsBHp+1StIRe45ezvbJIm+bDAAAAAABwox0hEyVCRnf/IOVKJp4/WyzSprQs7S/v9UV6f8bLLkXzLBoAAAAA4Huntvw1K2+jte3fcQ3AXlyk/dA8D62ZPi8uLs7zIG2Xoo3OnDlz/Pjxw4cPHzhwYM+NJC1LipZ/N7gw1dSkEWlKGpRmPewoAAAAAOAWsa7jgLCizTz/CbGMLdL+nCLNwpp3W7t2redBmhQNAAAAAPAjKZcuzwluGt3jQ9fc6/VFjhKav8mCueGeB2lSNAAAAADAj5yM2iEZ86/vR7iGXq8vchQ51owvRixevDgqKio+Pj4pKcncoRuRogEAAAAAfiRu5CzJmDu//tI19Hp9kaPIsX5+/aNZs2atWLFi+/btiYmJ5g7diBQNAAAAAPAj+3/+VTLm5v8McA29Xl/kKHKsKd0/mTZt2oIFC6KiohISEswduhEpGgAAAADgR/5ZtuFaxnz6TdfQ6/VFjiLHmvzh4ClTpoSFhUVGRsbHx5s7dCNPU7SN7c4/Ky3/mrPynj3mqgAAAAAA2Dq6apNkzDkFH/HFb3QXfOTas+j/fDF58mT1oe64uDhzh25EigYAAAAA+BGVomflaeiDvxctRyFFAwAAAACyMZWiN3T9t/wb3f2DlCubXANwJhdpU1rWRyFFAwAAAACyK5Wi/1k5c0uf/rKyrGH709sXuSbhDC/SmrQpLUv7chRSNAAAAAAgG9MpWhLvgdAf5xZvHpq7wboOvf5ZMSM1JRPPpVM2SQvSjrQmbUrLUkiKBgAAAABkb8YULUvyiTVb+vQPK3ztZ8Dm39Uy5oNPD82f5PkPj0lNqS97yb7SguRnaU3aVFtJ0QAAAACA7M2UotVy5dz6vT+NjmjZeVa+RrJVlkWV26x+ptuf7/1n14hv900cI/XVIutSsvmjfqufe0vqqMqzbmu8pu1bB8MmXE2OMjZLigYAAAAAZG9uU/R/4/T5DcdWz4r99us1z3dfUv05iccqJ5sWKZetUkdqSn3Zy7UpUjQAAAAAINuzT9Guy8WjkWfiftPPomVdSlyruV1I0QAAAACA7C29KTozCykaAAAAAJC9BXiKvnoheXHVl+So8m/c9p2kaAAAAABAZgRyik5NSVnTro/+9vZvrXr9FRdHigYAAAAAZFggp+iY/xk+89qf23rsUHiE/Cvrq7p8RooGAt7lU2dkartFlsunz5rHDwDedovMq8yoADx0NFBTdNyoWTOv/Xp4k2MRm+RlwrL1ofmu/cL46n6jYp0kRScnJ5t3A5D9qXntFlnUFAcAWeoWmVeZUQF4KDBTdMKC30NzN5yZs8H+aUvkpaTlM2fObBg6SUpm5mqwdtRUlaKlkCANBB41r+0a/u3RVTMDeNk17Fvu+QD4RsDPq8yoANIlAFP0yY2xc4KbypG2D/rJcT1CHz9+XGJzxLtfSvmsAg//OWeJvJRCgjQQeNS8JndFrtNQIC1qSuWeD4APBPy8yowKIF0CLUWfP3Bkfpmn5DAbOg9SJSpCHz58WGJzbGzsr8/+j2wNK9ly5+/rpVAF6RvbAJC9BfzdnlrUlPrrsB/Xrl0bExMj82lCQkJSUpL5dABApgX8vKpm1FVjpjCdAvBEQKXoy6fPLqnxyrVJ8NGeKZevOJwPolWEPnDggErRO7dt/6VhZ6kzv8rz+7bHqiDN42ggkAT83Z5a1JQ6a+DQBQsWyHwaFRUlU2piYqL5dABApgX8vKpm1HlfjGI6BeCJwEnREpslPMsBJEirn1hUn+XWEVrbHbNVIrTUXNzojf1790kFPtcNBJKAv9tTi5pSp/b9Yvr06eHh4TKlxsTEJCQkmE8HAGRawM+rakad0f9rplMAngicFL2h86BrT5jLPHX+wBGH4evQOkLLyuHr4qO3zL2jldRf/vxHUs4XpIFAEvB3e2q5PqWGTJo0SYL0ggUL1q5dGx8fbz4dAJBpAT+v6hmV6RSAJwIkRW8f9JM0PSe46cmNsQ5DhFZfh9YRWqVltSnu19Wzgx6RvX5//2u9iSANBICAv9tTi5pSQz/7VlK057MqAGRAwM+rOkUznQLwRCCk6P3TlszM2SA0d8OEBb87bozQ6kG0MUInO6kK2yfPV38Qa9N30wjSQMAI+Ls9tZCiAfhMwM+rpGgA6ZLtU/SxiE2zbmsi7caNmuXwIEKrvXS1jSHXHmKH5mu8LXSxazUA2ZHN3d6+fb9ERU0zLmfOrHGt5j/LmDF9f/xxgGt5KikagA/ZzKuphqk1OvrnPXsWXr4c7VrH8+WLL3rPmPGla3nmlzRnVFI0AA8lrt4sk8aRZdNd5xOvL3KUaxPUJ0M8n6DSSNFJsfFziz8mjcb8z3CHxxFa0ZXXvPW5tDCnaItdK9daVQaQjdjc7XXq9HSuXLmCgwvo5Y8/JrlWy9jyzjsvDRnyrmt5ZpaOHZ/q2vU51/JUUjQAH7KZV1OdU2uePLlLlCgiS+7cuUqVKjF79jeu1TxcHn20fp8+nV3LM7+kOaOSogF46Oyev2XS2Dfpe9f5xOuLHEWONfnr7zyfoOxS9MWjJxdWeE5aXNOuT2pKisPwp6H1L4rZp2IVpBOPHVv+1HvSztyyrff8uU3vYq4NIJuwuduTW72mTR90LffK0rr1w++918G1PDNLmvd8pGgAPmAzr6beOLVeuLD+zTfb5c+f7/z5da41PVlI0QD8X8qly3OCm0b3+NB1PvH6IkcJzd9k0k/jPZ+g7FL0Hy99IvPdsgZdrl64lpCTb/zT0OpBtE2EVlSQPnbo8KI6HaW13556Vz++ttkLgD+zuduzStGDB/ecNi1k9Oj/NGpU6403nlWF48cPbNasbq1aVV57rXVc3Hxj5Z9//uKHH/o99FDNRx55QKqlOj8oeOedJatUKd++fUtZDh36TVVeuPA7Sde1a9/34ouPb9z434/9uG1ElpSUTd988z/16lVv0qT2pEmD0rznI0UD8AGbeTXVZWpduXJcjhw5du+ep17+/vsEqVC/fg2ZYD/44LWTJyN1zUWLRj399CM1a1Zu0aKezKKq0Jii//lneZcuz8yc+ZV6mdUzKikagOfWdRwQVrR58vHVrlOKFxdpf06RpjObdErX/Z5dir549KQEafnX4e5PQ6swbB+hFbXv/q2xy9q8H7vhz3TtC8AP2dztyZ3cww/XuXBhvVqSkzeocrlpu+uuO559tpncq/3yy0gpGTHiowIFbhs27MPFi0c/80zT228vevz4Kl357rtLvfxyq3nzhoeE9MqVK9eyZT9ERU178MFqcns3a9bXsiQlXZtS5U6uYMGgIUPelQqffdZdGty8OdSmESn/8sv3ChUKlrtJuVmUDF+6dAn7ez5SNAAfsJlXU29M0UeOLOvQ4ckKFe66dClKlQwd+oFE2d9++z48fFjjxrVlElbl48b1z5s3zyefdF26dKxkYJ2cdYqOjZ0r7bz77itXr25M9cmMSooG4LlTW/6albfR2vY9XacULy5/vPROaJ6God+MSdf9nl2KNlKf5TZFaM+fJ2fsOTYA/2Rztye3ejkMJPeqcrkD+9e/KqakbFIvL1+OLlas8Ndfv69fli9fpn//N3Vl2VFXbtXqoZ49X0p1+US37FWyZLHvvvtYl3Tu/Mwrrzxh04jcdMpxR436jyo8fXp1kSIF7e/5SNEAfMBmXk11mVrLlLk9Ovpn12qyHDu2Uirs3DlXprvixYsMHNjDtY5K0b//PuH224tK/FaFvplRSdEA0mVHyESZOqLe+iDlyv/NP15cpE1pWdqf+fK/Z86cOXHixClTpoSFhUVGRqb5B+3TnaKVDHy32fidaoUUDWRTNnd7cqvXoEGNfft+UUtCwlJVLndgb7/9oq4WFzdf7vO2bp2lS95449k2bR7WlY1pWXZs165FqkuKlt2lkR49Xvjss+4DBrwlIbxly4dq1qxs08ju3fNkl9jYubpcdrG/5yNFA/ABm3k19cap9c8/Z8iEJol3//7FauvRoyv69n2jefN6999fqXr1e3PmzLlo0agtW67NkPphsnGR6bFu3X8VKhSsP8id6qsZlRQNIL229Bkts8ev9V46vX2R69yS4UVa+63+S9fu9J7tJRF62rRpkqLl3wULFkRFRSUkJJj7caP0pejD12UgAKvPdWeyEQD+wOZuz+p70cav4ckSEzNT7r327FmoS3r1ai+3gG4r9+z50rPPNkt1SdHr10+RRj76qNMXX/TWi9sv/ulG1HEPHFiiy9u2bW5/z0eKBuADNvNqqsvUmpKyqUSJIpJ11ct69ao/9VSTX38dI8l5x46wvHnzzJ07dMOGqTLdGX9yQi8yPTZpUjs4uMCIER/pQt/MqKRoABnwx9CJoYWazszVYE37d/5ZMSP1+udiMrKkbJIW/ni5p7Q2s+Ajof8zWEVo483e9u3bExMTzZ24UfpStJax9KuDdCbbAXBz2dzteZiik5JW58yZMzx8mC555JEHunVr67ayTtHyb+/eL+vy48dX5cqVy+rPvbht5PTpa8ddvHi0Lq9Spbz9PR8pGoAP2MyrqS5T69WrG4sXL/Lxx51k/fDhZRJld+0KV5tkRV5Kij5xIkJmSOPTZr2o6TEycnzhwsH6zwf6ZkYlRQPIgPj4+PUrIsNf/PfMAk1kJplb+rE///3JofmTPP/hMakp9WWvuaUfv/YRbsnPz/YKnTBFR+iJEydOnz598eLFUVFRcrikpCRzJ26UjhRtlOHoq4K0V5oCcLPY3O15mKJleeWVJ2rVqiL3f7I+dernciu2fv0Ut5V1in733VcaNap15MiyM2fWqK/nvfZa64oV79IfWdyxI2zp0rH2jbz44uP169eQ+8tU5y+cyV2j/T0fKRqAD9jMq6nOqVUmrri4+bJER//81lvtZO76/fcJsuncubV58+b5/vtPUp3fTG7Z8iGZTiVFy8sOHZ68996y27bNTnV+7VnVTzVMjzLrFitW+LPPuqtyH8yopGgAGZCYmCgzxtq1axfMDpvx1qfTazw/M89D18JwjvrzKzy16qk3/nzvP7tGfLtv4hiZatQi61Ky+aN+q9p0kzqq8sy8jULrd5z5weehP0+X/CyxeerUqZKf5U5P1hcsWCCHkAPJ4dKMqJ6m6OQbmTenh6mpTLYGwPds7vY8T9H//LNcasotV9GihYKC8g8b9t+/B2h1u7Znz8LGjWtLZfXbOVJy9uwfXbo8kydP7uLFiwQHF5B/x4791L6RQ4d+q137PrnplHtHqZPm5w9J0QB8wGZeTXVOrTmuK1w4WIJrWNi1nKyWkSP75MuXt3TpEgULBn377b9lMlQpOilp9UsvPS6h+vbbi0oF429P6OkxJmZmyZLFPvro2mNtH8yopGgAGSCBUQfpxYsXSwCe8tOEyZ98MfXl93+u+/KMu56QePx/Odm0SHnZJ2c26DjztY9CBw2bOWWapOVp06ZJeFbPn9UvikmD0qznEdrheYoGAM3+bi9dy8GDS7ZsmXXu3FrXTZ4vcqcojcTHL7py5dofa0lzSUnZFBs7d+/e/34r2+1CigbgM5mcV0+d+n3r1lmnT7v5cGNi4qrNm0PVB388WbJ0RiVFA8gYHaSjoqJ+++23sLAw9SRZphQVhieN/H7yV99N+c8XapH1yaPGTrqRqqnIjrK7NCJNSYPSrOcR2uE2RcfGxu7fv99YcuLEiejo6NTUVGMhgFtWJu/2sstCigbgMwE/r5KiAWSS5Ns///xzwYIFEn3l3mzatGlz586V+UQ/Xp4yZcr3338/3GnEiBGyrm7hNKkg1aSy7CI7hoeHL168ODIyMiYmJj4+3vMI7XCbohs0aNC1a1djiRwsR44cFy9eNBYCuGUF/N2eWkjRAHwm4OdVUjSAzHv11Vfz5MlTwikoKKh06dIvvfRSaGioRGuJxGFhYR06dKhRo0ZdJ1mpX7/+wIEDZ10nFaSaVJbwLLPQ2rVrJT/LXJSQkJCUlOR5hHaQogFkQMDf7amFFA3AZwJ+XiVFA8i8Tp06NW3aVOKuhF6JvjNmzKhWrVqFChWWL18ukTgyMrJdu3ZNmjRZ4fTrr79Kxi5VqtSSJUtUiVSQalFRUTo8JyYmpjc/K+lO0du2bZOIX6dOnYYNG3bp0uXIkSO62i+//NK6devatWu/+OKLmzZtUoWff/75zz//PGbMmEaNGr3xxhu6MoDsK+Dv9tRCigbgMwE/r5KiAWSeStHGkgMHDgQFBb333nsSiePj41944QVJnXHXSQ7NmzfvsmXL1EupkJnkbJS+FC0Hu+OOO95+++2VK1cuWrSof//+egacMGFCwYIFv/zyy+XLl3/22WcFChTYsmWLlD/66KN33XXXs88+GxoaKrsYmwWQTQX83Z5aSNEAfCbg51VSNIDMc03Ron379rVr11brxgr//PNPhw4dKlSocPnyZV3ZW9KXov/66y9ZOXTokHGruHLlSsmSJUeOHKlLOnfu/MorrzicKfpf//oXv0wGBJKAv9tTCykagM8E/LxKigaQeW5TdN++fUuUKKHWpYL+u4CiTJkyGzduvLG6d6QvRUtarlGjxj333PPRRx8tW7ZMx/pt27ZJhR49enz22WcDBgzo379/y5Yta9as6XCm6LffftvYGoDsLuDv9tRCigbgMwE/r5KiAWSe2xQtybRUqVJqXSpImI13iomJkRxasmTJAwcO3LiHF7hJ0Y899lj79u2NJWPGjMmXL19KSoqsnz179ocffnjuuecKFy5csWLFvXv3SuGGDRskRcsAhhh8//33DmeK7tOnj7E1ANldwN/tqYUUDcBnAn5eJUUDyDy3KbpVq1aNGjVS66YKqampJUqUGDBggC7xFjcpunv37tWrVzeW9OzZs2rVqsYShzNOS6EkZ4fzD0rnypVrzpw5pjoOUjQQiNTd3q5h38pdUQAvMkBSNADfCPh5Vc2opGgAmeGaojdu3Jg7d+7hw4e7rZCSklK8ePGPP/5Yl3iLmxQdHR2dM2fOr776Kjk5WQ7866+/FixYcNiwYbJp//798lI9lJbkfO+993755Zdqr9dee61ixYrqF8XEzp07ly1b5iBFA4FI3e3dIgspGoAP3CLzKikaQGZISK5fv/5ff/21e/fuNWvWDBo0qHDhws2aNdM/uK0rCAnYb731Vq5cuVavXn1jM17gJkWLsWPHFitWTA5522235c2b9+2331Zfgd66dWupUqXy5ct39913y6bnnnvu/Pnzapdz58516dIlT548EveDg4Pl3x9++MFBigYC0eXTZ49FbFLLr8N+nDVw6NS+X8i9kQTOAFwmTiFFA8hqt8i8OnnsOKZTABnW6fqPh+XOnfv2229v3ry55NYrV664VhASsCVRz50719CA17hP0Q7nz27HxsZKbJZ4bNr0999/S/mJEydM5eLMmTOyaf/+/VevXjVvAxCI1q5du2DBgunTp08KaDJAGaYMNj4+3nwKAMCrAnteZToFEAAsUzQAeCImJmbFihXh4eFyYzQ5QMnQZIAyTBlsQkKC+RQAgFcF8LzKdAogMJCiAWRKXFxcVFSU3BItWLBgVoCSockAZZgy2MTERPMpAACvCuB5lekUQGDwTorePvBHcxGAW0NCQoLcDMXExKxdu3ZF1pvU4xNzUdaTockAZZgy2KSkJPMpAACv8uW86uNJlekUQFbzTTL1ToqemaO+uQjArUFugxITE+V+KD4+Pi7rfZf3AXNR1pOhyQBlmDJY/SOQAJBFfDmv+nhSZToFkNV8k0xJ0QCyE2YbAPAiJlUAAcY30xopGkB2wmwDAF7EpAogwPhmWiNFA8hOmG0AwIuYVAEEGN9Ma95J0b75DjcAMNsAgBcxqQIIML6Z1ryTogEAAAAAuBWQogEAAAAA8BQpGgAAAAAAT5GiAQAAAADwlHdStG++ww0AzDYA4EVMqgACjG+mtQymaPsfELffCgAZxvQCAF7EpAogwPhmWiNFA8hOmF4AwIuYVAEEGN9Ma1mVokNCQsaPH7969WrzNgDIBPvJBwCQLkyqAAKMb6a1rErRn3322Xfffbds2TLzNgDIBPvJBwCQLkyqAAKMb6Y1UjSA7MQ3vxgBALcIJlUAAcY30xopGgAAAAAAT/k6RV+4cGHNmjUjRowY7GTaqk2fPl1VMIqMjDTXA26eKVOmxMbG7tixY9q0aapEv2+HDx++dOnSG6v7Hdf+AwAAAEiTr1N0nz59chiYtmqtWrWqXr16V4OSJUtKm+Z6wM3TtGnT2bNnz5gx49FHH1Ul8r6tVatWz549X3/99aJFi7Zu3To1NfXGnfyIa/8BAAAApMkyx9rLcIqeN2+elA8aNCjNFP3ee+8ZSxo0aGBM0ZcuXYqJidm8efPly5f/W8nhOHXq1N8GUk0Kjx49ev78eWM1RSqvX78+IiLiyJEjxnK3jUsj0uChQ4fOnDljqOvYv3+/tLBjx46UlBRVcvLkSWMfFN3U1atXN23atG7durNnz/63lXT23MhUR8Zy8eJFte7aNzm6blwkJibqbiQlJf3zzz9qXdq8cOGCWk9OTpZd5F9VfvjwYVUupFnZJOPVJa5HVFxHbX+WNGNPzp07J+dfl1uN2ubyGen6bg8hl+PEiRN6d5GQkKB3UVxTqPF9K32Qd/jvv/+uXlqdGXkZFxcnm6RLDueHNfQYhRxRyvUubofmcHbbODR9ZlzfP5LqpYJcDoe7/gMAAABIk2WOtZfhFK2Eh4dnJkVHR0eXK1euVq1a1atXv/fee7du3aqr9ezZs1ixYtWdcuXKpf7UltScOnWqrqNJI/Xq1WvYsGH+/Pm//vprVWjVuJSULVtWCoODg2U9Pj5eCjt37lyhQoUWLVrcc889devWVbnr008/VR0oUKCA2kXs2rVLNsm/lStXrlq1apMmTUqWLLlkyRLVuCOdPTcy1ZE+y+l1WPRNQlSXLl2eeOIJFcPkPA8fPlxWZDh33323BCrdpl5/88035UqpSynlOXPm3L17t9o0Z84c2dSpUyf10u0RHRajtjlLRronEmIrVaoUEhKiy92OOs3Lp+TLl0/VV5tcDyGNy+76SfKWLVvy5s0roVS9VFxTqPF9K0k1d+7cqmWrMyNnsnbt2uXLl2/evHnp0qXnzZsn6V3qqIsinn766bZt26p1q6GJUaNGBQUFqaHJm3nixImq3PX9I+3LJVOJ3bX/2YJvfjECAG4RTKoAAoxvpjXLHGvvJqZoCSfVqlX7+OOPVXmPHj0eeOABnXbefvttKVHrRYoUsc+i6omcCAsLu/POO1WJVeM6a125cqVZs2YDBgyQdZVGHM4niu3atevbt696qUifjceVdiSx9+/fX72cP39+qVKl9KPCdPXcyCpPWvVNxigv27dvL+UqRf/zzz+Scv/3f/9XN6IHGxUVJZ2UeK9TdL169Xr37q2qSQyrX7++TtFuj2g/aofLWTJRPTl8+HCVKlUGDRpkLHcdtf3lc62v1t0eIjk5+fbbb9dv4Hfeeeell15S69qFCxfkiPJ+0M+oje/bcePG5cyZc+fOnQ7rMyMns2vXrupRszR1+vRpWdmwYUNwcLCc+aFDh0qiltyrtloNTch/a/KeVOsPPvighynatf/Zgv3kAwBIFyZVAAHGN9OaZY61Z9+5LE3Ru3btkh2PHTumyvfu3SsvDx48qF526dJF72jMopKOoqOjZV/1yWRNChcuXNi6dWuVDG0al0ZCQkKk/rx588qXL79o0SKHMwgtX75cRjp48OBnnnlGum1o25wP9+3bJ61FRkbGXCc9XL9+vdqa3p5ruo5StmxZlQ9t+iZN3Xfffd27d5dCOavSgg7GigqWku7q1q07fvz4u+66S6foMWPGyMuzZ89u3bpVXn7wwQc6Rbs9ov2oHS5nyUQOMWLEiKpVq3br1s1U7jpq+8tnk6LdHuKjjz568cUXZUUyv/R5xYoVxq1uyZClpjR+xx13SBKWZlW52zOzZ88e6Z7xE/LasGHD5CRLC5KoVYnN0MSQIUP09TWlaNP7x5iisyn7yQcAkC5MqgACjG+mNcsca8++c1maoiMiIvLkyaPLL168KO3osPH000/rx4nGLFqzZk1ps379+iVKlJAYrHfv27dvy5YtK1asqB692jRey0k1UqdOnW3btjmch5P1gQMHjhw5skOHDtJJva/DJR9KksyVK1erG61du1ZtTW/PNV1HCQoKUvnQpm/SuLQmbeZzkr3Kly9v/L63StFjx4596KGHJAEaU7SM6J133pEs/eabb/7444/GFO32iPajdricJRM5ovSwdevW0gfjF7Ddjtr+8tmkaLeHkKR62223HT16dMKECZUrV/bkd8KkJzLwmJiYv/76S3/53GF9Zoy9NTp06JB0qUmTJrrEZmiiV69er7/+ulo3pWjT+4cUDQAwYlIFEGB8M61Z5lh79p3L0hStnuAlJCSo8tjYWONLSUezZ89W624/F/3555/Xrl1brWvbt2/PmzevBAybxlWwVOXSSMOGDSVlST7U4bN///72KXr//v3SmvG3o4wy1nOHRT606duFCxckE8oukhgrVKjw8ssvS+Err7zSvXt33Yi0OWrUqJIlS0oglJemFL1z505poWzZstKUTtFWR7QftcPlLJnIESUiykrHjh3Vk2Fd7jpq+8vnWl+tWx1CPPHEE1999ZVc62+++cZYbsX1fetI68zIvzfUdn54u2nTphK277777jFjxqhCm6GJevXqDRs2TK1bfaJbvX9I0QAAIyZVAAHGN9OaZY61Z985mxQdFhb27LPP1q9fP4fTs06uEcs1jegUnZqaKjlBIp+sSN5o3779ww8/7HA+nfv222+LFSumvlzqcJdFL1++3K1bN11f/170b7/9JilaMqFV46oRlaJVI40aNTpw4IAMQT2U/uuvv0qVKmWfokWLFi0kp507d87hHMjKlSvlKOntuYnbfGjTNzmxzzzzjFpvdf3XxY4fP166dGl9vaTNMmXKqGzpcEnRDudvg40bN05WdIq2OaLbUatNDndnyUifdjk55cqVmzx5si53HbX95XOtrze5PYTD+S3u22+//bbbbktMTNSFNlzftw7bM9OsWbN27dqpXwiXmK0+3d2vX78aNWqov6weHBy8efNmh/XbXqxYsSJfvnw6GLtN0fr9EwAp2je/GAEAtwgmVQABxjfTmq9T9JAhQ1R+NoqNjTVVc00jOkWLnTt31qxZ84477ihRooRkhj179kjhoEGDGjdubPyosDGLBgUFycuiRYtKkFA/brxv377ixYtLXKlataq0o4OH28ZdG9myZYvDmSELFChQrVq1SpUqvf/++2mmaIlJbdq0KViw4H333Sft1K5dW+JNentuYpUP3fZNmpVYqP+yl07RYu7cufpz3dKmnAGd6l1TtGb8RLfbIzosRq1bcD1LRjriilWrVsnu6tfRrUZtc/nc1leb3B7C4XwsXLZs2VdeeUW9TJPr+1axOjMHDx5s3ry5nJkqVaoUK1Zs6dKly5cvL1SokPpNMhESEiInTf3vHrdDk5yfy6nIdblz55Zj/fLLLw537x//SdEXDifuHRd+6USSeQMAAADg33ydor1Ispnp7zynl2S5uLi4vXv3uv6ZYs8bP3bs2O7du40PV9MkoSg2Ntb4FdwskoG+ZZLNEX02akd6Lp896XPhwoUjIyPNG9LP5sxIst21a1eafxhcMQ1t9uzZXbt2NWy/plOnTvr/EfizYxGb5pZ4fO0r/RNXX3veDgAAAGQL2ThFA1lK3r0dO3Y0fb7A36xYsWLw4MGmwoEDB0ZERJgK/ZME6Vn5Gs/M2eCXe9vuHj6DR9MAAADwf6RowL22bdt27dpVf7obWUSC9JzgpjJphJdsNTvoER5NAwAAwM+RogHcZDpIyzIn6JG5xR+zeTTtm1+MAIBbBJMqgADjm2ktq1I0CwsLSyaXOQWbHV6y1rXctJgnIACAx5hFAQQY30xrWZWieRYNwEPHIjaFl3h83h2t/i8Y52wQVrTFn+8NU8+i05xtzEUAAI8xiwIIML6Z1kjRAG4mFaHDirS4lp9zP7S0XucjS/77V98cHsw25iIAgMeYRQEEGN9Ma6RoADeNROjZBR6RGcP48NkkzdkmJCRk/Pjx6k+sAwDSxX6OBYBsxzfTGikawM2h/l70iqY9TA+fTZhtACDr+OZneADAZ3wzrZGiAdwEFw4n7h0X7vbhswmzDQAAAPwKKRqAX2O2AQAAgF8hRQPwa8w2AAAA8CukaAB+jdkGAAAAfoUUDcCvMdsAQNbxzc/wAIDP+GZaI0UD8GvMNgCQdeznWADIdnwzrZGiAfg1ZhsAyDr2cywAZDu+mdZI0QD8GrMNAGQd+zkWALId30xrpGgAfo3ZBgCyjv0cCwDZjm+mNVI0AL/GbAMAWcc3P8MDAD7jm2mNFA3Ar2V4ttm4cePQoUN79uzZpUuX//f//l98fLypgvLkk0+Gh4ebSx2Ow4cPnz171uolAAAAblmkaAB+LcOzTXBwcA6DvHnzRkREmOqIWrVqTZ061VzqcDz44IMTJ060egkAAIBbFikagF/L8GzzxBNPLFiwIDExMTo6umTJkhKkW7VqZarjuJ6iT58+HRkZeeDAAVV44sSJmjVrDhs27O+//z527JjppVQ4evTo+fPnjx8/vmrVqv379xsbjIuLW7ly5Z9//nn58mVjuXbq1Kn169dLpD9y5IixXNqRwh07dqSkpOhCOdDfN7p48aIqt+qAuHTpUkxMzObNm019kJale3IUacdYrqg29UvpnjqWw6JvJm4bt+n/hQsXVJ3k5GQpl39t2nFYDMrYzrlz5w4dOqQ3aTbnympcpj7IIYwtyxCkXO/itmMOZ3+MAzeeW7e7qHMlBzpz5owuNLI5aUY258R1vCdPnjR2UlG9unr16qZNm9atW2f8FIbpgur+W43I7Zm3GYjNJs2qWcV1jIrn19TtWBxZcEEBANkXKRqAX/PKbPPiiy9Kiq5du7Z5gzNFv/nmm/fee2+DBg3y588/evRoKfzkk0+CgoLuueeeBx98sHPnzqaXaq+OHTtKSZMmTQoUKPD11187nLfpzz///J133vn444/LsVq2bGk6llKuXLl69eo1bNhQDqd2FNJshQoVWrRoIW3WrVtXcrsqlwOVLVu2+nX58uVTnz932wElOjpaDiEVpL6Ma+vWrap89+7d0qvy5cs3b968dOnS8+bN07sopsfysq86llXfjKwat+n/jBkzVB05/3J11BW0asdqULqdhISESpUqhYSEqHIjq3NlNS7XPpw6dUrqDB8+XFV4+umn27Ztq9atOiZGjRolbxs1cLnW+rMMVrvocxUcHCzrrt9BsDppJlbnxO14P/30U9VDOTP6Su1yqly5ctWqVeWklSxZcsmSJbpx4wXdvn27w3ZEbs+8zUBsNmlWzTosxuhIzzW1GosjCy4oACD7IkUD8GuZn22OHj1aqlQpuR0fNGiQeZvzTldur9XDojlz5hQqVEg9j7L/RLfsJbfLJ0+elPXIyMi8efPu3bt3y5Ytcrusn1AlJSXp+kZXr15VK2FhYRK51bp6PuZwRvF27dr17dtXvaxlkWzddsDhbLxatWoff/yxqt+jR48HHngg1Umie9euXdXopNrp06d1s4rVsaz6ptk0btWmDktRUVFydYoVKyZX0Kodq0Hpdg4fPlylShW319dhfa7cjsuqDxs2bJCLK70dOnSopC/JYGqrVceEvC2bNWum1vX7x2YXfU6uXLkiOw4YMEDV0dyeNFMdh/U5cTterUGDBvpKSX8aNmzYv39/9XL+/PlyOPXGNl1QR1ojcnvmbQZis0mzatZhMUbPr6nNWBxZcEH9hG9+hgcAfMY30xopGoBfy+RsI1lCQrJE6KefflruZc2bnXe6srtal9toqak+55lmiv7888+NW0ePHi138Pny5fviiy/i4uL0puTk5MTr9O14dHT0woULW7du3bt3b1Uim5YvXy49GTx48DPPPKM/fG6TQl07ICu7du2SIaiPnQtJF/Ly4MGDe/bskRU5G3oXV9KmhK7o68qWLauOZdU3zaZxm/5LwJBUU7du3fHjx991111yBa3asRqUw9nOiBEjqlat2q1btxv2MbA6V27HZdUHMWzYMOmn5C5JX6rEpmNiyJAh+lzp94/NLtLPkJAQOfPz5s0rX778okWLVB3N7Ukz1VHV3J4Tt+PVjCl637590isJqDHXFSlSZP369Q6XC+pIa0Ruz7zNQGw2aVbNOizG6Pk1tRmLIwsuqJ+wn2MBINvxzbRGigbg1zIz2+zcuVNuXuWm9pVXXrH6lrIxFVy8eFEq//XXXw6X2Oyaon/66Sf9sk2bNv369ZOV33777YknnggKCqpYsWJoaKiUzJw5M/g6/YS2b9++LVu2lDr6w6sS8uvUqTNw4MCRI0d26NBBIo0qt0mhbjsQERGRJ08eXa5GJAlBEpGx3C1ps2bNmq2uk1GoY1n1TbNp3Kb/MvaxY8c+9NBDknxUWLJqx2pQDmc7+fLla926tbSgHk66sjpXbsdl1Qdx6NAhOVaTJk10iU3HRK9evV5//XW1rt8/NrvUcpIzX79+fenYtm3bdDXF7Ukz1VHV3J4Tt+PVjClaTkKuXLn0O0FZu3atw+WCOtIakdszbzMQm02aVbMOizF6fk1txuLIggvqJ+znWADIdnwzrZGiAfi1DM82v//+e7FixeSO9sMPP9QPgV0ZU4ExRderV2/ChAm6muml7KU/7yruv//+H374Qb+8dOmS3MTnzZvX/leFtm/fLnVOnTq1d+9eCS26srTsSYp22wH12C0hIUGVx8bGqpf79++XFdefYjJyeyybvmk2jbttU5WPGjWqZMmSMTEx8lKFJat2rAblcLYj2UZWOnbs+OKLLxr30tyeK6txWfXh6tWrTZs2lWB29913jxkzRhXadMzhfM8MGzZMrevQZbOLCpCq/PPPP2/YsKFa19yeNFMdh8U5sRqvZkzR6iS4/ak20wV1pDUi1zOvyq0GYrNJs2rWaoyeX1ObsTiy4IL6Cfs5FgCyHd9Ma6RoAH4tw7NNoUKF5Hb2tttue/C6Rx991FTHcWMqMKboZ5999t///rf6IqXrS9lL7u9VzJBYmD9/fpVUd+/erSr88ccfuXPndv0T03IIXfjbb79Jir5w4cKBAwfkuOpRlRy9VKlSnqRo1w44nJ9olZF2795dViQktG/f/uGHH1b7NmvWrF27duoHkCVpuH7A1e2xbPpmZNW42zZVeZkyZVTYcxjCktt2bAalg8rp06fLlSs3efJkVW7k9lzZjMttH/r161ejRg0pXLNmTXBw8ObNmx22HVuxYkW+fPn013R16LLZRY/l8uXL3bp1a9SokSrXrE6aidtzYjNexZiiRYsWLSSBnzt3zuHs88qVK686v89vuqBqq82IXM+8KrcaiM0mzapZmzF6eE1txpIVF9RP2M+xAJDt+GZaI0UD8GsZnm0kP+e4UYkSJUx1HDemAmOKlhhctWpVuW9u3Lix60vZq2fPnuXLl69UqVJQUND48eNVnWLFiqlf5ZWVsWPH/vcw1+3bt6948eJy7y6tSX/0p8Q/+OCDAgUKVKtWTRp8//33PUnRrh1Qdu7cWbNmzTvuuEPal/v7PXv2qPKDBw82b968YMGCVapUke4tXbpU76JYHcuqb0ZWjVu1KeXSQ/0Rdx2WrNqxGpQOKmLVqlVFixZ1/SVkq3NlNS7XPixfvrxQoULSB1UhJCTkvvvuU/83xG3H5s+fn8upyHW5c+eWY/3yyy9Wuzic/ZTuSWUZhSSxLVu2qHLN6qSZWJ0Tq/EqphQtObNNmzZyEmSk0kLt2rXVdyJMF1SxGZHbM28zEJtNmlWzDusxen5N3Y4liy6o1104nLh3XPilE+5/19CKb36GBwB8xjfTGikagF/zz9lGZYnk5GS5gTb+FvfVq1clsezevVv/pWVXkkbi4uL27t1r+qr2sWPHZEf1xC9NVh3QJAWZ/h61curUqV27dhn/1K0nPOxbxhp3ZdWO1aDs2Zwrm3FZ9cEtU8dmz57dtWtXw/ZrOnXqpP4PgpKxsWSSzXjdklQZGxtr9YVzE9cR2Zz5zLBv1maMnl/T7HJBXR2L2DS3xOPrXv0scfW1j0sAALIIKRqAX/PP2cbtEzlfuukdyEZ8f65WrFgxePBgU+HAgQMjIiJMhYEti858FjVrI3td0D1jZs/K2yg0V8PF/2q/e/iM9D6aBgB4ghQNwK/552zTu3fvVatWmUt96KZ3IBvhXN0sWXTms6jZQLLrm6mhOesvKNtmWcOuYUVa8GgaALyOFA3ArzHbAEB6qSAtM2RYoWbLG7+5sGJbHk0DgBeRogH4tTRnGxYWFhaWNJf5d7eRf8OKPnp4yVrXrabFPNUCQPbBr4sBALMNAKTbsYhNc4Ie0ak4NM9D4SVbbvvsR/UsOs151VwEANmHbyYxUjQAv8ZsAwDp8t8InbNBaN5GK5q9fSzyT2OFNOdVcxEAZB++mcRI0QD8GrMNAHhOIvSsvI1kbjQ+fDZJc14NCQkZP3786tWrzdsAwO/ZT3HeQooG4NeYbQDAQxKhw4o0d334bMK8CiCA2U9x3kKKBuDXmG0AwBMXDifuHRfu9uGzCfMqgADGr4sBALMNAHgZ8yoAZBIpGoBfY7YBAO9iXgWATCJFA/BrzDYA4F3MqwCQSaRoAH6N2QYAvIt5FQAyiRQNwK8x2wCAdzGvAghg/LoYADDbAICXMa8CCGD2U5y3kKIB+DVmGwDwLuZVAAHMforzFlI0AL/GbAMA3sW8CiCA2U9x3kKKBuDXmG0AwLuYVwEEMPspzltI0QD8GrMNAHhXxubVNWvWDBw4sFu3bl26dOnXr19MTIxxq9G8efPee++9zp07S7Vff/1Vl1+5cmXatGndu3eXFoYPH37q1CnDTo7p06cvXbrUWHKruXr16uDBg0+ePGneACA9+HUxAGC2AQAvy9i82qpVqxwGOXPmnDVrlrGC8s4775QuXbp///4jR47s3bt3lSpVVPnp06fr169fuXLlkJCQESNGPPLII2XKlNmxY4feUdqX7K1f3oIuXrwoJ/avv/4ybwDgf0jRAPwasw0AeFfG5tV58+Zt3br17Nmz27Ztu/vuuyXvPfXUU8YK4vz587ly5Vq+fLkuSUlJUStdu3aVCH3mzBn1MjU1tW3btjVq1JAVVeJJij516tT69esjIiKOHDmiC/fv3y8lEsj1scTRo0f/vpFkVL1J+nn8+PFVq1bJvnoXcenSpZiYmM2bN1++fNlYLi3HxcXJUaQdY7miGtQvpW/6WA6L7pkcOHBg48aN0ohK0Vu2bJHDGSu47ZjVQKT88OHD+qUcV7qtH3HL1gsXLqj15ORk2ST/6k1uG3RYd0B2P3TokL6sitsh25wlmy5dvXp106ZN69atkzeeKnHL9QJZvQFsjmXVjq5/7tw5Gayu7HaYRjbn02pfUwfk0MYjyhCkXO/i9qI4nP00Dtx42t3uYnUdYY8UDcCvMdsAgHdlfl5t1KiR5L3XX3/dVC5RTcoXLFhgKpfb+nz58k2YMMFYuGvXLqksgUG99CRFlytXrl69eg0bNsyfP//XX38tJZ07d65QoUKLFi3uueeeunXrnjhxQtWsVatW2bJlq18nRw8PD9ebOnbsKPWbNGlSoEAB1Y6Ijo6W9mWr1L/33nu3bt2qynfv3l27du3y5cs3b968dOnS8+bNU+Wa7DJ16lT9UvbVx7LqntGcOXOCg4OlM08++aSckMcff1zWpWT06NGqglXHrAYi5Tlz5pRu6/al2U6dOumtM2bMUOtvvvmmbNIX2qpBmw6okyy9lfX4+HiH9ZBtzpJVl+QdUrly5apVq0p/SpYsuWTJEr27kdsLZPUGsDqWTTuqfkJCQqVKlUJCQlRlq2EaWZ1Pq31dO3Dq1CmpM3z4cFXh6aefbtu2rVq3uihi1KhRQUFBauDyX8rEiRPtd3F7HZEmUjQAv8ZsAwDeleF5NTQ0VD1AVmFPcoWpgnjttdckscjt/ldffbVlyxZVGBUVJbts27btxrqOwoUL64TgSYq+evWqWgkLC7vzzjtlRT8zTElJadeuXd++fdVL+8wmL9Wz2cjIyLx58+7du1darlat2scff6zq9OjR44EHHkh1ktzetWtX9QBQqp0+ffp6q//H5lhW3dOuXLkiwUblNDnhcpZU5omIiChYsKB00qpjDouBqHLpc+/evdUuTZs2rV+/vmuKlotSqlSpYsWKGVO0a4P2HVBNySiaNWs2YMAAh/WQbc6S2y7JIRo2bNi/f39VZ/78+bLJ+FhVsbpAVodzeyz7dqT+4cOHq1SpMmjQIN2g1TCN3J5Ph8W+Vh3YsGGDhFvp7dChQyVRq18TsLkoQv7jlcuh1h988EH1jrLZxe11RJpI0QD8GrMNAHhXhufVb7755vbbb8+VK5eEPUkgK1euNFVQJPBIGLjvvvuk2vPPPy+37xIhZP3gwYOmmnffffeXX36p1l1TdHJycuJ1OiFER0cvXLiwdevWKiVK+fLly6W3gwcPfuaZZ6QRVc0qRKlNn3/+ud4kMWP06NHqwfixY8dUoaQd1eE9e/bIivED0q6kQclX0deVLVtWH8uqe9r27dvlfEp6cbh8L7p06dKLFy+26pjDYiCqfMyYMXfdddfZs2e3bt0qLz/44ANTipaoVrdu3fHjx0s1Y4p2bdC+AyEhITLkefPmlS9fftGiRQ7rIducJbdd2rdvnxxI3jkx1xUpUmT9+vVqF83qAlm9Adwey2HbzogRI6pWrdqtWzdjudUwjdyeT4fFvlYdEMOGDZN+SpaWRK1KbC6KGDJkiO6PTtE2u7i9jtkavy4GAMw2AOBlmZxXT5w40bx5c7kFr1SpknnbjaSFPHny/Pzzz3FxcVJ/9erVxq2XL1/OnTv3tGnT1EvXFD1z5szg6/QT4L59+7Zs2bJixYrq6dnTTz9dp06dgQMHjhw5skOHDg0aNFDVrEKU2vTTTz/pTW3atOnXr19ERIR0VReqQCuhRVKcsdwtabBmzZqtrgsKCtLHsuqetmrVqsKFC6t1U4quVq3apEmTrDrmsBiIKpexv/POO5Kl33zzzR9//NE1RY8dO/ahhx6SOGdK0a4N2ndAyJDr168vw1SfNbAass1ZctslOfO5cuXS9ZW1a9de78j/sbpAVm8At8dy2LaTL1++1q1bS03jz6dbDdPI7fl0WOxr1QFx6NAh6UOTJk10ic1FEb169dLfttAp2mYXt9cxW7Of4ryFFA3ArzHbAIB3ZWBevXLlivHniPr06SO34FY3/UaSXtTjOMm9b7/9tnHT5MmTJRvoh2OtXFK0je3bt+fNmzcmJkaClv5JpP79+3uYovXnhMX999//ww8/qCeB+jPqsbGx6uX+/ftlxfTTUCZWx9q7d69V97SdO3fmzJlT/cCVKUXffvvtv/76q1XHHBYDUeXSH2m5cuXKZcuWvXDhgilFjxo1qmTJkupvlZlStGuD9h3Q3zGWq9ywYUObIVudJbXJtUvqzBt/W8stqwtkdTi3x3LYtiOhVFY6duz44osvqkKbYRq5PZ9W+1p14OrVq02bNpWwfffdd48ZM0YV2lwUUa9evWHDhql1naJtdnG9jmo9+7Kf4ryFFA3ArzHbAIB3ZWBejY+Pv+OOOySJ9evXr3PnzpJ+czi/Gm3Y75rjx48PGTLkn3/+US8XLFiQO3du9VegZ8+eLXtNmTJFfTZ73bp1pUuXNn4DU1J09+7d9Ue4hf4WtCIhU/9Q82+//SYpevfu3Tmuf91awmepUqU8zGySnVQ8k8L8+fNLlpBeSd6QDsiKHLd9+/YPP/ywqt+sWbN27dqpH2qW8OP6mVurYx04cMCqe5ocq2LFit9//72sz5o1S+oPHTrU4exY0aJFk5KSbDrmdiCqXPXn008/HTdunKyYUnSZMmVUMnS4pGjXBu07oNLX5cuXu3Xr1qhRI5shW50ltcltl1q0aCHB9dy5cw7np6BXrlxpeksobi+Q1eGsjuWwbkeN8fTp0+XKlZs8ebLDsyvrsDifNvu67YD8F1ejRg0pXLNmTXBw8ObNmx3Os2F1UVasWCH/oemvXusUbbOL63VU5dmX/RTnLaRoAH6N2QYAvCsD86oE4/Lly+e47rbbbnvttdd0WtZOnTolt+Z58uQpWbJk8eLFCxcu/MUXX+it06dPL1u2bLFixSTG5MyZ8+uvv1aJWml149+jzuHya2T79u2TNiVRVK1atUSJEiobSD4sUKBAtWrVKlWq9P7773uY2Xr27CnDkV2CgoLGjx+vynfu3FmzZs077rhDGpe8sWfPHlV+8ODB5s2bFyxYsEqVKtJ59T8FjGyOZdU9IwmHRYoUqVy5cocOHWTUEm9kXToWGhqqKlh1zGogpv44XFK0NKU/IW9K0W4btOmAVJPOS+CX665+TM5qyDZnyapLEiPbtGkjZ/6+++6TQ9SuXdv0J50UtxfI6nBWx3JYt6Of065atUq6oX7C2mqYRlbn02pf1w4sX768UKFCcv5VhZCQEDkV6v8lub0o8+fPz+VU5LrcuXPLsX755RerXRwW19EfXDicuHdc+KUTSeYNabGf4ryFFA3ArzHbAIB3ZXhePXbsmNyIHzhwwG2Y0S5cuBAXF7d//371o1lGEpslDK9evfrOO+/UPxfsOTmutLx3715jB6RXu3fvdvuU0i2Vr5KTk2UsSUnmG3RJbsY/Rq2dOnVq165drr8RnSZPunfx4sWEhAT9ie5//vlHPYA1cu2Y/UAywL5B1w5Y8WTInpPQGBsba/xOslsZvkAmnreT5jBtzqfNvp53wOFyUWbPnt21a1fD9ms6deqk/4eFw2UXP3csYtPcEo+ve/WzxNXXHsJ7iF8XAwBmGwDwMn+YV7dv3/7CCy9s3LjRvCHruT6q9ROm70WnyesD8XqDtzjfn88VK1YMHjzYVDhw4ED9V9mzo4SFq2flaxyaq8Hif7XfPXxGBh5NZxFSNAC/xmwDAN51i8+rvXv3XrVqlbnUD1y+fLl169au37u24vWBeL3BWxzn01v+nrNiVu6G80s/sbRel7AiLdL7aDqLkKIB+DVmGwDwLuZVANmLCtIyO80u8Miy+l0WVnjupj+aJkUD8GvMNgDgXWnOqywsLCx+vswr/aT8G1akxeEla123mhbzNOcNpGgAfo3ZBgC8i3kVQPZyLGJTeInHF9zZWgfjWfmb/PHiJ+cPHnV4MKeZi7yBFA3ArzHbAIB3Ma8CyEZUhJ5b/LFr+Tlng18qP7/3x/nGCmnOaeYibyBFA/BrzDYA4F3MqwCyC4nQc4IemXnjw2eTNOe0kJCQ8ePHr1692rwtE0jRAPwasw0AeBfzKoBs4drfiy7+2G91XjM9fDa5KXMaKRqAX2O2AQDvYl4F4P8uHE7cOy7ck1/hvilzGikagF9jtgEA72JeBRBIbsqcRooG4NeYbQDAu5hXAQSSmzKnkaIB+DVmGwDwLuZVAIHkpsxppGgAfo3ZBgC8i3kVQCC5KXMaKRqAX2O2AQDvYl4FEEhuypxGigbg15htAMC7mFcBBJKbMqeRogH4NWYbAPAu5lUAgeSmzGmkaAB+jdkGALyLeRVAILkpcxopGoBfY7YBAO9iXgUQSG7KnEaKBuDXmG0AwLuydF6dMGHCYKdz586Ztzkc06dPV1uHDBkyefLkEydOmGsAQDpl6ZxmhRQNwK8x2wCAd2XdvLp48eIc1x05csS82eFo1apVrVq1evbs2b1793r16hUpUmTnzp3mSgCQHlk3p9kgRQPwa8w2AOBdWTSvnjp16q677ipevLh9in7vvffUempqas2aNfv06aO3Xrp0KSYmZvPmzZcvX9aF0uz69esjIiKMDR49evTvv/8+dOjQmTNndKEqP3/+/PHjx1etWrV//37jJnkpjezYsSMlJUUXqvpq/eTJk0lJSWr97NmziYmJuprbfcXVq1c3bdq0bt06qa9KpJG/XRiHo0lTcXFx0qxUUCVqUEYXL15U5RcuXFB1kpOTpVz+tWnHYXEmje2cO3dOzp7epKX3BDpcOiCHMLYsQ5ByvYvbjjmc/TEOXF8Uh8UuVm8A3JqyaE6zR4oG4NeYbQDAu7JoXn399dfz588/YcIEz1N0rVq15FjqZXR0dLly5aSkevXq995779atW1W5FNarV69hw4bS+Ndff60KpVrZsmWlZnBwsKzHx8fr8o4dO95zzz1NmjQpUKCArt+5c+cKFSq0aNFCNtWtW1d/klzqT506Va3LjjrSf/PNN9JV+3137dpVuXLlqlWryrFKliy5ZMkSKfz000+rO8nRVQ+F1FS7aLt3765du3b58uWbN29eunTpefPmOQyDUvLlyxceHq7KZ8yYoXZ888035dzqS+O2HaszqdtJSEioVKlSSEiIKjdK7wl07cCpU6ekzvDhw1WFp59+um3btmrdqmNi1KhRQUFBauByoSdOnGi/i9UbALemLJrT7JGiAfg1ZhsA8K6smFcXLFgg6U7C57p16+xTtIQuCdK9evVq1KhRy5Ytjx075nA+1K1WrdrHH3+sqvXo0eOBBx6QmK02qcKwsLA777xTretAeOXKlWbNmg0YMECXS9Y6efKkrEdGRubNm3fv3r2yrp/TpqSktGvXrm/fvrp+mina7b7SNwn2/fv3V5vmz59fqlQp4xPUBg0a6JZNZN969ep17dpVPaGVAZ4+fdpxY2eEDMSUoqOiouQoxYoVU5fGbTs2Z1K1c/jw4SpVqgwaNEgfyChdJ9BtB2Rlw4YNEm6lt0OHDpVELblabbXqmJD3m1xHtf7ggw+qFG2zi9UbALemrJjT0kSKBuDXmG0AwLu8Pq9K6CpTpoykYklTaaboxo0bDxkyJCQkpEuXLuXLl1+9erXD+VxXdlGJWkhyk5cHDx5UL6OjoxcuXNi6devevXurEglR0oKUz5s3TxpZtGiRLv/888/VusOZx0aPHu1w5r3ly5fLoAYPHvzMM8/ohOxJina77759+6SHkjNjritSpMj69evVLg7bFL1nzx7ZV9Ksqdw+Rcu5rVu37vjx4++66y51ady2Y3MmpZ0RI0ZUrVq1W7duxl2M0nUC3XZAGTZsmPRTsrQkalVi0zEhbwl9wnWKttnF6g2AW5PX5zRPkKIB+DVmGwDwLq/Pq99//73Em1dffVV27Nq1qzNE5/jggw/++OMPU03jJ7rFJ598Ur16dVmJiIjIkyePLr948aK0oANY3759W7ZsWbFiRf3B5lpO0lr9+vXr1Kmzbds2Xf7TTz+pddGmTZt+/fo5nJ8rlmoDBw4cOXJkhw4dJOLq+mmmaLf7Sn7OlStXqxutXbtW7eKwTdGyr3Gwmn2KHjt27EMPPSRpVqdot+3YnElpJ1++fK1bt5YW1NNmV+k6gW47oBw6dEiO1aRJE11i0zHRq1ev119/Xa3rFG2zi9UbALcmr89pnvj/7N0JXBXX3T9+QUDABVERTVDUiEJVxCCIRqvSRG1FG2mtifSJ+ijRqDT+66+mxqW+VGJj2sS6PFqVWLO44AImscZUBR8SN6qIUTZBcUNFEQjKJjr/b+55PB1nOVxggAE/71deec09c+bMmTM33xefzOWCFA0ApoZqAwBgLMPr6po1a1hyVqAsqug58ukUvW7dupYtW0pPnmreuHGDtaempspfMufPn7e3t2cfD2bBkrUvX748KCiIbVM7/5Q16dOnz4YNG7Kysijx8q+hog7Wp2i9Y7Ozs2mGml/QxQhSNDtW8d1dkjBF0wq7ubklJSXRS56iNccRrCSNQ2FVslzp+PHj5UdxVVpAzQlIlk9iDx06lMJ2p06d6BazRsHESEBAwIcffsi2eYoWHKL3BoBnk+E1zRpI0QBgaqg2AADGMryuXrt27V9PrF69uolFdHT0lStXFD0pms6cObOoqKiwsPDMmTO9e/ceO3asZPnAMGWn6dOn0wZlsAkTJgwZMkSyPH7kX3998OBBStHsW6Z5iCovL582bdqgQYNYH2qnkMnCLUVQR0dHCl00DZoPe1x58eJFd3d361O04Njg4GDKouzPYtO0jxw5wn+FWxKmaDJs2LDQ0FB2LZRO2YeiBSm6Y8eOLABLshQtaY2jt5JsHLZoBQUFnTt33rp1K2uXq+oCqidAGwsXLqQ7S43ffvtt8+bNz549K+nfYnL48GEHBwf+q9c8RQsO0XsDwLPJ8JpmDaRoADA1VBsAAGPVal2t9Pei2V4bGxtKhlOmTOF/UColJcXX17d9+/Zt27al7JSZmSlZfv24TZs2FMm8vb2pnX91M4UoZ2dnFxeX1q1bU7JKTk7m7bNmzfL09OzevTt1iIqKYu1z5851cnLy8fGh9jlz5shTNBuHUERv1qwZ26b0aGdn9+abbwqOpcQYEhLSokWLnj170jT8/Pzkf4pJnKKvXr06fPhwOrZHjx6urq7ffPONJEzRtCzsi7ukp1O05jiaK8nG4c9v4+LiaM7qr7au6gKqJ3Do0KGWLVvyPwMeGRlJ68P+V4jmxPbt22drwVaeNG3alM711Vdf6R0i6b8B4NlUqzVND1I0AJgaqg0AgLFqWFfL8gqzNsYU5/znzykbiKKpIn5TNM3IyMjKytL8q8sKLIiWlpZS+uJ//JnJzc1NT0+XPy4WO3DgQFhYGNsWHEv5MDU1Ve/XjMXy8/PT0tLk3+xdPZrjqFfSGtVbQM0J6FFMbNeuXVOnTpXt/9GkSZPY/0Fgqnct8OyoYU2rHqRoADA1VBsAAGNVu65mrt9zaMibe9u+kht/WrHLJBSPc2vi2LFj8t8QfkYYuIBWOnz48LJlyxSNS5YsiY+PVzQC6Kl2TasJpGgAMDVUGwAAY1W1rt6/dOPb0Heimw3eYRO4u/lQ00ZoEhERERcXp2wFq2EBoSGqak0zBFI0AJgaqg0AgLGsr6uZ6/d82W3cDpsB1Li/x69j3UaYOUIDwLPJ+pqm3FcDSNEAYGqoNgAAxqq0rka+/YetfX+1w34QbbN//hU0BREaAMyp0ppWGz8rIkUDgKmh2gAAGKvSurrNwZKfbX98BM3+iXYYlPrBZ+eXbKJt+jd1wza2sY1tM2xLVtS02vhZESkaAEwN1QYAwFiV1tWl897dNO6taI9fxLQfubfNyzssQdrkvxENAM+sSmtabfysiBQNAKaGagMAYCzr6+qdhLPHf/unXc2HftF57M6mQQjSAGBC1tc05b4aQIoGAFNDtQEAMFZV62pZXmH6R9v39/j1TtsBu5oNRpAGAFOpak0zBFI0AJgaqg0AgLGqXVfZo2kz/71oAHgGVbum1QRSNACYGqoNAICxalhXy/IKszbGFOfcUe4AAKgPNaxp1YMUDQCmhmoDAGAs1FUAaEzqpaYhRQOAqaHaAAAYC3UVABqTeqlpSNEAYGqoNgAAxkJdBYDGpF5qGlI0AJgaqg0AgLFQVwGgMamXmoYUDQCmhmoDAGAs1FUAaEzqpaYhRQOAqaHaAAAYC3UVABqTeqlpSNEAYGqoNgAAxkJdBYDGpF5qGlI0AJgaqg0AgLFQVwGgMamXmoYUDQCmhmoDAGCs6tXVL774YtnTjh8/Lu/AxcbGvv3225MnT164cOHXX3/N2x8+fPjZZ59Nnz59ypQpH330UX5+vuwgadu2bd9884285VlTUVFBq3rv3j3lDoD6EBERkZCQUFJSEhoaev36deVuM6leTashpGgAMDVUGwAAY1Wvrk6aNKnJ0z744AN5B2bmzJkdOnRYtGjR6tWr6afwHj16sPaCgoLAwEAvL6/IyMhVq1b99Kc/7dix44ULF/iBI0eOpOzNXz6DKK7Qql68eFG5A6A+JCcn+/v7d+nSZcGCBcp9JlO9mlZDSNEAYGqoNgAAxqpeXWUpet68eTFPqPPegwcPbG1tDx06xFsePXrENqZOnUoR+ocffmAvHz9+PG7cuN69e9MGa7EmRefn5584cSI+Pv7mzZu8MTs7m1ookPNzkdu3b197GmVUvovmeffu3bi4ODqWH0LKysqSkpLOnj1bXl4ub6eRMzIy6Cw0jrydYQPylzQ3fi5JZ3oKV65c+fe//02DsBRN6YVOJ++gOTG9C6H2nJwc/pLOS9Pmj7hpb3FxMdsuLS2lXfRvvktzQEl/AnT49evX+W1lNC9ZsEqCKVVUVJw+ffr48eNFRUWsRZP6Bum9AQTn0huH979//778kazmZcpV6Vi6QYoJE7bamouguEB+X/TulOadFayGYJcJVa+m1RBSNACYGqoNAICxqldXWYpesGDB9u3bv/vuO0XOZCgJUJ8vvvhC0U4RwsHB4eOPP5Y3pqWlUWfKEuylNSm6c+fOAQEBQUFBjo6OK1eupJbJkyd37do1ODi4S5cu/fv3z8vLYz379u3r4eHR6wk6O8V+vissLIz6Dx482MnJiY1DEhMTaXzaS/1feOGFc+fOsfb09HQ/Pz9PT8/hw4d36NAhNjaWtXN0yKeffspf0rH8XHrTk9u9e3fz5s1pMj//+c9pQV555RXappa1a9eyDnoT07sQarexsaFp8/FpWLp9fC/dQbYdHh5Ou/iN1htQMAG2yDRb2r58+bKkf8mCVdKbEr1DvLy8vL29aT5ubm4HDhzgh8tp3iC9N4DeuQTjsP43btzo3r17ZGQk66x3mXJVOpb+y2JTpZXnM0+z0FwExQWeP39eEt4pzTsrWA3BLhOqXk2rIaRoADA1VBsAAGNVr64qPtFNP9knJyfLOzD/9V//RYllzJgx77//Pu9w6tQpOuT7779/uq/UqlWrjz76iG1bk6IrKirYxp49e5577jnauPbkmeGjR49CQ0Pnz5/PXoozG71kz2aPHj1qb2+flZVFI/v4+MybN4/1mTFjxosvvvjYgnL71KlT2TND6lZQUPBk1P8jOJfe9LiHDx9S7GFxhRacVmnLli20HR8f36JFC5qk3sQknQth7TTniIgIdsjQoUMDAwPVKZpuiru7u6urqzw4qQcUT4ANRVcxbNiwxYsXS/qXLFglzSnRKYKCghYtWsT67Nu3j3bJn2YzejdI73Sa5xKPQ/1zcnJ69OixdOlSPqDeZcpV79gBAwbwmQsWQXGBkmXOgjulvrOsXXM1xLtMqHo1rYaQogHA1FBtAACMVb26+t5771H7jh07Vq1a1a5dO8p7vr6+8g4c/axPaaRnz57U51e/+hX9cE8/uNP21atXFT07der05z//mW2rU3RpaemdJ/gHvxMTE7/88svRo0ezlEjthw4dotkuW7Zs7NixNAjrphei2K7ly5fzXf7+/mvXrmUPxnNzc1kjZQw24czMTNqQf0BajQakjJT4hIeHBz+X3vS48+fP29raUgqVVL8X3aFDh3/+8596E5N0LoS1r1u37vnnny8qKjp37hy9nDt3riJFU37r379/VFQUdZMHJ/WA4glERkbSJcfGxnp6eu7fv1/Sv2TBKmlO6dKlS3QieuckPeHi4nLixAl2CKd3g/TeAJrnkoTj0Bve29t72rRp8na9y5Sr3rHyFC1YBMUFSk8+3KF3p9R3lrVrroZ4lwlVr6bVEFI0AJgaqg0AgLFqXlfXr1/fxEL8hdI0gp2d3eeff56RkUGdExIS5HvLy8ubNm362WefsZfqFE2JvfkT/Anw/PnzR4wY0a1bN/agbMyYMf369VuyZMnq1asnTpxICYR10wtRbNfmzZv5rpCQkIULF8bHx9NUeSMLtCdPnqQAI2/XRAP6+vqOfMLZ2ZmfS296XFxcXKtWrdi2IkX7+Pj84x//0JuYpHMhrJ2ufebMmZSlw8PDN23apE7RdAcHDhxIcU4RnNQDiidA6JIDAwPpMtlnDfQuWbBKmlOilbe1teX9mWPHjj2ZyP/Ru0F6bwDNc0nCcRwcHEaPHk095e92vcuUq96x8hQtWATFBUqWzy8I7pT6zrJ2zdUQ7zKhmte0akCKBgBTQ7UBADBW9epqWloa346MjGQpWvPXQeUovbCHYJR733rrLfmurVu3Usbgj85GqlK0wPnz5+3t7ZOSkihj8K+2WrRokZUpmn9ElvTp02fDhg3sUeSNGzdYY2pqKnuZnZ1NG4qv2lLQO1dWVpbe9LiUlBQbGxv2vU2KFN2uXbuvv/5ab2KSzoWwdpoPjezl5eXh4VFcXKxI0WvWrHFzc6PVo5eK4KQeUDwB9v8yCN3loKAgwSXrrRLbpZ4SW/lK/8CS3g3SO53muSThOLNnz6aNsLCw8ePHs0bBZcpV71h5ihYsguICpSeP0/XulPrOsnbN1RDvMqHq1bQaQooGAFNDtQEAMFb16ir96P/KK6/Mmzfvv//7vyn90g/oI0aMkHcgd+/eXbFixa1bt9jLL774omnTpuyvQO/atYuO+uSTT9hns48fP96hQwf2m7QMpejp06fzj3AT/lvQDIVM/h3FBw8epBSdnp7e5MmvW1P4dHd3tzKzUSRgyYQaHR0dKWnQrPz9/WkCtEHnnTBhwpAhQ1j/YcOGhYaGsu8rpvCj+aFfzXNduXJFb3ocnatbt27/8z//Q9vR0dHU/69//atkmVjr1q0LCwsFE9O8ENbO5rNgwYKNGzfShiJFd+zYkaU7SRWc1AOKJ8BSdHl5+bRp0wYNGiS4ZL1VYrs0pxQcHEzh8/79+5LlU9BHjhxRvCUYzRukdzq9c0n647BrLCgo6Ny589atWyXr7qxU3WPlKVrSXwTFBbK9gjulvrOsXW81BLtMqHo1rYaQogHA1FBtAACMVb26+vOf/7xZs2ZNLOzs7KZMmaJ+EJ2fn08/uNNeNze3Nm3atGrV6r333uN7t23b5uHh4erqSj+d29jYrFy5kiVqhlI0G5xTfBvZpUuXaMzevXt7e3u3bduWfQsX5UMnJycfH5/u3bvPmTPHysw2a9YsT09POsTZ2TkqKoq1p6Sk+Pr6tm/fnganNJKZmcnar169Onz48BYtWvTo0YMmz/6ngJzgXHrTk6Nc5OLi4uXlNXHiRLpqCj+0TRPbuXMn66A3Mb0LUecrRYqmofgn5BXBSXNAwQSoG02eAj/dd/ZlcnqXLFglvSlRjg0JCaGV79mzJ53Cz89P85vhNW+Q3un0ziXpj8Oft8fFxdE02FeR612mXPWOVaRovUVQ32VJeKc076xgNQS7TKh6Na2GkKIBwNRQbQAAjFXtulpWVpadnX3x4kXaUOySKy4uzsjIoJ7sS7PkKDZTGE5ISHjuuef4lwlbj/IDjZyVlSVPU7m5uenp6ZpPKTWx+FFaWkqRo7CwULGXQov8j1Fz+fn5aWlp6u+IrpQ10yspKblx4wb/RPetW7fYs0c59cTEF1IN4gHVE9BjzSVbr6ioKDU1Vfwb+FINbpCC9ePU5DKreqyVi8Co75T4zppWcc6drI0xZXmVT7jaNa0mkKIBwNRQbQAAjGWGunr+/Plf//rX//73v5U7ap/mQzwzUPxedKUMvxDDBwSTaLh3Njf+9N42Lx8eOuP2kUTlPpl6qWlI0QBgaqg2AADGesbrakRERFxcnLLVBMrLy0ePHq3+vWs9hl+I4QOCSTToO0tBepfjEKpLe9u+kjx/neaj6XqpaUjRAGBqqDYAAMZCXQWABuTHJ9Ktg6PtB1F12mk36NDgcMWj6XqpaUjRAGBqqDYAAMZCXQWAhoUF6V2Og6lA/ZilmwbJH03XS01DigYAU0O1AQAwVqV1Ff/gH/yDf0z+DwVp+vfuVsE5B47tqKym1cbPikjRAGBqqDYAAMZCXQWAhuXWoVO7mr3E8nNM21di2o/a3+PX6R9tx7NoAABtqDYAAMZCXQWABoRF6J1Ng77oPHZXi2HHf/unOwln5R3qpaYhRQOAqaHaAAAYC3UVABoKitDR9oN22g6QP3xWqJeahhQNAKaGagMAYCzUVQBoENjfi1Y/fFaol5qGFA0ApoZqAwBgLNRVADC/4pw7WRtjNB8+K9RLTUOKBgBTQ7UBADAW6ioANCb1UtOQogHA1FBtAACMhboKAI1JvdQ0pGgAMDVUGwAAY6GuAkBjUi81DSkaAEwN1QYAwFioqwDQmNRLTUOKBgBTQ7UBADAW6ioANCb1UtOQogHA1FBtAACMhboKAI1JvdQ0pGgAMDVUGwAAY6GuAkBjUi81DSkaAEwN1QYAwFioqwDQmNRLTUOKBgBTQ7UBADBWLdXVx48fx8TE/O53v5s6deqiRYu+++47ZQ9J2rZt2zKLFStWbN26NS8vT9kDoAYiIiISEhJKSkpCQ0OvX7+u3A2NVC3VNDGkaAAwNVQbAABj1UZdLS4ufvnll5tY2NjY0L9Hjhyp7CRJ1Ni3b99Zs2ZNnz49ICDAxcUlJSVF2QmgupKTk/39/bt06bJgwQLlPmi8aqOmVQopGgBMDdUGAMBYtVFX33nnHUrOXbt2PXXqVEVFxdWrV7/++mtlJ0uKfvvtt9n248ePfX196UC+t6ysLCkp6ezZs+Xl5bwxPz//xIkT8fHxN2/e5I23b9++du3a9evXf/jhB97I2h88eHD37t24uLjs7Gz5LnpJg1y4cOHRo0e8kfVn2/fu3SssLGTbRUVFd+7c4d00jyV0padPnz5+/Dj1Zy00yDUV+eVwNFRGRgYNSx1YC7souZKSEtZeXFzM+pSWllI7/VswjqSzkvJx7t+/r/moVtBHvQiCi1WvjKS6QD43vdlq3krBagh2cdb0YRQLS+9DxUcnbty4wW9QTk4Ob6cD6RBaHPZSvBcMURs1rVJI0QBgaqg2AADGMryuUh5u27YtpejPP/88NTU1OTlZL5koUnTfvn3pXOxlYmJi586dqaVXr14vvPDCuXPnWDs1BgQEBAUFOTo6rly5kjVSNw8PD+rZvHlz2r58+TJvDwsL69Kly+DBg52cnHj/yZMnU8IPDg6mXf379+dxiPp/+umnbJsO5JH+gw8+4M/S9Y5NS0vz8vLy9vamc7m5uR04cIAaFyxY0MuCzs5mSKgnO4RLT0/38/Pz9PQcPnx4hw4dYmNjJdlFMQ4ODjExMax9+/bt7MDw8HBaZ35rNMfRW0k+DsW/7t27R0ZGsnY5vT6ai6B3sZorwwaXX+D58+cl4Ww1b6VgNQS7OGv6SFoLS+8Tmh69aVkHepPb29tTQpYsY9rY2NAhbNfu3btp2EmTJrGX4r1gCMNrmjWQogHA1FBtAACMZXhdpRDLPstNcYhtUHbav3+/sp8lRVM4oSA9e/bsQYMGjRgxIjc3V7I8uvTx8Zk3bx7rNmPGjBdffJElFtrFGvfs2fPcc8+xbZ6FHj58OGzYsMWLF/N2ijrsQd/Ro0cp52RlZdE2e5woWZ4EhoaGzp8/n/evNEVrHktzo2C/aNEitmvfvn3u7u78sTYZMGAAH1mBjg0ICJg6dSp7qEsXWFBQID09GUIXokjRp06dorO4urqyW6M5jmAl2Tg5OTk9evRYunQpP5GcXh/NReDkFytYGcUFSsL7rncr9VZDvIuzpo/mwpaWlrZr1453njlz5m9+8xu2TWNS/4iICPZy6NChgYGB8hQt2AuGMLymWQMpGgBMDdUGAMBYhtfV77//noXn559/fvPmzZQuaLtVq1Z3795V9KRo+tJLL61YsSIyMnLKlCmenp4JCQmS5bkuHcISNaG8RC+vXr3KXiYmJn755ZejR4/mUYSSCY1A7bGxsTQIT+zUvnz5crZN/P39165dK1ly0aFDh+iili1bNnbsWJ6QrUnRmsdeunSJZkjpLukJFxeXEydOsEMkYYrOzMykY+Wf8mXEKZoSXf/+/aOiomiR2a3RHEewkjTOqlWrvL29p02bJj9ETq+P5iJw8osVrIw6RYtnq3kr9VZDvIuzpo/mwpI//OEP48ePp40HDx7QRR0+fJi105jr1q2joYqKis6dO0cv586dK0/Rgr1gCMNrmjWQogHA1FBtAACMZXhdvX79OkvRFLEky6/LspfqX42Wf6KbvPvuu7169aKN+Ph4Ozs73l5SUkKHnzx5kr2cP3/+iBEjunXrxj+L29eCRgsMDOzXrx/FeN5OMZ5tk5CQkIULF9LGmDFjqNuSJUtWr149ceJESn28f6UpWvNYSom2trYjn3bs2DF2iCRM0XSs/GI5RchUpOj169cPHDiQ0iwPfprjCFaSxnFwcBg9ejSNoPd7uXp9NBeBk1+sYGUUFyhVNlvNW6m3GuJdnDV9NBdWsoT8Zs2a3b59++OPP/by8uKf7mbXNXPmTErL4eHhmzZtUqRowV4whOE1zRpI0QBgaqg2AADGqo26SmmE8g/7DHBeXh5L0cePH1d0G/l0iqZc0bJlS+nJ078bN26w9tTUVPlL5vz58/b29vn5+dKTLMTaly9fHhQUxLapnX+WmPTp02fDhg0UfijX8e8how7Wp2i9Y7Ozs2mGml/QxQhSNDtW8eVnkipkylP0mjVr3NzckpKSJMtSs1ujOY5gJWmc2bNnS5YrZc9U1TT76C0CJ79YwcqoU7R4tupbydo1V0O8i7Omj+bCMqNGjXr//ffp/UbvEN7IrislJYWitYeHR3FxsTpF6+0FQ9RGTasUUjQAmBqqDQCAsWqjrq5cuZKCx3PPPUfBeNy4cbTt7e2t/o4xiqYzZ84sKioqLCw8c+ZM7969x44dK1k+MOzv7z99+nTaqKiomDBhwpAhQyTLw0n+Jc8HDx6kFM2+YJmn6PLy8mnTpg0aNIj1oXbKRSzCUQR1dHSkSHblyhWaD3teffHiRXd3d+tTtODY4OBgypn379+XLPM/cuQI/xVuSZiiybBhw0JDQ9m1UDplHx4WpOiOHTuycCs9HfzU4+itJBuHLVpBQUHnzp23bt3K2uU0+wgWgVFcrN7KqFO0eLbqW8na9VZDsIuzpo+ktbCsfd++fe3atWvWrJn8K9z5dS1YsGDjxo20oU7RenvBELVR0yqFFA0ApoZqAwBgrNqoq5SCKIJSumhiMXjwYP6lxHIUTVkHGxsbCjNTpkzhaSQlJcXX17d9+/Zt27alZJWZmSlZfsm2TZs2FLYpk1P7li1bWGdKJs7Ozi4uLq1bt6bclZyczNtnzZrl6enZvXt36hAVFcXaKbc4OTn5+PhQ+5w5c+Qpmo1DKKLT/Nk2ZTY7O7s333xTcCwlq5CQkBYtWvTs2ZOm4efnJ/9DTeIUffXq1eHDh9OxPXr0cHV1/eabbyRVyJSnaFoW9g1k0tPBT3MczZVk4/AH+HFxcTRn/t3mnF4fvUVgFBertzLqFC0JZ6t5KwWrIdjFWdNH0llYyfJNYx4eHq+//rq8s/q6NFO05l4wRG3UtEohRQOAqaHaAAAYq4Z1tSyvMGtjTHHOf57Fcffv309NTWUfuq4eCmDyvwstWZ42Z2RkZGVlaf7VZQWWWEpLSymb8T/+zOTm5lKwlz8uFjtw4EBYWBjbFhxbVFREl6z3a8ZitFBpaWnyb/auHs1x1CtZQ4JF0FSllVHPVnAr64x6YemiWrVqdfToUVkvqH81rGnVgxQNAKaGagMAYKxq19XbhxPjRvxub9tXcuNPK3aZhPq5X7UdO3ZM/nu5UMcMvJVGof8iwsLCFM/hwQyqXdNqAikaAEwN1QYAwFhVratleYXJ76zd2+blHTaBu51/atoITSIiIuLi4pSt0ACZ8FaOGzdu6tSp6o/BQ72rak0zBFI0AJgaqg0AgLGsr6u3Dyceeil8p91Aatzb+mcxJn4KDQDPrEprWmRkZFRUFPvr9EZBigYAU0O1AQAwVqV1dem8dz9+ecrOlkN3Ng2il/TPvg6jEKEBwJwqrWn0g2J0dPSZM2eU+2oAKRoATA3VBgDAWJXW1W32g1h45v/sajY49YPPzi/ZRNv0b+qGbWxjG9vm2Rb/88knn9APipp/OKDakKIBwNRQbQAAjFVpXV06793Nr86IbvfyruY/ZT+D7nIcvLf1z/AsGgDMLCoq6m9Po5bo6Gj6KfHMmTPsz48bBSkaAEwN1QYAwFjW19U7CWf/95d/iG42ONpxSLT9IARpADCzhISEfz2NWig/p6enU4Q29k+mIUUDgKmh2gAAGKuqdbUsrzDtL5/t8wjZYRO4y3EIgjQAmBn7pHdtQ4oGAFNDtQEAMFa16+qdhLMJoe+Y+e9FAwCIS5xRkKIBwNRQbQAAjFXDulqWV5i1MaY4545yBwCACYhLnFGQogHA1FBtAACMhboKAI2YuMQZBSkaAEwN1QYAwFioqwDQiIlLnFGQogHA1FBtAACMhboKAI0Yvl0MAADVBgDAYKirAAA1hBQNAKaGagMAYCzUVQCAGkKKBgBTQ7UBADAW6ioAQA0hRQOAqaHaAAAYC3UVAKCGkKIBwNRQbQAAjIW6CgCNGL5dDAAA1QYAwGDVqKsFBQXLtDx+/Fh26FPKy8upQ3Z2tnIHCL366qs7duxQtgKA1cQlzihI0QBgaqg2AADGqkZdvXz5chMtFRUVskP/z8OHD7/44ov58+dTh9/+9rfbtm2jEK7sBDree++9hIQEZSsAWE1c4oyCFA0ApoZqAwBgrGrU1QcPHsTI9OvXjxLy8OHDZcf9n+TkZB8fn+7du8+YMYP6/OY3vwkMDGzXrt3evXt5n7KysqSkpLNnz5aXl/PG27dv01nu3r0bFxeneIJNu3JycvjLR48eXbt27d69e2xXcXExay8tLaV2+jc/Sm9AvQnQ4devX//hhx9kfX9Eh8fHx1+4cIFOzRvZ+PzlzZs3S0pKWLvelEhFRcXp06ePHz9eVFTEG+Vyc3P5sBkZGUeOHDlz5ox8nnqTp6MKCgqOHj165coV3g7wDBKXOKMgRQOAqaHaAAAYq4Z1lUKanZ0dJeQDBw4odj1+/NjLy+vVV1+lgEcpkfpQgqX2hQsXOjk5Uc6k7cTExM6dO/ft27dXr14vvPDCuXPn2LHUEhYW1qVLl8GDB1PnlStX8mFpl42NTXp6Onu5e/duGnnSpEls1/bt21l7eHg4tfNp6w0omICHhwc1Nm/enLYvX77M2idPnty1a9fg4GAaqn///nl5ebz/p59+yrYJDRUTE8Pa9aaUlpZG6+Pt7U1TcnNzUy8gGTBgwKZNmyiu/+pXv3ruuedeeeUVPz+/ESNGsL2CydO5qIUOd3R0XLt27X9GBHjGiEucUZCiAcDUUG0AAIxVw7o6Z84cSoa9e/dW7pCkCxcu0K7vvvuOtuUpuri42NbW9vPPP6+oqPDx8Zk3bx7rP2PGjBdffJH9cjXlQAqB7Anz0aNH7e3ts7KyWDfaFRAQEBERwV4OHTo0MDBQkaJPnTrl7u7u6uoqT9HqAcUTYEM9fPhw2LBhixcvZn2uXbvGNijZhoaGzp8/n72sNEUrpkRnCQoKWrRoEeu/b98+2it/ms2wFJ2cnExhnu8tLCyULM+xBZOnsM2eou/evbtly5byx+YAzxR8uxgAAKoNAIDBalJX8/PzW7RoQfF469atyn2S9O9//5t2nT17Vno6RVP8a9as2ebNm9PS0qgxNzeX9adYSy+vXr0qWXLg8uXL+VD+/v78gSrtWrdu3fPPP09jnjt3jl7OnTtXnqIpMfbv3z8qKor6yFO0ekDxBCIjIxMTE2NjYz09Pffv38/6UEw9dOgQLciyZcvGjh07cuRI1k79ly5dmviEh4eHPEWrp3Tp0iU6F+X5pCdcXFxOnDjBRuNYiqbo7uDg8N5772VkZPBd4snTDFk73SNqv379Oj8QAAyHFA0ApoZqAwBgrJrU1RUrVlBCo2Qo/6Vc7sGDBy1btqRsKT2dor/88kvapgAcHx9vZ2fH+5eUlFD7yZMnJUsOpJjNd4WEhCxcuJBts6e+M2fOpCwdHh5OIVORotevXz9w4ECKu4oUrR5QPAFCITkwMLBfv37ff/896zNmzBh6uWTJktWrV0+cOJFSLmunzr6+viOfcHZ2lqdo9ZQoP9va2vL+zLFjx/5vKk+wFE0bBw8eHDVqFA3brVu3nTt3Uot48vzBOGu/ePEi7wkAhkOKBgBTQ7UBADBWtetqWVlZx44dKaF98MEHil1cVFSUo6PjW2+9tXfvXur5l7/8hUajaP3222/T3szMTGq8ceMG65yamspfUg7kn3Ymffr02bBhA9tmETElJcXLy8vDw6O4uFieotesWePm5paUlEQvFSlaPaB4Avz3mZcvXx4UFCRZnvdS9OXfN0YDylO03ie6NaeUnZ1tzSNinqIZWnNK7/b29jQH8eSRogHqElI0AJgaqg0AgLGqXVc//vhjimetWrViv6arh+LurFmzAgICqDPl3jfeeOPIkSNs1+PHj/39/adPn04bFRUVEyZMGDJkCNtFOZACJwuZFEcpivO4yCPiggULNm7cSBvyFE3Bfvbs2aynIkWrBxRPgKXo8vLyadOmDRo0SLJ8lRpdBXsuTbnU3d3dmhStN6Xg4ODx48ffv39fsiwFLYv6T4WxFE2Rm3+b2nfffde0adOioiLx5JGiAeoSUjQAmBqqDQCAsapXVym59erVi+LZH/7wB3m7HvknuuUoY/v6+rZv375t27aUCTMzM1k75UDK3p6ent27d3d2do6KiuKHKPKq9HSKpqH436NWpGjNAQUToG4uLi6tW7emdJqcnMza6VxOTk7sz3fNmTPHmhStN6WcnJyQkJAWLVr07NmTzuLn56f+YDxL0ZScXV1d2XeG08b69evZXsHkkaIBGHy7GAAAqg0AgMHMUFcpT7I/fMWxHFhaWkpBUfys20riAdUTEMjNzU1PT1c/N66eoqKi1NRU9uXhahStt23bJlm+ku3y5ct0XvZnqOWqNHmAZ424xBkFKRoATA3VBgDAWOasq+oHzjVk+IC1LT8/f8uWLc2aNUtLS1PuAwCriUucUZCiAcDUUG0AAIxlzroaERGh/vh3TRg+YG27cOHCa6+9Fh0drdwBAFUhLnFGQYoGAFNDtQEAMBbqKgA0YuISZxSkaAAwNVQbAABjoa4CQCOGbxcDAEC1AQAwWKV1tX7/UU4IAMB8kKIBwNRQbQAAjGXmuiqeGwCASSBFA4CpodoAABjLzHVVPDcAAJNAigYAU0O1AQAwlpnrqnhuAAAmgRQNAKaGagMAYCwz11Xx3AAAKoVvFwMAQLUBADCYmeuqeG4AAJWqmzKCFA0ApoZqAwBgLDPXVfHcAAAqVTdlBCkaAEwN1QYAwFhmrqviuQEAVKpuyghSNACYGqoNAICxalhXy/IKszbGFOfcUe4wgnhuAACVqpsyghQNAKaGagMAYKxq19U7CWf/d8zcvW1fyY0/rdhlFPHcAAAqhW8XAwBAtQEAMFhV62pZXmFK5D9iO/x8h03gLqchtRehpcrmBgBgEkjRAGBqqDYAAMayvq7eSTgbP/J30Q4v7Ww6cJfT4Jg2L9dqhJYqmxsAgEkgRQOAqaHaAAAYq9K6unTeu5tD3tzpGhzdbDC9pH/2tBxaBxFaqmxuAAAmgRQNAKaGagMAYKxK62r9/qOcEACA+SBFA4CpodoAABir0rr647Pon0/b2Xr4TvtBLNnGuAbXzbNoAIAawreLAQCg2gAAGMz6unrnf5OOBM/6MUvbBu1u/lMEaQAwP3GJMwpSNACYGqoNAICxqlpXy/IKLyzdHNN+ZB18RzcAQA2JS5xRkKIBwNRQbQAAjFXtunrnf5OO/uL/q9W/Fw0AUEPiEmcUpGgAMDVUGwAAY9WwrpblFWZtjCnOuaPcAQBgAuISZxSkaAAwNVQbAABjoa4CQCOGbxcDAEC1AQAwGOoqAEANIUUDgKmh2gAAGAt1FQCghpCiAcDUUG0AAIyFugoAUENI0QBgaqg2AADGQl0FAKghpGgAMDVUGwAAY6GuAkAjhm8XAwBAtQEAMBjqKgA0YuISZxSkaAAwNVQbAABjoa4CQCMmLnFGQYoGAFNDtQEAMBbqKgA0YuISZxSkaAAwtVqqNo8fP/7666//3//7f5MmTfr973//1VdfUYuykyRt27ZtmcWKFSu2bt2al5en7PEMePXVV3fs2KFsBXg2REREJCQklJSUhIaGXr9+Xbm7YaqlugoAYAbiEmcUpGgAMLVaqjbz5s1rYtGmTRu28bvf/U7ZSZJGjhzZt2/fWbNmTZ8+PSAgwMXFJSUlRdmpsXvvvfcoRShbAZ4NycnJ/v7+Xbp0WbBggXJfg1VLdRUAwAzw7WIAALVVbVh4XrJkCW2///77tN28eXP142hK0W+//Tbbpr2+vr7vvPMO31tWVpaUlHT27Nny8nLemJ+ff+LEifj4+Js3b/LG27dvX7t27fr16z/88IO88cGDB3fv3o2Li8vOzubthF7SCBcuXHj06BFvZP3Z9r179woLC9l2UVHRnTt3eDdJ53BSUVFx+vTp48eP0yGshca5piK/HJKbm8vPS9iWktEAAIAASURBVDIyMo4cOXLmzBl5N82lYBMuKCg4evTolStXeLsCTZLGpAnTqXmj5oAK6gPZOsuVlJTwXcXFxWy7tLSUdtG/9cZR9L9//z5/CKk5Meqck5PDX9KANBStLW/hBDdd0r9xihnSxOQPRekaqZ0dojk9yXIJ8mWR31DNQzTfsQqCJZXTW0n1xYrfjep3r6S647yz3kVpLr7gQgS7GrRaqqsAAM8OpGgAMLVaqjbdu3en5Lx69Wra3rhxI217eHgoO6lSdN++fel07GViYmLnzp2ppVevXi+88MK5c+dYOzUGBAQEBQU5OjquXLmSNVI3Gp96Ulan7cuXL7PGsLCwLl26DB482MnJiXeePHly165dg4ODaVf//v35x8ip/6effsq26UCe5z/44AOaJ9uW9A9PS0vz8vLy9vam07m5uR04cIAaFyxY0MuCJsBmSKgnH40MGDBg06Yf/7cupZ1f/epXzz333CuvvOLn5zdixAjWQW8pqCU8PJxaaARajbVr1/IxufT0dBrK09Nz+PDhHTp0iI2NlfQHlNM8kK8z4+DgEBMTw/rTru3bt7NtmhXdcfae0RxH3v/GjRv0bomMjJT0J0YtNjY2NBR7uXv3bhp/0qRJ7KWc3k2X9G+ceob5+fnU56OPPmIdxowZM27cOEl/emTNmjXOzs5sWehebNmyhbXrHaL5jlXQW1IFzZXUvFjBu1Hz3csGl9/x8+fPS8KL0lx8wYUIdjVotVRXAQCeHUjRAGBqtVRtvvvuu549e9rb27/44ouUtehH7fj4eGUnS4qmAENBevbs2YMGDaLcmJubK1kei/n4+MybN491mzFjBo3DHmXTLta4Z88eCpxsm/8s/vDhw2HDhi1evJg10nnZE8ujR4/SZLKysmj72pMnopRaQ0ND58+fzwexJkVrHk5zo2C/aNEitmvfvn3u7u7yB5IUdPngCjxFJycnU6biR7GH4YKloAnT6rGHmRQsW7ZsqXjESt0CAgKmTp3K2mmogoICwYDiA6Wnl4jQ8qpT9KlTp+jaXV1d6T2jNw7vn5OT06NHj6VLl7K9ehOjzjROREQE2zV06NDAwEC9FK150yX9G6c5w5MnT9K9oGv561//SrGQcrVgeoT+G6E3Htv29/dnKVpwiOY7VkFzSZWdtFZS0rlYTvFuFLx7FXdcquyiNBdfcCGCXQ1aLdVVAIBnB1I0AJhaLVWbbdu2ubm5NWvWrF+/fo6Ojm3atPnkk0+UnSwp+qWXXlqxYkVkZOSUKVM8PT3ZbwinpaU1adKEJWpCP4vTy6tXr7KXiYmJX3755ejRo3msop/FaQRqj42NpUH279/PGpcvX846SJZsw57W0k/8hw4dootatmzZ2LFjeUK2MkVrHn7p0iWaISWHpCdcXFxOnDjBj7ImRVPycXBweO+99zIyMvhewVLQhGkarJ1iHrUrvpwpMzOTGuWfhZaEA3KaB0qqTKVO0ZTZ+vfvHxUV9fzzz9N7Rm8c1n/VqlXe3t7Tpk1jLYKJUed169bRmEVFRefOnaOXc+fO1UvRmjdd0rlxghl++OGHdEbK0pSoJeH0CL2H+ZuEp2jBIZrvWAXNJVV20lpJSediOcW7UfDuVdxxqbKL0lx8wYUIdjVotVRXAQCeHUjRAGBqtVFtKNFRcqafrb/44gt6ScfSNuVD/pM3J/9EN3n33Xd79epFG/Hx8XZ2dry9pKSERmBhhsyfP3/EiBHdunXjnwXta0GjBQYGUm7//vvvWePmzZv5ICEhIQsXLpQsH9ClPkuWLFm9evXEiRMpUfBBrEnRmodTArG1tR35tGPHjvGjrEnR5ODBg6NGjXJ2dqar27lzpyRcCvmEWfvFixd5T8kyK/mxjGBATvNASZWp1Cl6/fr1AwcOpAjH4pDeOJKlP70lRo8eTT3Z00vBxNh5Z86cSVk6PDyclkuQojVvuqR/4/RmeP36dZrh4MGD2UvB9Mjs2bPfeOMNts1TtOAQzXesguaSKjtpraSkc7Gc4t0oePcq7rhU2UVpLr7gQgS7GrTaqKsAACaBbxcDAKiVasOeVpELFy5IT55WkeTkZEXPkU+naMpILVu2lJ48Ibxx4wZrT01Nlb9kzp8/b29vT4ldevKzOGtfvnx5UFAQa+QfUiV9+vTZsGEDTYYCA/9KJ+pQpRStd3h2dnYT1aNgOStTNFNWVkbhh66OTiRYCvmENVM0m5XiS7YEA3KaB0qqTKVI0WvWrHFzc0tKSqKXLA7pjSNZ+lPylCxLPX78eEk4MXbelJQULy8vDw+P4uJiQYpW33SpshunnmFFRcXQoUMpf3bq1InelpJweiQgIODDDz9k2zxFCw7RfMcqaC6pspPWSupdLKd4NwreveoULb4ozcUXXIhgV4NWG3UVAMAkxCXOKEjRAGBqtVFtHj582L59e/rZevjw4Rs3bhwxYkQTy5+8Un/7LqXTmTNnFhUVFRYWnjlzpnfv3mPHjpUsn0elKDJ9+nTaoDwzYcKEIUOGSJasyL9A+ODBg5Qz2Rf88kxSXl4+bdq0QYMGsUb6oZxlAwp7jo6O9LP+lStXaDLs0R9lTnd39yqlaMHhwcHBlGHu378vWeZ/5MgR/ivckiq3yPEUTWGGf4HWd99917RpU7pYvaWQrEjRZNiwYaGhoWyVKFbl5OQIBpRTHyipMpUiRXfs2JHFOUkWhzTHYf3ZLSsoKOjcufPWrVsFE+PnXbBgAb2jaEOQotU3XRLeOM0ZLly4kN6N1Pjtt982b9787NmzgukdPnzYwcGB/yoyT9GCQzTfsQp6S6qgXknBxTLqd6Peu1edosUXpbn4ggsR7GrQaqOuAgCYhLjEGQUpGgBMrYbVpiyvMGtjTHHOU38ISrKEwD59+jR54ic/+Ynet4uxDjY2NvTD9JQpU/jflEpJSfH19aU03rZtW/qpPTMzU7L8AielcYo33t7e1M6/CZl+Fnd2dnZxcWndujX9TM8eeve1/CVqT0/P7t27096oqCjWmQKYk5OTj48Ptc+ZM0eeotkghPJ5s2bN2DaFATs7uzfffFN8OKWvkJCQFi1a9OzZk6bh5+cn/yNA6tzC8RRNi+bq6sq+Epk21q9fzzpoLoVkXYq+evXq8OHDaVY9evSgMb/55htJf0A5zQPFKZoG5F8exuOQ5jisP38YGxcXRyt2+fJlvYmps5wgRWvedEn/xqlneOjQoZYtW/I/XR4ZGUn3tKioSHN6+/bts7Vg7xbStGlTOtFXX30l6S+15jtWQW9JFTRXUu9iGfW7Ue/dq155SXhRmosvuBDBrgathnUVAMDMxCXOKEjRAGBq1a42dxLOHv/tn/a4vpwbf1qxi7t7925qaqrijy1XCf1wL/+70JLl2V1GRkZWVpbgDx0zLACUlpbSD/38jz8zubm56enp8mfFYgcOHAgLC+MvBYdT1qJL1vxTxnoosWzbto1t05gUgWhw/neYOfVSWC8/Pz8tLU3+neGSdQNqHlgNVRrHmonpEdx0SXjjrJ+hYnq7du2aOnWqbP+PKOHz/78gqQ6pG4KL1VOld6/6osSL/0ypdl0FADA/cYkzClI0AJhaVatNWV5h+kfb9/ccv9N2wE67gTf2HX36CBPRfIxWPceOHZP/wqdRKLlt2bKlWbNmir8gDdVm4E230uHDh5ctW6ZoXLJkieaHLxq3ul9806pqXQUAaEDw7WIAAFWoNuzh8+4Ww77s8mq03cBoc0doEhERERcXp2w1kwsXLrz22mvR0dHKHVBd5r/pjRgWn7O+rir3AQCABVI0AJhapdVm6bx3N417a5fHL2LdR8W2H0Ut9I/5IzQAQH2ptK5GRkZGRUUlJCQo9wEAgAVSNACYWqXV5nPHl35Mzk2DWH6mf3baDPh+yabzSzbRNvtUD7axjW1sY1u+Lf6HfoSLjo4+c+aMBAAAWpCiAcDUKq02S+e9u/mXM6LbvbzL+af8R8DdTkNy4/6t7A0AADKRkZF/ehq10M9vn3zyCf0Ix/+yHQAAKCBFA4CpWV9t7iSc/d+xc6ObDaZ/EKQBACoVFRW1MnTa32SoJTo6mirqmTNn2N/WBgBoWNjnbmobUjQAmFpVq01ZXmHaB5/te370DpvAaPtBCNIAAHoSEhL+Zv/iv2SohfJzeno6Rehn/O+BAUADJf7R0ShI0QBgatWuNuzR9J7WPxP8vWgAgGecuMYCADQ4dVPWkKIBwNRqWG3K8gqzNsYU59xR7gAAgMpqLABAg1M3ZQ0pGgBMDdUGAKD2iGssAECDUzdlDSkaAEwN1QYAoPbUzdfwAADUmbopa0jRAGBqqDYAAAAAYCpI0QBgaqg2AAAAAGAqSNEAYGqoNgAAAABgKkjRAGBqqDYAAAAAYCpI0QBgaqg2AAC1p26+hgcAoM7UTVlDigYAU0O1AQCoPeIaCwDQ4NRNWUOKViorK1M2AUD9acTVBgCg3olrLABAg1M3Zc10KfrEiRMLFy6cOnXqn//859zcXOXuJx4+fPjZZ59Nnz59ypQpH330UX5+vrJHVcTExLz88svu7u729vazZ89W7gaA+lN71QYAAMQ1FgCgwambsmauFL1y5UobG5smTZo4OzvTv9u3b5+RkaHsJEkFBQWBgYFeXl6RkZGrVq366U9/2rFjxwsXLij7WWft2rUdOnTYvn377du3Hz16pNwNAPWqlqoNAABIldVYAIAGp27KmolS9M2bN+3s7Cg8x8TEUJoNDQ2l7V/84hfKfpI0depUitA//PADe/n48eNx48b17t2bNu7du3dNpby8nPUsKytLSko6e/YsbykqKmrevHliYuJpi9LSUtZOKFQ/ePDg7t27cXFx2dnZvJ3Qy/j4eMrtPHVXVFTQifinwe/cuUMjs+3CwsJbt26xbUnrWIZGoAkcP36cHyi+FoYmWVxczLbv379//fp1vkt9IvGA6glIlvE1O6tXknXWXDH5JGmFaRy2znrtClZ2o8vMyMigS6YOvFExf1JSUsLaBWNqDqV3yXrrz+kti6R1jxjFBOgU8pHpEqidH6I5MckyH/mF0xz4Ls1D2FrRifh/WSZRG9UGAACYuvkaHgCAOlM3Zc1EKfrgwYNNLCh2SpZHxLRta2srD3WSJRs4ODh8/PHH8sa0tDTqTKljwYIFvSycnJw8PDzYNu2lPhSVO3fu3LdvX2p54YUXzp07R40JCQnUs1u3bj/5yU/8/PzokJMnT7IxqWdYWFiXLl0GDx5MfVauXMnaJ0+e3LVr1+DgYNrVv3//vLw8yZLkp0yZMmrUKBZLRo4c+dFHH9HG5cuXO3XqtH37dsGxkmX+Xl5e3t7edC43N7cDBw5Qo+BaOJokG/zGjRvdu3ePjIxk7ZonEgyoOQE2Pu9Jzp8/L+msJOusuWJ8kiQ8PJzuFHtj6LUrWNMtPT2dbp+np+fw4cM7dOgQGxvL2hXzp3dOTEwMa9cbU3MowSVrrr+c3rJo3iNJawL5+fnUh72jyJgxY8aNG8e29SZG1qxZ4+zszC7c0dFxy5Yt4kP4WjVv3py26a37ZKR6VhvVBgAAAACg2kyUos+cOcNS9Lfffis9yTZEHgzIqVOnqPH777+XN5JWrVrxmEEGDBjw6aef8pcVFRU+Pj7z5s1jL2fMmPHiiy9S9KUZ0mhvvvkma//jH/9IYfLhw4eSJVRQxrh37x5tHz161N7ePisri7b580n2wHz+/PnsJZ2CXk6YMIHaWYq+desWjfb3v/+dddA7lqYRFBS0aNEitmvfvn3u7u7yJ4eKa5FjKS4nJ6dHjx5Lly7l7Zon4hQDCiZA4ytOrbeSrLPmivGoSfeORnZ1dVWkaEW7QqXd6OwBAQFTp05lj2dphgUFBfxY+fxpeooUrRhTcyjxJWuuv5zesmjeI80J0MbJkycp3NJs//rXv1KiZl8EIJgYof8Ahw0bxrb9/f1ZihYcwteE3v904OLFi1mfelcb1QYAAAAAoNpMlKLpR3n62Z0yLaUF+kGfRWhC6VrejXIINV69elXeSDp16iR/EqgIiuxhNf+6MooxbBA2Gv/t67y8PJ7bKVQsX76cj0A5ZO3atZJlnocOHaKrW7Zs2dixYykw8z6lpaU9e/acPn06NdIK0AgRERF8r6Rz7KVLl+ikNJOkJ1xcXE6cOMGPEqfoVatWeXt7T5s2Td6ueSJOMaBgAuoUrbeSrLPmirF4RrGwf//+UVFRzz//vDxFq9sVKu2WmZlJc6AoK29kxClaPabmUOJL1lx/Ob1l0bxHmhNgPvzwQ5on/dfBPy4hmBhZsWIFv+88RQsOoXnSf0GJiYmxsbGenp779+9nfepdbVQbAAAAAIBqM1GKliyf1l68eDFl6REjRsydO7eJxe3bt+V9KPFSY0JCgryxvLy8adOm//jHP3iLIijGx8fb2dnxlyUlJTQIpZHTp0/TBp2X73J0dDx48KBkCRWbN2/m7SEhIQsXLpQsn6ft16/fkiVLVq9ePXHiRDoR70Ozatu2bWBgoIMFZRhKI/LfMtU8luKrra3tyKcdO3aMHyVO0XSi0aNHU75iTzsZzRNxigEFE1CnaL2VlPRXjEXW9evXDxw4kKKjIkWr2xUq7Ubzl09JTpyi1WNqDiW+ZM31l9NbFs17pDkB5vr163SuwYMH8xbBxMjs2bPfeOMNts1TtOCQvhZ06+kNTBNTf9yjvtRStQEAAAAAqB5zpWi5P/7xj/TzPf00r9whSd26dXvrrbfkLVu3bqVswD8iK6mCInvEd+PGDfYyNTWVvSwoKKAN/v3eN2/e5C8pUfAPOZM+ffps2LAhKyuLAicPxtSBB9Ti4mIvLy86KaWprl27vvbaa9T4+uuvT58+nXXQOzY7O5tOqvnFVIw4RbM/zRUWFjZ+/HjWqHciTjGgYALqFK23kqyzesVY+5o1a9zc3JKSkuilPEVrtitU2o3NX/HFXYwgRWuOqTmU+JLV66+guSx690hzApLlk9hDhw6lsN2pU6d169axRsHESEBAwIcffsi2eYoWHNL3ySe6yfLly4OCgth2vauDagMA8Myqm6/hAQCoM3VT1syVoikbz5kz54MPPqDwaWNjQzGDPRZW2LVrl4ODwyeffMJ+n/P48eMdOnSYO3euvI8iKFJPChIUaGmDAsmECROGDBnCdo0cOZJOR420Kzw8nLIE+5VU2qBwxbIlRS9HR0cKG1euXGny5LeyL1686O7uzgPq22+/PXbsWD4m+yXtu3fv0tzYOgiODQ4OpgzGHonTNI4cOULzYbsk1bXI8eRTUFDQuXPnrVu3SsITMeoB9SagTtGCldRcMdbesWNH/oe45Slas13Bmm7Dhg0LDQ1lX5dN0ZR/IlqQovXGVA8lvmT1+itoLovgHqknQBsLFy7s3bs3NX777bfNmzc/e/asJLwXhw8fpv9G+P9X4ilacAi/lvLy8mnTpg0aNIi117taqjYAACBVVmMBABqcuilr9ZOiy/IKszbGFOfcUbRPnjy5yRPdunXbt2+fogO3bds2Dw8PV1dXykItWrRYvHix4m8FqYNiSkqKr69v+/bt27ZtS0EiMzOTtWdnZwcGBlIj7er15GuoJUuomDVrlqenZ/fu3Z2dnaOiolg7xXUnJycfHx9qp8zPwk9CQkK7du1u3rzJ+vAUTfbu3cs/1615LKGkFBISQhfSs2fP1q1b+/n5yf8EkfpaOPnzw7i4ODqWfbWy3okY9YB6E1CnaEl/JfVWjNqpM//GL3mK1mxXsKbb1atXhw8fTvPv0aMHvSu++eYb1i5I0Xpjag4luGTN9ZfTWxa9e6SewKFDh1q2bElzYB0iIyPpNrHvrtecGP2HY2vh8kTTpk3pXF999ZXeIZJlnjQ96kxXQdE6OTmZtde7GlYbAAAQENdYAIAGp27KWl2n6DsJZ4//9k9727ySG39asYu5e/fuhQsXrly5otyh8vjx40uXLqWlpfG/0mwNios868rdunWLf8yVYQGstLSUUgf741tcbm5uenq6/HGx9QTHUi5KTU3V+/XaqhKcSE+VJqBeScGK1Y38/Hx6P8i/3rzaNIdSX7I1BMsiuEeaE9CjmNiuXbumTp0q2/+jSZMmsf+DwFTvWupFtasNAABUSlxjAQAanLopa3WUosvyCtM/2v7Pn0zYaTsg2m5QxuqdTx9hRpqPYUEAK6ap7pfl8OHDy5YtUzQuWbIkPj5e0dggVLXaAACA9cQ1FgCgwambslbrKZo9fN7jEvxNwORY91E7bQLTPvhMeYApRURExMXFKVtBH1ZME5alhqyvNsp9AABQmbr5Gh4AgDpTN2WttlL00nnvbhr31i7PkC+7/JLy8y7HIdTYgCI0AJhEpdUmMjIyKipK8dfvAAAAAABqSW2l6M8dX6J/R7sG07/5PyenLj+/ZBNtsP9DgG1sYxvblW7vkNUQzX/+9re/RUdHnzlzRgIAAAAAqH21laKXznt385jp0W1+Fu04mP+wu8tx8O0jicreAABWiIyM/NPTqIUi9CeffPKvf/0rPT1deQAAAAAAQC2orRQt/73ooz+fE+3w0k67QQjSAFBtUVFRf3satURHR1OdOXPmDPuL3AAAAAAAta3WUzRrKcsrTP3z1tiOP99hExhtNxBBGgCqKiEhgUrKtsnv/OsJaqH8nJ6eThG6Xv64GgBAQ8d+iQYAoNGom7JWRymaY4+md7carvf3ogEABMTFBwAAqgRFFQAambopa3WdopmyvMKsjTHFOXeUOwAAhMTFBwAAqgRFFQAambopa/WTogEAqkdcfAAAoEpQVAGgkambsoYUDQANibj4AABAlaCoAkAjUzdlDSkaABqSuvnGCACAZwSKKgA0MnVT1pCiAQAAAAAAAKyFFA0AAAAAAABgLaRoAAAAAAAAAGshRQMAAAAAAABYCykaABqSuvnGCACAZwSKKgA0MnVT1pCiAaAhERcfAACoEhRVAGhk6qasNbwUvW3btmUqR48eVfYDgMZIXHwAAKBKUFQBoJGpm7LW8FL0yJEje/XqNVXGzc2NTqfsBwCNkbj4AABAlaCoAkAjUzdlrUGm6LffflveMmDAAHmKLisrS0pKOnv2bHl5+X86SVJ+fv41GepGjbdv337w4IG8G0OdT5w4ER8ff/PmTXm75uA0CA14/fr1H374QdZXys7OphEuXLjw6NEj1nLv3j35HBg+VEVFxenTp48fP15UVPSfUao4czlFH7qWkpIStq2eG52dD07u3LnDp1FYWHjr1i22TWMWFxez7dLSUjqE/s135eTksG1CI9NeumT2Un1GRn3V4lXi5DO5f/8+rT9v17tqwe2T4/01T0G3Iy8vjx9Obty4wQ9hNA9k1Osgvl71+kiqOfPOehdIC3L37t24uDg6u7xd81bqtZuEuPgAAECVoKgCQCNTN2WtsaXoxMTEzp079+3bt1evXi+88MK5c+d4t1mzZrm6uvaysLW1TUhIoEbq+emnn/I+HA0SEBAQFBTk6Oi4cuVK1qg3OLV4eHhQY/PmzWn78uXL1Dh58uSuXbsGBwd36dKlf//+LHctWLCATcDJyYkdQtLS0mgX/dvLy8vb23vw4MFubm4HDhxgg0tVnLmcog/NOSYmRtKZ2+PHj6dMmTJq1CgWwGidP/roI9qgy+nUqdP27dv5mHw7PDy8SZMm/C7TLhsbm/T0dPZy9+7dtHfSpEmSzhklnasWrJIcnwmF2O7du0dGRvJ2zauu9PYxDg4OrD/bpT4FDU6H03KxPsnJyfb29pQ82UvBgZLOOgiuV3N92PjyOZ8/f14SXmBYWBidkQahU/D3s96t1Gs3ibr5xggAgGcEiioANDJ1U9YaVYquqKjw8fGZN28ea58xY8aLL77I085bb71FLWzbxcVFnEVpKLaxZ8+e5557jrXoDc5Tx8OHD4cNG7Z48WLavnbtGuv56NGj0NDQ+fPns5cMzVl+XhqHEvuiRYvYy3379rm7u/MHqlWauZxentSbG10jvZwwYQK1sxR969YtSnF///vf+SD8Yk+dOkWTpHgvT9EBAQERERHs5dChQwMDA1mK1jyj+Kol1SopsJnk5OT06NFj6dKl8nb1VYtvn7o/29Y8RWlpabt27fhVz5w58ze/+Q3b5jQPlHTWgbP+XaG+++ILpItiHwo4evQoZf6srCzWrnkr9doBAAAAAEBqZCk6LS2tSZMmubm5rJ2iAr28evUqezllyhR+oDyLUshJTEykYxUfW6XGL7/8cvTo0SwWCganQSIjI6l/bGysp6fn/v37JUsEOnToEC3CsmXLxo4dS9OWja3MS5cuXaLRKOEkPUEzPHHiBNtb1ZlzvA/j4eHB8qFgbjRUz549p0+fTo20qjQCT8UMi1gUAvv37x8VFfX888/LU/S6deuopaio6Ny5c/Ry7ty5LEVrnlF81ZJqlRRo/FWrVnl7e0+bNk3Rrr5q8e0TpGjNU/zhD38YP348bVCmpTkfPnxYvlfSP1BzHTjr3xWKOUuVvT+XL1/Oe/r7+69du5a1a95KvXYAAAAAAJAaWYqOj4+3s7Pj7SUlJRQkTp48yV6OGTOGPxWUZ1FfX18aMzAwsG3bthSD+eHz588fMWJEt27d2HM5weB9Ldgg/fr1+/777yXL6Wh7yZIlq1evnjhxIk2SHyup8hIlJVtb25FPO3bsGNtb1ZlzvA/j7OzM8qFgbjQ4jUZjOljQUZ6envLf92YRa/369QMHDqRMqEjRdFEzZ86kLB0eHr5p0yaeojXPKL5qSbVKCnQ6muHo0aNpDvy3r1m7+qrFt0+QojVPQRm1WbNmt2/f/vjjj728vPjnHTi9AzXXgbP+XaGYs1TZ+3Pz5s18V0hIyMKFC1m75q3UawcAAAAAAKnuU3RxcfG33367atUq9heqFHszMzPp5/s33niDEmxqaqpiLzNSP0XT4ZQcbty4wdppBPlLSke7du1i25qfi16+fLmfnx/b5s6fP29vb5+fny8YnKUO1k6DBAUFUcqi/MPD56JFi8R5KTs7m0aTfweVXPVmLqmyFsuHgrnR3aFMSIdQ8Ovatetrr71Gja+//vr06dP5IDTmmjVr3NzckpKS6KU6RaekpNAgHh4eNBpL0XpnFF+1pFolBTrd7NmzaSMsLIw9Gebt6qsW3z51f7atdwoyatSo999/n+71Bx98IG9nNA/UWwfO+neFOkWLL5B/LJz06dNnw4YNrF3zVuq1AwAAAACAVPcp+p133mkiI9919OhRJycnvsvBweHgwYPyDowgRT9+/Njf358iH21UVFRMmDBhyJAhkuW53F/+8hdXV9eCggJ2iDqLlpeXT5s2jffn34dMc6AUTYFQb3A2CEvRbJBBgwZduXKFLoE9lL548aK7u7s4L5Hg4GCKW/fv35csF3LkyBE6S1VnrqCZDwVzo4UdO3Ys2x755NvF7t6926FDB3lU7tixI4uIklaKlixfl7Vx40baYClacEbNq2a7JK1VkuPLTovTuXPnrVu38nb1VYtvn7o/36V5CsnyW8rt2rVr1qzZnTt3eCOneaBgHRj19eqtjzpFiy+QbhNL43Rpjo6OPF1r3kq9dvLPf/5T8bvcda9uvjECAOAZgaIKAI1M3ZS1uk7RsbGx1L506VJFiqYf/Xv06EEtkydPzs3NnTFjBm1T/JBnKkaQoklKSoqvr2/79u3btm1LoSIzM5Ma6XQvvfSS/KPC8izq7OxML1u3bk2pg32t8aVLl9q0adO7d29vb28aZ8uWLYLB1YMkJydLlgDp5OTk4+PTvXv3OXPmVJqXcnJyQkJCWrRo0bNnTxrHz8+P4nFVZ66glw8150bDUizkf9mLp2iyd+9e/rluGpNWgKd6zRTN8U90a55R0rlqfrh6leR4UiVxcXF0OPt2dL2rFtw+zf5sl+YpJMu3eXl4eLz++uvspYLegXrrwKivV2991EstCS9w1qxZdAfppPSeiYqK4u2at1KvnSxevDggIIBt1xdx8QEAgCpBUQWARqZuylpdp2iGUooiRVPyZC1nzpyRnnxVEpEHSOtR9lD8neeqoqySkZGRlZWl/jPF1g+em5ubnp6u/h8BAkVFRampqfLfpK0l1ZhbDQnOWGdXLVXl9onRnFu1anX06FHljsoI1kFPldZHfYEscpeWllLMLiwslO+qqp/97Gc7duxQttYtcfEBAIAqQVEFgEambsqaWVL0rl27WAv7kuEHDx6wl//4xz/+cxiAOdAbOywsTPEk2bQ0H1xXz1/+8pdHjx4pW+uWuPgAAECVoKgCQCNTN2XNLCn6s88+Yy3sgVtZWRl7Kf9LxQAmMW7cuKlTp/JPd5tcREREXFycsrXBEhcfAACoEhRVAGhk6qasmSVFf/3116wlOzubXt65c4e93LNnz38OA4BnXt18YwQAwDMCRRUAGpm6KWtmSdF37961s7Ojlr1799LLAwcO0LaNjY3mn/kxVllZmbIJAAAAAAAAQEtdp+g9e/b88pe/DAwMZCn6lxYsKk+bNo1aOnbs+Pvf/75Tp060zf5ecW2gGP/yyy+7u7vb29vzv+gDxoqIiEhISCgpKQkNDa2D/xsCAAAAAABQB+o6Ra9YsYLlZ7nU1FTaVVxc/Nvf/rZp06bUYmtrO378eP5Hm421du3aDh06bN++/fbt2/X+VUmNWHJysr+/f5cuXRYsWKDcBwAAAAAA0DDVdYquVH5+/oULF/Ly8pQ7tFAMvnbt2vXr19mfMpa3P3jwQN7y+PFj6llRUUHJvHnz5omJiactSktLeR86ipI826Z26s/3sgHv3r0bFxfHfnObo5fx8fE0Z0Ugp3PR+MePH+f/L+DevXvXVBR/SUt8RZoTUJ9IsvTPycnhL2luNKz8TyXpHSVft5s3b5aUlFS6q6ysLCkp6ezZs/JrESymHLteOT6sYIbqdRCfTnOG5P79+/JTK94zAAAAAAAAaqZL0VXSt29fDw+PXr16UTCmbf6dyeo/7UPhvEmTJpSUEhISnJycunXr9pOf/MTPz48OP3nyJD9q+/btbDs8PJz68/nTrrCwsC5dugwePJgOX7lyJWufPHly165dg4ODaVf//v15+E9LS/Py8vL29qb+bm5uBw4coMYFCxb0sqAR2LQJ9WSHMIIr0pyA5olYfxsbm/T0dPZy9+7ddDmTJk2q9Cj5ur3wwgsxMTHiXYmJiZ07d6a9NGdqPHfuHO+vt5hy/HoZBwcHNqxghprrIDid3gzJmjVrnJ2d2akdHR23bNnCd4Fp1c03RgAAPCNQVAGgkambstbgUzTLTg8fPhw2bNjixYt5u16KpinRxptvvsna//jHP1Jao8PZUWy0U6dOubu7u7q6ylM0BTD2LPfo0aP29vZZWVm0TQOyDo8ePQoNDZ0/f75kee4dFBS0aNEitmvfvn00mvw554ABA/T+fq/gitQTEJyI+gcEBERERLBdQ4cODQwMZClafJRmVNbbVVFR4ePjM2/ePNY4Y8aMF198kcZn/fUWU05zWPEM1evA2jVPJ5ghobcoLTLb9vf3R4puEMTFBwAAqgRFFQAambopaw0+RUdGRiYmJsbGxnp6eu7fv5+3L126lNrT0tLYJ3t5iqboRRsZGRmsZ15eHr1kzydZEqM83L9//6ioqOeff16eopcvX862JUviWrt2rWRJpIcOHaIrXbZs2dixY0eOHEmNly5dojHpRElPuLi4nDhxgh8uTtF6V6SegOBE1H/dunV0CUVFRXR19HLu3LksRYuPYuvGeHh4yFO0ehctLw2Vm5vL+lCgpZdXr15l/fUWU04zRYtnqF4H1q55OsEMJctv6bNbxoZCim4QxMUHAACqBEUVABqZuilrDT5FEwpCgYGB/fr1+/7773m7r68va2/bti0lUp6iT58+TRv379/ngzg6Oh48eJAdRUls/fr1AwcOpHisSNGbN2/mh4SEhCxcuJA2xowZQ+ddsmTJ6tWrJ06cSPFYsjwjtbW1Hfm0Y8eO8cPFKVrvitQTEJyIpdOZM2dSlg4PD9+0aRNP0eKj2Loxzs7O8hSt3hUfH29nZ8dnVVJSQmvLPiEvWEw5Nk/+kqVo8QzV68DaNU8nmCGZPXv2G2+8wbaRohsKcfEBAIAqQVEFgEambspag0/R/Ldhly9fHhQUxNt5NqN2Pz8/nqILCgpo48KFC2zvzZs3+Us6as2aNW5ubklJSfRSkaL5B4xJnz59NmzYkJWVRWGPfw0YdWApOjs7m8YU/G0ncYrWuyL1BAQnYiuQkpLi5eXl4eFRXFzMU3SlR/GXlX6iOzMzk4a6ceMGa0xNTeUvBYsppzmseIbqdWDtmqcTzJAEBAR8+OGHbBspuqEQFx8AAKgSFFUAaGTqpqw1khRdXl4+bdq0QYMG8XaWzVj7kCFDeIqmxpEjR77++usVFRWPHz8ODw+nzuzrtWmjY8eO/M9HK1I0vWS5jmKeo6MjJbErV67QmOxx8cWLF93d3VmKJsHBwePHj2dPvOksR44codOxXZJ1KVp9ReoJSPon4iuwYMGCjRs30gZP0dYcxVSaoulYCp/Tp0+nDRphwoQJtNS8v95iymkOKwlnqLkOeqcTzPDw4cMODg78N9uRohuKuvnGCACAZwSKKgA0MnVT1hp8inZ2dnZxcWndujWlo+TkZM32c+fOyVN0dnY2+6R3+/bte/Xqdf78eX4UtRQUFLCXihQ9a9YsT0/P7t2708hRUVGsnaKpk5OTj48Ptc+ZM4en6JycnJCQkBYtWvTs2ZPm4OfnJ/8bS+IUrXdFmhPQO5EinUpPp2grj6o0RdNGSkqKr68vrRutJwXRzMxM3l9vMeX0hhXMUHMdBKfTnOG+fftsLVyeaNq0Kd3Kr776ih0FAAAAAACgqWGn6Jq4desW/2RvpVjYKy0tpUhWWFgo35Wbm5ueni5/1Mz9/+zdC1hWVb4/cEEhwAuaEagEXgBhMkQFRNNROKXT4GWiMZ9kSj1oOiqn/sdzbEztcERyxv6pf7Wxp6TGqfHuCJWZHRU8lJpkeOeiKKJg4gUU4ya6/7/eNazZ7r3XAmEDG/x+Hp6e/a6999prr/32e96v+72UlpZmZmaqf6W53iQDUOp7oPrtZYhC7+XLl7WtDaYfoXweJDQj3Lp1a0xMjGr9zyZPnsz/1QAaW1nh1dwPdlRef4CLCAAAAABgBQ9vin4g+lu7TazZB2ARZs3D3r174+PjNY1xcXGpqamaRmg8RalH/t712a9Dp55Zs1W7DgAAAADAqpCi6yQ2NjYlJUXb2oSafQAWgXloZShIb2s/YpNd6JZHnk77zX+WnvnHx9QBAAAAACwLKRoAmhMF6SS3UZ97j6O6sclu8Oc9fyO/Nd003xgBAPCQQFEFgFamacoaUjQANDMWpL8KnPRzkLb9SW5Ny4sPAAA8EBRVAGhlmqasNVaKxh/+8Ie/ev9ta//Ln//bKbxw1wH9Ws2ftgABAECdoYoCQCvTNGWtsVI07kUDQB1d2Zu+9ZGnWST+ok9Uco/ILwNezF6xkX2Dd63VRtsEAAB1hioKAK1M05Q1pGgAaE4sQm9z+eWXARO3dQo/+Lv/upp2VL1BrdVG2wQAAHWGKgoArUzTlDWkaABoNhShtzg+vdl+sPrms0at1SYhISExMTEtLU27DgAAatM0X8MDANBkmqasIUUDQPNgvxetv/msgWoDAAAAAJaCFA0AzaCs8GruBzsMbz5roNoAAAAAgKUgRQOApaHaAAAAAIClIEUDgKWh2gAAAACApSBFA4ClodoAADSepvkaHgCAJtM0ZQ0pGgAsDdUGAKDxyGssAECL0zRlDSkaACwN1QYAoPHIaywAQIvTNGUNKRoALA3VBgCg8chrLABAi9M0ZQ0pGgAsDdUGAKDxyGssAECL0zRlDSkaACwN1QagRaisrNQ2QUvQNF/DAwDQZJqmrCFFA4ClNWO1ee6553bs2KFtVZTCwsLS0lLRQ4CHB/0P8swzz7i7uzs4OMyZM0e7ujnExsampaWVl5dHRUVdunRJuxoAAMAMSNEAYGnNWG369+//ySefaFsVZdCgQR9//LHoIcBDYs2aNR4eHhs3brxy5crdu3e1q5vJsWPH6H/Jnj17LliwQLsOAADAJEjRAGBpzVhtWIouKSnZv3//hQsXWOP169cDAwOXL19+8eLFoqIizUPagBLFTz/9dO3atZSUlLy8vPt6VJScnJx9+/b98MMPVVVVmlWkuLj40KFDqamply9fVrdTP9R46tQpdVahA128X3l5OWuXDKCysjIjI+Po0aOaAVDPNDY6CvWjbmdYn/whDY8dSxGMTcOwc8n4y8rK2DYVFRXUTv/lexl2ZXhS6n5u375teFtSMlei89IMgA6h7plOgdr5LoYDU2zjUZ+4em4Nd2FzRQe6desWb1QTTSZj2KeaqH/NdSf37t2jLaurq0tLS9u3b5+enn7ERn2NHnRWJc8uySrDk5I/eTjJc0Mzwhs3bmgmlvAj0jzQuR88eFD9bhTNteAbiwZsOFeSE5GsAgCAJoMUDQCW1ozVhlL09OnT+/TpM3jwYCcnpzVr1lDjm2++6eLi0rNnz0GDBk2ZMkXzkO0VHR1NLcOGDXN2dl62bBnrjV6Uv/DCC927d3/22WeDgoJGjRqlPhbj5eUVEhISFhZGh+M7Ure9evWKiIigPoODgym3s3Y6kKen55M1HB0d2fvPRQMglHnoELQBbU/ndfz4cdaenZ1NQ/L29g4PD/fw8EhKSuK7MJrb8rQvO5ZobGqiziXj37hxI9uG5r9Nmzb84hp2JTop3k9BQYGPj09CQgJrVxPNlei89AMoLi6mbVasWME2GDt27PPPP8+WRQMjq1evpqcNO3G61vy9DKJd+FxRcKXl8+fP1/T0D6LJVMR9qon611x3xfYPPXRFKLmlpaXRjPXu3fsXv/gFzQnt/t133/G9HmhWRc8uySrRSfGLruiePGqi54Z+hAsWLGBTSifCZzgrK4s2pv/6+vr6+/vTabq5ue3atYt3rr4WJ0+eVKQDNpwryYlIVgEAQJNBigYAS2vGakOvVikesLtz27Zt69ixI7s9JX9HN+1Fr5Jv3LhBy/v373dwcMjNzVVsbzSliMJvrN28eZPvwlVXV7OF7du3U95myxdrbrrS0aOioubPn88eigKGaADUeUBAwLx589j2M2fOHDhw4D0biu4xMTHs7GizkpIS3i0jOpZobJykc1GfPCQcPnzY3d29S5cu7OIadiU6Kd5PYWGhn5/f4sWL+YHURHNleF6GA6AFSo90ZWm07777LsUhyplsrWhghJ6xI0eOZMv8+SPZhc/JnTt3aMe33nqLbcOJJlPSp5qof023iipF00WhhVdffZW1/+EPf6BISbuzveo+q2x7w8GLVklOSvTk0RA9N0QjJIMHD1aPhA4XFha2aNEi9jA5OZkOx/7v1k+afMCGcyU5Ecmq+mmar+EBAGgyTVPWkKIBwNKasdrQq1XqmS2z8MDe+Vlril6yZIl6LbuJTS/QHR0d33777ZycHLaqoqLiag0ebNLT0z///PPIyMjY2FjWQqv27NlDI4mPjx83btzo0aNZu2HAYO2GA8jKyqJTYG87J/RinR7m5+efPXuWFihR8F30qE8KG+k1PD092bFEY+MknUvGTyGBYkxwcHBiYmKPHj3YxTXsSnRSrJ+VK1f6+/tPmzZNvYuaaK4Mz8twAMzy5ctpnJSl+f1YycDI0qVL+Vzx549kFxpnQkICzXxSUpK3t/fOnTvZNpxoMiV9qon659ed+mFvG+YpmiIfLfAn8/Xr1+khu8X6QLPKtjd8dolWSU5K9OTRED03RCNUdCn63LlzdFCahIwarq6uhw4dUnTXQpFeBdFcSU5Esqp+5DUWAKDFaZqyhhQNAJbWjNVG/Wq4vLycXvieOXNG0cVmfYpet24dfzhmzJiFCxey5d27d//qV79ycXHp3bv35s2bN23a1L4Gv0M7f/78UaNG0Qb8TZtjx44dMGBAXFzcqlWrJk2aRK/mWbsoOIkGkJqa2q5dO97OzohSHyUBdbsh6jMwMHB0DToFdizR2DhJ55Lx07mvXbt2yJAhlGp4SDDsSnRSiq0fR0fHyMhI6oHd69MTzZXheRkOgLl06RIda9iwYbxFMjAyZ86cV155hS3z549kl/42NPOhoaE0sBMnTvDNGNFkSvpUE/XPrzu1d+3alb2DnaXoI0eO0MLt27d5J05OTvQMZ3vVfVbZ9obPLtEqyUmJnjwaoueGaISKLkXTk8He3p4PjDlw4ICiuxaK9CqI5kpyIpJV9SOvsQAALU7TlDWkaACwtGasNupXw+oUHRIS8tFHH/HNNA9pL/4+T/LUU0+9//77/KFi+5Iheo3u4OAg+qYocvLkSdqAEktubi69WOdbUs91SdGGA2C3UgsKClh7ZmYme5iXl0cL+u8hUzM8lmRsnKRzwz5Z++rVq93c3DIyMughDwmGXYlOSrH1w357KTo6esKECeq9OMO5Ep2X4QAU2/t1R4wYQaHriSeeeO+991ijZGCK7TmzfPlytsxTtGQXFpxY+5IlS8LCwtgyJ5pMSZ9qov7V3VJ7UFAQT9ElJSW0cOrUKbb28uXL/OEDzSrb3nDwolWSkxI9eTQMnxuSESq6FM2eDIZfWacZsyK9CoZzxdpFJyJZVT/yGgsA0OI0TVlDigYAS6t3tSkrK/vmm29WrlwZb1PHVWrqV8PqFD1+/Ph///d/Zx+O1T+kveh1LXt5Ta/4nZyc2MtletmdnZ3Ntvn222/btm2r+ZVpOgRv2b17N6VoGueFCxfouOzeIB3d3d291uwhGsC9e/cosM2YMYMWKPhNnDhx+PDhbN+RI0dGRUWxL/6lFKF/07LhsSRjUxN1btgna+/WrRv/8WF1SNB3JTmp/jXJkPKel5fX+vXrWbua4VxJzks/AFpYuHBhv3792JOqffv2R48eVaSzvXfvXkdHR/4RXJ6iJbvwc6mqqpo2bdrQoUNZOyeaTEmfaqL+ebesnfblKZoaR48e/dJLL1G31Pn06dNpY/Z/wYPOqmjwolWSk5I8edQMnxuSESq6FE0iIiIogbO78TSSffv2Vdu+10AzZrZWMmD9XLF20YlIVtWPvMYCALQ4TVPWkKIBwNLqXW3eeOONNip1XKWmfjWsTtGUgf39/SkIPf300/qHtNfs2bO9vb19fHxcXFwSExNZD7RZly5d2Jf30sLatWv/cZga586de/TRRymPUW9du3bl7xKfO3eus7NzQEAAdfj666/Xmj1EAyCnT58ODAx8/PHHqX96WX/27FnWnp+fHx4e3qFDBz8/Pxrb119/zXdhRMcSjU1N1LmoT2qnEfK3uKtDgmFXopPiSYmkpKR07tzZ8KutDedKdF76AezZs6djx440BrZBQkJC37592b+GGA4sOTnZ3sa1Rtu2belYX3zxhWgXxTZOGh5tTGdBAezYsWOsnRNNpiLuU03Uv6b9+PHj6hSdl5fH3ulNnfMvo2Z7PdCsSgYvWiU6KcmTR0303BCNUDFK0YWFhWPGjKEnA11x6iEoKIj9hJVmzIxkwIZzJTkRyar6aZqv4QEAaDJNU9aELx/l6v26FgDggdS72iQlJVH74sWL9VFZsqrh2GvoiooKet2s+SLu6upqerGenZ2t/i1fNXoVnpOTk5ubq/ld36KiItqL3emqlWQADL361/weNUMBKSsrS/P7wLWq49jq17khw65EJyUnmSvJeRkOQEQzsK1bt8bExKjW/2zy5Mk8Nyq6XUzRGH0yP/74o+Yt4vWb1XpojJN60BGWlpZmZmaKPnivoR+wZK4AAMDK6vnysd6vawEAHkgDqw2FE1FUlqxqCMM7UU2p2QfQgjT9XO3du1f/IYK4uLjU1FRNY8vV9LPacmGuAABaqHq+fGzg61oAgDpqYLWRRGXJqoaIjY1NSUnRtjahZh9AC4K5agyY1brDXAEAtFD1fPnYwNe1AAB11MBqI4nKklUAAAAAACL1fPnYwNe1AAB11MBqI4nKklUAAA+JpvkaHgCAJtM0Za2eLx8b+LoWAKCOGlhtJFFZsgpamdjY2LS0tPLy8qioKMPf+AV4aMlrLABAi9M0Za2eLx/lg6v1dS0AQB3Vu9ps3759/PjxoaGhLCqPt2EJSrIKWqVjx44NGjSoZ8+eCxYs0K4DeLjJaywAQIvTNGUNKRoALK3e1Wbp0qUsJKtlZmbKV6lduXKlrKyMLVdUVFy8eJH+e/8mP7t7925OTk5qair7EV2G9r14P/brVvI+DbuqrKzMyMg4evSo+uev1P3cvn3b8J8ARGNQBH0qtq7U2/Mfc5IcLi8vjwZ86tQpGjxruXHjhroThh2ourr6yJEjBw8eZL+ozGjGyYdkOEjamEZ17dq1lJQUOrS6XTSxklUAIK+xAAAtTtOUNaRoALC0Zqw2/fv337hxI1uePn06JW39UbKzs4OCgry9vcPDwz08PJKSklg77evp6flkDUdHR/aDwJI+DbtKT0/38vKivaiTPn36HD9+nPfP+ikoKPDx8UlISGDtaqIxiPokq1evdnFxYds7OTl9/PHHvCvDw02ZMqVXr14RERE9e/YMDg6+fv06NS5YsID14OzszAeQZePr6+vv7z9s2DA3N7ddu3bxztXjPHnypCIeJLVER0fT4agT6n/ZsmW8XTSxklUAIK+xAAAtTtOUNaRoALC0Zqw2PH0dPnzY3d29S5cumqPcu3cvJCQkJiaG3Yatrq4uKSnh+6p/BpZyoCZFa/o07Ir+GxAQMG/ePNbJzJkzBw4cSFvyfgoLC/38/BYvXswPpGY4BkmfhGZy5MiRbHnQoEGaFK0/3MWae+Y07KioqPnz5/NVZPDgwXwAdIiwsLBFixaxh8nJyXT67F63ZpyK7fRFg6SN6URu3LhBy/v373dwcMjNzWXthhMrXwUATfM1PAAATaZpyhpSNABYWjNWG5a+KB8GBwcnJib26NFDc5SzZ8+2adOGsqW6kTFMsKzdsE/DrrKysqixqKiIPaS4SA/z8/NZPytXrvT39582bZp6FzXDMUj6VGzvdR89ejRb1qRow8NRst2zZw/Nf3x8/Lhx4/i+jDpFnzt3jg5EuTejhqur66FDhxTdOJXaTnzJkiV8SxrkmjVrWLvhxMpXAQAAANQDUjQAWFozVhuWvtauXTtkyBCKi/r0RZmwXbt26hbOMMGydsM+DbtKTU1VN5aXl1OY/O677xRbP46OjpGRkdQDuzGrZzgGSZ9kzpw5r7zyClvWpGjDw40dO3bAgAFxcXGrVq2aNGkSxWa+Srk/RdMJ2tvbj77fgQMHFN04ldpOfN26dXzVmDFjFi5cyNoNJ1a+CgAAAKAekKIBwNKasdpQ+lq9erWbm1tGRgY91KevvLw8Snfq77jiDBMsazfs07ArdoO6oKCAPczMzOQPqR9KvLQQHR09YcIE9V6c4RgkfZKQkJDly5ezZU2K1h8uNzeXgvGtW7fYw0WLFklSNDtBw29B06doySBpY/62cPLUU0+9//77rN1wYuWrAAAAAOoBKRoALK0Zqw2lr27durH0qAjS18iRI6OiothXQFOe5G/JNkywrF3Up76re/fuUZSdMWMGLVRXV0+cOHH48OFsY3Z/lRZKSkq8vLzWr1/P2tUMxyDpc+/evY6OjvyjzvrPRSv3H+7ChQsUbk+cOEHLZ86ccXd3l6RoEhERQQn89u3biu2t4Pv27aMBKLpxsrWiQdLGNGksjdPpODk58XQtmljJKgAAAIB6QIoGAEtrxmpD6evxxx/nXxhmmL7y8/PDw8M7dOjg5+fXpUuXr7/+mrUbJljWLurTsKvTp08HBgbSLl27dqVgefbsWbYxj7UkJSWlc+fO58+fZw850RgM+0xOTra3ca3Rtm1bZ2fnL774gnVleLi5c+fSNgEBAT4+Pq+//ro8RRcWFo4ZM4ZOsG/fvtRDUFAQ+wkrfYpWBINUbBvPnj3b29ubjuji4pKYmMjbRRMrWQUATfM1PAAATaZpyhpSNABYWouoNsXFxVlZWfzXlRvCsCvKn5cvX1a3NJymz61bt8bExKjW/2zy5MkseEsUFRVlZ2ezu8p1UVpampmZKfost4b+xFnkrqiooJh98+ZN9SqAh1xZ4dXcD3ZUXn+w/y/kNRYAoMVpmrKGFA0AloZq0zT27t0bHx+vaYyLi0tNTdU0Ni/DG9cAwBSlHtnuGpH2m3lX045q1wnIaywAQIvTNGUNKRoALA3VBtRiY2NTUlK0rQBQ48c9hze3HbLJLjTZc0zW//1brbem5TUWAKDFaZqyhhQNAJaGagMA8EAoSG995Gkqj1uch29xGia/NS2vsQAALU7TlDWkaACwNFQbAIAHxYP0z392g7d1GCG6Nd00X8MDANBkmqasIUUDgKXVWm3whz/84Q9/tf5tdRlO/93e+V8Kdx3Qr9X8aUstAADcDykaACwN1QYA4EGd/+vOzfaDWST+vNfzyT0ivwx4MXvFRnYvuta6qm0CAID7IUUDgKWh2gAAPBAWobc6D9/p/+K2juEHf/dfms9F11pXtU0AAHA/pGgAsDRUGwCAuvs5QrcbQilaffNZo9a6mpCQkJiYmJaWpl0HAAA2SNEAYGmoNgAAdVSUeuTvjz6jv/msgboKAK0Yvl0MAADVBgCgTsoKr+Z+sMPw5rMG6ioAtGLyEmcWpGgAsDRUGwAAc6GuAkArJi9xZkGKBgBLQ7UBADAX6ioAtGLyEmcWpGgAsDRUGwAAc6GuAkArJi9xZkGKBgBLQ7UBADAX6ioAtGL4djEAAFQbAACToa4CADQQUjQAWBqqDQCAuVBXAQAaCCkaACwN1QYAwFyoqwAADYQUDQCWhmoDAGAu1FUAgAZCigYAS0O1AQAwVzPW1aSkpNdee23KlCkLFy786quvePudO3c+/fTTGTNmTJ06dcWKFcXFxaqdlA0bNnz99dfqlodNdXV1fHz8jRs3tCsAQAffLgYAgGoDAGCy5qqrs2bN8vDwWLRo0apVq2JjY/38/Fh7SUlJaGior69vQkLCypUrf/nLX3br1u3UqVN8x9GjR1P25g8fQuXl5W3atDlz5ox2BQDoyEucWZCiAcDSUG0AAMzVLHX1p59+sre337NnD2+5e/cuW4iJiaEIfevWLfbw3r17zz//fL9+/WiBtdQlRRcXFx86dCg1NfXy5cvq9ry8PGqkTM4PR65cuXLxfhRTWTuN89q1aykpKbTjP3tRlMrKyoyMjKNHj1ZVVanbqducnBw6BHWibmdYh/whjY0diDEcm8aFCxe+//576oSl6GPHjtHh1BsYDkx0ItReWFjIH9Jxadj8FjetLSsrY8sVFRW0iv7LVxl2qIgHQLtfunSJX1ZOf9aSWZIMqbq6+siRIwcPHiwtLWUthvQXSHL1RccS9cO3v337Np0s31h/jhqS+RTtqxkAHVp9RDoFaue7GF4UxTZO9Ymrp91wF8l1tDJ5iTMLUjQAWBqqDQCAuZqlrlJUoxz42WefadrpZb2jo+NHH32kbszKyqKNKTCwh3VJ0V5eXiEhIWFhYU5OTsuWLWONU6ZM6dWrV0RERM+ePYODg69fv87a+/fv7+np+WQNGsCOHTtYe3R0NG08bNgwZ2dn3k96ejr1T2tp4z59+hw/fpy1Z2dnBwUFeXt7h4eHe3h4JCUlsXaOdvnkk0/4Q9qXHUgRj01t27Zt7du3p8E899xzNCHPPvssLVPLmjVr2AaigYlOhNrt7Oxo2Lx/6nby5Ml87caNG9ny9OnTaRV/Dog6lAyAzTCNlpbPnz/P2g3PWjJLoiHRM8TX19ff35/G4+bmtmvXLr67muEFklx9w2NJ+mHbFxQU+Pj4JCQksI0Nz1FDNJ+iffUDKC4upm1WrFjBNhg7duzzzz/PlkUXhaxevdrFxYWdOP2f8vHHH8t3EV1Hi5OXOLMgRQOApaHaAACYq7nq6ssvv0yJhV7u/+lPfzp27BhrPHz4MMWVEydO3L+t0qlTJ54Q6pKiq6ur2cL27du7d+/Olvltw7t370ZFRc2fP589FMU2aqdldm92//79Dg4Oubm51HNAQMC8efPYxjNnzhw4cOA9G8rtMTEx7AYgbVZSUsL7ZEQHUsRj4+7cuUPBhuU0uhY0SyzzpKamdujQgQYpGpgiOBHWTmOOjY1lu4wYMSI0NFSfoumiuLu7d+nSRZ2i9R3KB8C6orMYOXLkW2+9xbYxPGvJLBkOiQ4RFha2aNEitk1ycjKtUt9WZUQXSHQ4w2PJ+6HtCwsL/fz8Fi9ezDs0PEcNw/lUBPuKBvDdd99RuKXRvvvuu5So2bcJSC4Kof+v6XKw5UGDBrFnlGQX0XW0OHmJMwtSNABYGqoNAIC5mrGuUuChMNC3b1/KhC+88AK9fKcIQcv5+fmaLZ944ok//vGPbFmfoisqKq7W4AkhPT39888/j4yM5CmRVu3Zs4fOJT4+fty4cdQPa5fkqCVLlvB2ihlr1qxhN8aLiopYI6UdNuCzZ8/SgvoN0nrUIeWr9Bqenp48H4rGxp08edLe3p7Si6L7XLSHh8eXX34pGpgiOBHW/t577/Xo0aO0tPT48eP0cO7cuZoUTVEtODg4MTGRNlOnaH2H8gEkJCTQKSclJXl7e+/cuZNtY3jWklkyHNK5c+foQPTMyajh6up66NAhtgsnukCSq68/liLtZ+XKlf7+/tOmTVO3G56jhuF8KoJ9RQMgy5cvp3FSlqZEzVokF4UsXbqUj4enaMkuoutocfh2MQAAVBsAAJNZoa5S5+3atfvb3/6Wk5NDL9nT0tLUa6uqqtq2bfvpp5+yh/oUvWnTpvY1+B3g+fPnjxo1qnfv3vx9uWPHjh0wYEBcXNyqVasmTZo0ePBg1i7JUevWrePtY8aMWbhwYWpqKg2VN7JAS6GFUpy63RB1GBgYOLqGi4sLz4eisXEpKSmdOnViy5oUHRAQ8Je//EU0MEVwIqydTnzWrFmUpadPn/7hhx/qU/TatWuHDBlCcU6TovUdygdA6JRDQ0PpNPl7DQzPWjJLhkOimbe3t+fbMwcOHKgZyD+ILpDk6uuPpUj7cXR0jIyMpC3VX59ueI4ahvOpCPYVDYBcunSJxjBs2DDeIrkoZM6cOa+88gpb5ilasovoOoKCFA0AFodqAwBgLovUVUov7HYc5d7f//736lXr16+nbMBvjo3WpWiJkydPOjg4FBcX5+bmUtbi34q0aNGiuqRo/j5h8tRTT73//vvsTmBBQQFrzMzMZA/z8vJoQfPVUBqiA0nGxp0+fdrOzo59wZUmRT/22GNfffWVaGCK4ERYO42Hevb19fX09CwrK9Ok6NWrV7u5uWVkZNBDTYrWdygfAP+3DLrKYWFhivisRbPEVumHxGZe/d1ahkQXSHQ4w2Mp0n4olNJCdHT0hAkTWKPoHDUM51O0r2gA1dXVI0aMoLD9xBNPvPfee6xRclFISEjI8uXL2TJP0ZJdDK8jMEjRAGBpqDYAAOaqX12lxPXNN9+sXLky3ka96vvvv3/33Xdnz549derU//7v/zb8CqJr164tXbr0xx9/ZA8/++yztm3bsl+B3rp1K2Xmv/71r+y92QcPHvTw8FB/ApNS9IwZM/hbuAn/FDRDIZN/UfPu3bspRdNoL1y40KbmE9eUP93d3euSoik7sXhGLU5OTpQlaFSUN2gAtEDHnThx4vDhw9mOI0eOjIqKYl/UTOFH/55b0YEkY+PoWL179/7zn/9My1u2bKHtaZIV28A6d+588+ZNycAMT4S1s/EsWLDggw8+oAVNiu7WrRtLhoouRes7lA+Apa+qqqpp06YNHTpUEZ+1aJbYKsMhRUREUHC9ffu2YnsX9L59+zRPCcbwAokOJzqWIu6HnWNJSYmXl9f69esV8TlqGM6nZF/DASxcuLBfv37sf8z27dsfPXpUsc2G6KLs3buX/kfjH73mKVqyi+F1BAYpGgAsDdUGAMBc9aurb7zxRhsV9Sp6Ba9eRSGWf702V1xcTC/N27Vr5+bm9uijj3bq1Ontt9/mazds2ODp6dmlSxeKMXZ2dsuWLWOJmqEUre6/je7byM6dO0d9UqLw9/fv2rUr/+ZhiojOzs4BAQE+Pj6vv/56XVL07Nmzvb29aXsXF5fExES2wenTpwMDAx9//HHqnPLG2bNnWXt+fn54eHiHDh38/Pxo8OwfBdREB1LEY1OjcOjq6urr6ztp0iQ6a4o3tEwD27x5M9tANDDRiWjGo+hSNHXF3yGvSdGGHUoGQJvR4Cnw03XnXyZneNaSWRINiWLkmDFjaOb79u1LhwgKCtL8pBNjeIFEhxMdSxH3w+/TpqSk0DDYvx8ZnqOGaD5F++oHsGfPno4dO9L8sw0SEhJoKti/JRlelOTkZHsb1xpt27alY33xxReiXRTxdQQFKRoALA7VBgDAXPWrq0lJSdS4ePFilmPVq371q1999tlnV69eTU9Pp5BMa0cbfaOSYruhnZOTk5eXx740S41iM4XhtLS07t27868LrjsKUdRzbm6uJk0VFRVlZ2cb3qjUY/mqoqKCQsXNmzc1aym5aX6MmikuLs7KytJ/R3St6jK28vLygoIC/o7uH3/8kd2AVdMPTH4i9SDvUD8AibqcdR1RaMzMzFR/JtlQvS+QRt37qfUcJfMp2bfuA1B0F2Xr1q0xMTGq9T+bPHky/wcLRbdLy4VvFwMAQLUBADBZQ+oqvebWp2i1CRMm0NqgoCDtijo7efLkb3/72++//167ovHpb9VahOZz0bUy/URM7/Ah1/TzuXfvXs0HMUhcXJz+bSOtgLzEmUVYBOXkg5PXXwCAukO1AQAwV0PqqjxFX7lyxd3dndaqfz63BYmNjU1JSdG2WkBVVVVkZKT+c9cipp+I6R0+5DCfjUpe4sxiXARrJR+cvP4CANQdqg0AgLkaUlclKZoyXlBQEK0aO3as/g3bAABNQ17izGJQBOtCPjh5/QUAqDtUGwAAczWkropS9OnTp729van9pZdeMvyeJwCApiEvcWbRFsE6kg9OXn8BAOoO1QYAwFwNqauGKfp///d/u3TpQo3/8R//of5ubYurrKzUNgFAy4dvFwMAQLUBADBZ/erq9u3bx48fHxoaylL0eBv2g7cdO3aklkceeWRQjX/5l39R72sdO3bseOaZZ9zd3R0cHPgvAzev2NjYtLS08vLyqKgoNp8AYH1I0QBgaag2AADmql9dXbp0KcvPapmZmbSK8rOmvWvXrup9LWLNmjUeHh4bN268cuXK3bt3taubybFjxwYNGtSzZ88FCxZo1wGAVSFFA4ClodoAAJjLCnWVcuzF+5WXl/O1lZWVGRkZR48eFX3Emu1+6dKlW7duado1v6Z779492rK6urq0tLR9+/bp6elHbCoqKvg2bK9r166lpKTk5eWp9lboYWpq6qlTp9SpW3OUy5cv88FLVhmeFG1fVlbGlmlINFT1wDj1Zrdv3+a3rPXDu3HjhmZiCT8izQOd+8GDB2k2WIuiuxZ8Y9GADedKdCKidoCWDikaACwN1QYAwFxWqKv9+/f39PR8soajo+OOHTvYKgq6Xl5etAG19+nT5/jx4/fv+jO+OwVjWj5//jxv1/wMb3FxcZs2bSi8paWlOTs79+7d+xe/+EVQUBDt/t133/G9oqOje/bsOWzYMNpm2bJlrH3KlCm9evWKiIigVcHBwdevX+fbq49Cg+SDF60SnRS1bNy4kS1Pnz6dhmo47XyzgoICHx+fhIQERTC8BQsWsCmlE+EznJWVRavov76+vv7+/nSabm5uu3bt4p2rr8XJkycV6YAN50p0IqJ2gJYOKRoALA3VBgDAXFaoq6K0WV1dHRAQMG/ePNY+c+bMgQMH6r+xjGezO3fujBw58q233uLtohRNp0MLr776Kmv/wx/+QJGS/SIX7UUDuHHjBi3v37/fwcEhNzeXlmkvtvHdu3ejoqLmz5/PHooGL1olOSl+IocPH3Z3d+/SpYvhtLPNCgsL/fz8+G9xi4bHDB48WD0SOlxYWNiiRYvYw+TkZDocu22unzT5gA3nSnQionaAxoNvFwMAQLUBADCZFeqqYdpUbPdLKesWFRWxdkpo9DA/P59vydDuCQkJ6enpSUlJ3t7eO3fu5O0UMqmd+mHvHOYpmiIfLeTk5LAtr1+/Tg/ZLVbaa8mSJTV9K4MGDVqzZo1iS5579uyhqYiPjx83btzo0aPZBvwojKenpzpF61dJToqFTIrBwcHBiYmJPXr0MJx22mzlypX+/v7Tpk3jjaLhMZoUfe7cOTooTUJGDVdX10OHDim6a6FIr4JorkQnImoHaDzyEmcWpGgAsDRUGwAAc1mhropSdGpqart27Xh7eXk55Tf+1muuvw3lxtDQ0AEDBpw4cYK3BwYGsvauXbtSxuYp+siRI7Rw+/Zt3omTk9Pu3bvZXuvWrePtY8aMWbhwIS2MHTuWOo+Li1u1atWkSZMol7IN+FEYFxcXdYrWr5KcFAuZa9euHTJkCKViUcikzRwdHSMjI2kDdh9YEQ+P0aRoys/29vZ8YMyBAwcU3bVQpFdBNFeiExG1AzQeeYkzC1I0AFgaqg0AgLmsUFdFKfrs2bMU2AoKClh7Zmam+iHHshlbXrJkSVhYGG/n3VJ7UFAQT9ElJSW0cOrUKbb28uXL/CHtxd/qTJ566qn3338/NzeXYif/9jLaQJ2iDQcvWiU5Kdp+9erVbm5uGRkZ9FAUMmkz9rtc0dHREyZMUGz3h0XDYzQpOi8vjw5q+Eta+hQtH7B+rli74YmI2gEaj7zEmQUpGgAsDdUGAMBcVqirhmlTsb1LedCgQTNmzKCF6urqiRMnDh8+/J+71eApuqqqatq0aUOHDuXtrFvWTvvyFE2No0ePfumll6hb6nz69Om0Mftqa1qgdMcSJg3DycmJEuOFCxdoR3aX+8yZM+7u7vVO0ZKTou27devGf7laFDL5+ZaUlHh5ea1fv14yPEaToklERAQlcHY3nkayb98+GoyiGzNbKxmwfq5Yu+GJiNoBGo+8xJkFKRoALA3VBgDAXFaoq4Zpky2fPn06MDDw8ccf79q1K2W5s2fP8s042t3FxcXV1bVz584U8I4dO2bYfvz4cXWKzsvLY+/0ps75l1GzvWbPnu3t7e3j40O7JyYmsva5c+c6OzsHBARQ++uvv17vFK2IT4q2p0bKxuyhKGTyFE1SUlLo7M6fPy8aHqNP0YWFhWPGjOnQoUPfvn2ph6CgIPYTVvoUrUgHbDhXohMRtQPUqqzwau4HOyqv39SuqA2+XQwAANUGAMBkLaKuUuS7fPmyttUMP/74o+Yt4ixGVlRUUHS8efO+l+xFRUXZ2dnsnm3DmX5S9RheaWlpZmYm/3C1nH7AkrkCMF1R6pG/P/rMty++eTXtqHZdc0OKBgBLQ7UBADAX6qqG4c1YMIS5giZGQXqLw9Ob7AZ/3us32Ss21uPWdCNBigYAS0O1AQAwF+qqRmxsbEpKirYVjGCuoOlRkN7mMpxK0/bO/7LV+ZcWuTWNFA0AloZqAwBgLtRVAGhZeJCmvy0OQ7d3jmj2W9NI0QBgaag2AADmqrWu4g9/+MNfi/jb1imicNcBfbvmT1vmzIAUDQCWhmoDAGAu1FUAaFmKUo9s7zhys/1gloq3OA1L6vbrzD/9ld2LrrWmaZvMgBQNAJaGagMAYC7UVQBoQf4Roe0Gb243dIvj0/t//X80n4uutaZpm8yAFA0AloZqAwBgLtRVAGgpKEJvfWTYJrtQ9c1njVprWkJCQmJiYlpamnZdAyBFA4ClodoAAJgLdRUAWgT2e9H7I7U3nzWapaYhRQOApaHaAACYC3UVAKyvrPBq7gc7DG8+azRLTUOKBgBLQ7UBADAX6ioAtCbNUtOQogHA0lBtAADMhboKAK1Js9Q0pGgAsDRUGwAAc6GuAkBr0iw1DSkaACwN1QYAwFyoqwDQmjRLTUOKBgBLQ7UBADAX6ioAtCbNUtOQogHA0lBtAADMhboKAK1Js9Q0pGgAsDRUGwAAc6GuAkBr0iw1DSkaACwN1QYAwFyoqwDQmjRLTUOKBgBLQ7UBADAX6ioAtCbNUtOQogHA0lBtAADM1Rh1tays7Jtvvlm5cmW8jXoVtcfFxU2bNm3q1KkLFy7MyMhQr+U2bNjA9l26dOn69euvX7+u3QIAwEhj1LRaIUUDgKWh2gAAmKsx6uobb7zRRkW9avTo0epVdnZ2W7ZsUW/AN+vfv//s2bNnzJgREhLi6up6+vRp7UYAADqNUdNqhRQNAJaGagMAYK7GqKtJSUm0y+LFi/UpmlYdP368tLT0xIkTTzzxBK399a9/rd6AoRT92muvseV79+4FBgZSMudrKysrMzIyjh49WlVVxRuLi4sPHTqUmpp6+fJl3njlypWLFy9eunTp1q1bvJG1//TTT9euXUtJScnLy1OvoofUyalTp+7evcsb2fZs+caNGzdv3mTLdCJXr17lmxnuS6qrq48cOXLw4EHanrVQJxd11KfDUVc5OTnULW3AWthJqZWXl7P2srIytk1FRQW1038l/SiCmVT3c/v2bZo9vop70AlUdAOgQ6h7plOgdr6L4cAU23jUJ84viiLYRfQEgFasMWparZCiAcDSUG0AAMzVeHV1x44d+hStNnToUFr7yiuvaFfoUnT//v1pGOxhenq6l5cXtTz55JN9+vShTM7aqTEkJCQsLMzJyWnZsmWskTbz9PSkLdu3b0/L58+f5+3R0dE9e/YcNmyYs7Mz337KlCm9evWKiIigVcHBwfyd5LT9J598wpZpRx7p33nnHRqqfN+srCxfX19/f386lpub265du6hxwYIFT9rQ0dkICW3JduGys7ODgoK8vb3Dw8M9PDySkpIU1Ukxjo6ONNWsfePGjWzH6dOn09zyq2bYj2gmeT8FBQU+Pj4JCQmsXe1BJ1A/gOLiYtpmxYoVbIOxY8c+//zzbFk0MLJ69WoXFxd24nShP/74Y/kuoicAtGKNV9MkhGVOrlnGCgAPIVQbAABzNV5dFaXozZs3U17q168frXr22Wcpqmk2UGwpmkIXBek5c+ZQ2B41alRRUZFiu6kbEBAwb948ttnMmTMHDhxIMZutYo3bt2/v3r07W+aB8M6dOyNHjnzrrbd4O2WtGzdu0PL+/fsdHBxyc3Npmd+nvXv3blRU1Pz58/n2taZow31pbBTsFy1axFYlJye7u7ur76AOHjyY96xB+4aEhMTExLA7tHSCJSUlyv2DIXQimhR9+PBhOkqXLl3YVTPsRzKTrJ/CwkI/P7/FixfzA6k90AQaDoAWvvvuOwq3NNp3332XEjXlarZWNDBCT0W6jmx50KBBLEVLdhE9AaAVa7yaJqEtc3XULGMFgIcQqg0AgLkar66KUjQlz8cee8ze3p5WUdjbt2+fZgPFlqKffvrppUuXJiQkTJ061dvbOy0tTbHd16W9WKImlNzoYX5+PnuYnp7++eefR0ZGxsbGshYKUdQDtSclJVEnO3fu5O1Llixhy4otj61Zs0ax5b09e/bQ+cbHx48bN44n5LqkaMN9z507RyOknJlRw9XV9dChQ2wXRZqiz549S/tSmtW0y1M0JdXg4ODExMQePXqwq2bYj2QmqZ+VK1f6+/tPmzZNvYvaA02g4QCY5cuX0zgpS1OiZi2SgRF6SvAJ5ylasovoCQCtWOPVNAltmaujZhkrADyEUG0AAMzVeHVVlKKZ69evh4eH01ofHx/tuvvf0U3efPPNJ598khZSU1PbtWvH28vLy6kHHsDmz58/atSo3r178zc297eh3kJDQwcMGHDixAnevm7dOrZMxowZs3DhQsX2vmLaLC4ubtWqVZMmTaKIy7evNUUb7kv52d7efvT9Dhw4wHZRpCma9lWfLCdP0WvXrh0yZAilWZ6iDfuRzCT14+joGBkZST2wu816DzSBhgNgLl26RMcaNmwYb5EMjMyZM4d/BICnaMkuoicAtGKNV9MkjMtcrZplrADwEEK1AQAwV+PVVX2KvnPnjvqbn9hXeRvmq9H3p+j33nuvY8eOSs1dTf4m8MzMTPVD5uTJkw4ODuztwSxYsvYlS5aEhYWxZWrn77ImTz311Pvvv5+bm0uJl38NFW1Q9xQt2jcvL49GaPgFXYwkRbN9Nd/dpUhT9OrVq93c3Njvh/EUbdiPZCapHwqriu1MJ0yYoN6Le6AJNByAYnsn9ogRIyhsP/HEE3SJWaNkYCQkJGT58uVsmadoyS6iJwC0Yo1X0ySQogHA0lBtAADM1Rh1dfv27ePHjw8NDW1jM96GkuT58+cff/zxyZMnL1y4cMqUKY6Ojm1sH43W7m9L0bNmzSotLb158+YPP/zQr1+/cePGKbY3DFN2mjFjBi1QBps4ceLw4cMV2+1H/vXXu3fvphTNvmWahyhK79OmTRs6dCjbhtopZLJwSxHUycmJQteFCxdoPOx25ZkzZ9zd3eueoiX7RkREUBa9ffu2Yhv/vn37+Ee4FWmKJiNHjoyKimLnQumUvSlakqK7devGArCiStGKUT+imWT9sEkrKSnx8vJav349a1d70AnUD4AW6GlAV5b9unj79u2PHj2qiC8x2bt3Lz1n+EeveYqW7CJ6AkAr1hg1rVZI0QBgaag2AADmamBdrbx+M/eDHWWF//y1J8X24VWWn9UyMzN//PFHb29v3vLII4+8/PLL1Kjelxld87PSdnZ2lAynTp3Kf1Dq9OnTgYGBlMa7du1K2ens2bOK7ePHjz76KEUyf39/audf3UwhysXFxdXVtXPnzpSsjh07xttnz55Ng/Hx8aENEhMTWfvcuXOdnZ0DAgKo/fXXX1enaNYPoYhOI2fLlB7btWv36quvSvalxDhmzJgOHTr07duXhhEUFKS+IS9P0fn5+eHh4bSvn59fly5dvv76a0Waomla2Bd3KfenaMN+DGeS9cPv36akpNCY9V9t/aATqB/Anj17OnbsyH8GPCEhgeaH/VOI4cCSk5PtbdjMk7Zt29KxvvjiC9EuivgJAK1YA2ta/SBFA4ClodoAAJir3nX1atrRbycu+HvXZ4tSj2hWyRUVFVHmuXDhguHPI9cRRVP170IrtpuNOTk5ubm5demWBdGKigoaCf/xZ4aGl52drb5dLLdr167o6Gi2LNmX8mFmZqboY8ZyxcXFWVlZ6m/2rh/DfvQzWRf1m0DDAYhoBrZ169aYmBjV+p9NnjyZ/QsCU79zgVam3jWtIZCiAcDSUG0AAMz1oHW18vrN7BUbP+85fpPd4K1Owx40QluE5nZuQxw4cED9CeGHhIkTWEd79+6Nj4/XNMbFxaWmpmoa4SH3oDXNFEjRAGBpqDYAAOaqe139+ebzi29udf7ldteIzfaDt3cKb6ERmsTGxqakpGhboc4wgWBZda9p2nUNgBQNAJaGagMAYK5a6+rieW9++Pzvt3iMpvC8pd1QatncNqxFR2gAaMVqrWmN8VoRKRoALA3VBgDAXLXW1Q2OPydn9d/WR57OfOfTk3Ef0jL9lzbDMpaxjGUrLCt1qGmN8VoRKRoALA3VBgDAXLXW1fh5b378dPRml+Gb7AZvsqXonX2idjw2CveiAcCCaq1pjfFaESkaACwN1QYAwFx1r6sFyf/71YCXN9mHUWOyx3MI0gBgQXWvadp1DYAUDQCWhmoDAGCuB62rlddKvp/5x22dwjfZhW5z+SWCNABYyoPWNFMgRQOApaHaAACYq951tSD5f/dFzKrH70UDADSeete0hkCKBgBLQ7UBADBXA+tq5fWbuR/sKCu8ql0BANAcGljT6gcpGgAsDdUGAMBcqKsA0Jo0S01DigYAS0O1AQAwF+oqALQmzVLTkKIBwNJQbQAAzIW6CgCtSbPUNKRoALA0VBsAAHOhrgJAa9IsNQ0pGgAsDdUGAMBcqKsA0Jo0S01DigYAS0O1AQAwF+oqALQmzVLTkKIBwNJQbQAAzIW6CgCtSbPUNKRoALA0VBsAAHOhrgJAa9IsNQ0pGgAsDdUGAMBcqKsA0Jo0S01DigYAS0O1AQAwV/3qallZ2TfffLNy5cp4G/Uq7qOPPmJrb9++rV1nk5SU9Nprr02ZMmXhwoVfffUVb79z586nn346Y8aMqVOnrlixori4WLWTsmHDhq+//lrd8rCprq6mWb1x44Z2BUALFxsbm5aWVl5eHhUVdenSJe3quqlfTWsgpGgAsDRUGwAAc9Wvrr7xxhttVNSrmC+//JKvvXz5sna1osyaNcvDw2PRokWrVq2il85+fn6svaSkJDQ01NfXNyEhgVL6L3/5y27dup06dYrvOHr0aMre/OFDiDIGzeqZM2e0KwBauGPHjg0aNKhnz54LFizQrquz+tW0BjIognXRLGMFgIcQqg0AgLnqV1eTkpKocfHixYYpuri4uEePHo8++qgoRf/000/29vZ79uzhLXfv3mULMTExFKFv3brFHt67d+/555/v168fLbCWuqRoGsChQ4dSU1M1h87Ly6NGyuT8cOTKlSsX70cxlbXTOK9du5aSkkI7/rMXRamsrMzIyDh69GhVVZW6nbrNycmhQ1An6naGdcgf0tjYgRjDsWlcuHDh+++/p05YiqbIQYdTb2A4MNGJUHthYSF/SMelYfNb3LS2rKyMLVdUVNAq+i9fZdihIh4A7X7p0iV+WTn9WUtmSTKk6urqI0eOHDx4sLS0lLUY0l8gydUXHUvUD9/+9u3b6vuo+nPUEI1BEcynYjuEens+Yw80DLrW6k4YfiDDKdUMlW1sOEjJk0Q0t6L2B1W/mtZA2iJYR80yVgB4CKHaAACYqyF1dceOHYYp+pVXXnFycvroo49EKZpevlP7Z599pmmn1/2Ojo60o7oxKyuLNqYAwB7WJUV7eXmFhISEhYXRMJYtW8Yap0yZ0qtXr4iIiJ49ewYHB1+/fp219+/f39PT88kaNAA6L9YeHR1NGw8bNszZ2Zn3k56eTv3TWtq4T58+x48fZ+3Z2dlBQUHe3t7h4eEeHh5JSUmsnaNdPvnkE/6Q9mUHUsRjU9u2bVv79u1pMM899xxNyLPPPkvL1LJmzRq2gWhgohOhdjs7Oxo275+6nTx5Ml+7ceNGtjx9+nRaxZ8Dog4lA2AzTKOl5fPnz7N2w7OWzJJoSPQM8fX19ff3p/G4ubnt2rWL765meIEkV9/wWJJ+2PYFBQU+Pj4JCQlsY8Nz1BCNQTSfZPXq1S4uLmx7epJ//PHHvKu6D2PBggWsB7qIfAA0mYp4SjVDPXnypGiQoicJW2U4t6L2B9WQmlZv2iJYR80yVgB4CKHaAACYqyF11TBFUzamlnfeeefgwYNsrT5Fk5dffpnSwtixY//0pz8dO3aMNR4+fJi2P3HixP3bKp06dVqxYgVbrkuKrq6uZgvbt2/v3r07W75Yc9vw7t27UVFR8+fPZw9FsY3aaZndm92/f7+Dg0Nubi71HBAQMG/ePLbxzJkzBw4ceM+GcntMTAy70UeblZSU8D4Z0YEU8di4O3fuUFZhGYOuBc0SC06pqakdOnSgQYoGpghOhLXTmGNjY9kuI0aMCA0N1adouiju7u5dunRRp2h9h/IBsK7oLEaOHPnWW2+xbQzPWjJLhkOiQ4SFhS1atIhtk5ycTKvUd7MZ0QUSHc7wWPJ+aPvCwkI/P7/FixfzDg3PUcNwDJL5JPS/JM0kWx40aJAmRT/oMAYPHqwegGRKNUOVDNLwScI2E82tqP1BNaSm1RtSNABYGqoNAIC5GlJX9SmaXjR369Zt6NCh9GJdnqIV26tzSiN9+/albV544QV6RU6vtmk5Pz9fs+UTTzzxxz/+kS3rU3RFRcXVGjxmpKenf/7555GRkTwl0qo9e/bQucTHx48bN476Ye2GGYa1L1myhLdTVlmzZg27MV5UVMQaKRiwAZ89e5YW1G+Q1qMOKdik1/D09OT5UDQ27uTJk/b29pRCFd3noj08PL788kvRwBTBibD29957r0ePHqWlpcePH6eHc+fO1aRouo7BwcGJiYm0mTpF6zuUDyAhIYFOOSkpydvbe+fOnWwbw7OWzJLhkM6dO0cHomdORg1XV9dDhw6xXTjRBZJcff2xFGk/K1eu9Pf3nzZtmrrd8Bw1DMcgmU+ydOlS3pUmRddjGJoULZlSzVAlgzR8krBl0dyK2h9UQ2pavSFFA4ClodoAAJirIXVVn6L//Oc/08Pf/e53tBclZLaWstm3336r2k+LOm/Xrt3f/va3nJwc2j4tLU29tqqqqm3btp9++il7qE/RmzZtal+D3wGeP3/+qFGjevfuzd8jOnbs2AEDBsTFxa1atWrSpEmUHFi7YYZh7evWrePtY8aMWbhwYWpqKg2VN7JA+91331HkULcbog4DAwNH13BxceH5UDQ2LiUlpVOnTmxZk6IDAgL+8pe/iAamCE6EtdOJz5o1i7L09OnTP/zwQ32KXrt27ZAhQyiDaVK0vkP5AAidcmhoKJ0mf6+B4VlLZslwSDTz9vb2fHvmwIEDNQP5B9EFklx9/bEUaT+Ojo6RkZG0pfrr0w3PUcNwDJL5JHPmzHnllVfYsiZF12MYmhQtmVLNUCWDNHySsGXR3IraH1RDalq9IUUDgKWh2gAAmKshdVWfolevXs1aNN555x3VfgYoObA7V5R7f//736tXrV+/noIBv981WpeiJU6ePOng4FBcXJybm0vBgH+71aJFi+qSovmbWslTTz31/vvvs1uRBQUFrDEzM5M9zMvLowXNtyhpiA4kGRt3+vRpOzs79mVLmhT92GOPffXVV6KBKYITYe00HurZ19fX09OzrKxMk6Lparq5uWVkZNBDTYrWdygfAP+3DLrKYWFhivisRbPEVumHxGa+1l9FEl0g0eEMj6VI+6FkSwvR0dETJkxgjaJz1DAcg2Q+SUhIyPLly9myJkXXYxiaFC2ZUs1QJYM0fJKwZdHcitofVENqWr0hRQOApaHaAACYq351dfv27ePHjw8NDW1jM96GXnZfvHjxf2qsWrWKrd2yZcuFCxfUu1+7dm3p0qU//vgje/jZZ5+1bduW/Qr01q1bKTP/9a9/Ze/NPnjwoIeHB/8krWJL0TNmzOBv4Sb8U9AMhUz+rcK7d++mFE35kAbQpuYT15Q/3d3d65Ki6XU8yxLU4uTkRPGARkWhhQZAC3TciRMnDh8+nO04cuTIqKgo9iXDlFgM3/RreCDJ2Dg6Vu/evf/85z/TMs0nbf/uu+8qtoF17tz55s2bkoEZnghrZ+NZsGDBBx98QAuaFN2tWzcWyRRditZ3KB8AS9FVVVXTpk0bOnSoIj5r0SyxVYZDioiIoMTIfpacjr5v3z7NU4IxvECiw4mOpYj7YedYUlLi5eW1fv16RXyOGoZjkMzn3r176f8R/lFn/eeilQcchiZFK+Ip1QxVMkjDJwlfZTi3ovYHVb+a1kBI0QBgaag2AADmql9dpQzMErJaZmamehvJ56KLi4vp1Xa7du3c3NweffTRTp06vf3223zthg0bPD09u3TpQi+p7ezsli1bxhI1Qyn6/sNqv43s3Llz1Ge/fv38/f27du3KAwZFRGdn54CAAB8fn9dff70uKXr27Nne3t60vYuLS2JiItvg9OnTgYGBjz/+OHVOEeLs2bOsPT8/Pzw8vEOHDn5+fjR49o8CaqIDKeKxqVGScXV19fX1nTRpEp01JRZapoFt3ryZbSAamOhENONRdCmauuLvkNekaMMOJQOgzWjwFPjpuvMvkzM8a8ksiYZEOXbMmDE083379qVDBAUFaX4XijG8QKLDiY6liPvh99tTUlJoGOyryA3PUUM0BsP5TE5OtrdxrdG2bVs6xBdffMG6qscw9ClaNKX654zhINmWhk8StspwbkXtTFnh1dwPdlRev8lbROpX0xoIKRoALA3VBgDAXM1YV8vKynJycvLy8tiXZqlRbKYwnJaW1r17d/4NwHVHr/ip59zcXE2aKioqys7ONrxRqccCQ0VFBeWEmze1r90pZuj/dUCx/QNBVlaW/juia1WXsZWXlxcUFPB3dP/444/sbqGafmDyE6kHeYf6AUjU5azrqLS0NDMzU/1hYEP1vkAade+ngeeomc+tW7fGxMSo1v9s8uTJ/N8aROoxjDpOqaIbpFLbk6R+ilKP/L3rswd/919X045q16k0S01DigYAS0O1AQAwl8Xr6smTJ3/7299+//332hWNT3/bzSI0n4uuleknYnqHUHd79+6Nj4/XNMbFxfEfVLeIRnqSXN51YIvD0M32g78MeDF7xUbDW9PNUtOQogHA0lBtAADMhboqEhsbm5KSom21gKqqqsjISP3nrkVMPxHTO4TWp/GeJCxIb3UevtP/xW0dw/W3ppulpiFFA4ClodoAAJgLdRUAWhYWpKk60d8XvZ9P7hGpvjXdLDUNKRoALA3VBgDAXLXWVfzhD3/4s/jfVpfh9N9tnSIKdx3YVFtNa4zXikjRAGBpqDYAAOZCXQWAlqUo9ciOR5/Z3in8HynabvC2TuHf//5PuBcNAGAM1QYAwFyoqwDQgrAIzW4+b7IP2z3g5YLP0tQbNEtNQ4oGAEtDtQEAMBfqKgC0FBShtzqzN2//8+azRrPUNKRoALA0VBsAAHOhrgJAi/Dz70U/+sz/hMVobj5rNEtNQ4oGAEtDtQEAMBfqKgBYX1nh1dwPdhjefNZolpqGFA0AloZqAwBgLtRVAGhNmqWmIUUDgKWh2gAAmAt1FQBak2apaUjRAGBpqDYAAOZCXQWA1qRZahpSNABYGqoNAIC5UFcBoDVplpqGFA0AloZqAwBgLtRVAGhNmqWmIUUDgKWh2gAAmAt1FQBak2apaUjRAGBpqDYAAOZCXQWA1qRZahpSNABYGqoNAIC5UFcBoDVplpqGFA0AloZqAwBgLtRVAGhNmqWmIUUDgKWh2gAAmKsx6mpZWdk333yzcuXKeBv1qs8++4w1cgcPHlRvwGzYsIGtXbp06fr1669fv67dAsAaYmNj09LSysvLo6KiLl26pF0NTa4xalqtkKIBwNJQbQAAzNUYdfWNN95oo6JeNXnyZPUq8s4776g3YEaPHt2/f//Zs2fPmDEjJCTE1dX19OnT2o0ALODYsWODBg3q2bPnggULtOugOTRGTasVUjQAWBqqDQCAuRqjriYlJdEuixcvZjlZvYql6Hnz5u2ocebMGfUGDKXo1157jS3fu3cvMDCQkjlfW1lZmZGRcfTo0aqqKt5YXFx86NCh1NTUy5cv88YrV65cvHjx0qVLt27d4o2s/aeffrp27VpKSkpeXp56FT2kTk6dOnX37l3eyLZnyzdu3Lh58yZbLi0tvXr1Kt/McF9SXV195MiRgwcP0vashTq5qKM+HY66ysnJoW5pA9bCTkqtvLyctZeVlbFtKioqqJ3+K+lHEcykup/bt28b3l8VjUER9KnYulJvz+dTcjj9fMrnTT/Pim6ofGPDcYqeGKK5FbVr1HEz/TWiZ7XmjRgFBQU01dRhYWEhb6QdaReaHPZQvrbVa4yaViukaACwNFQbAABzNV5dpYQsStELFizYuHHjt99+a5gbFV2K7t+/Pw2DPUxPT/fy8qKWJ598sk+fPsePH2ft1BgSEhIWFubk5LRs2TLWSJt5enrSlu3bt6fl8+fP8/bo6OiePXsOGzbM2dmZbz9lypRevXpFRETQquDgYB5gaPtPPvmELdOOPNK/8847NFT5vllZWb6+vv7+/nQsNze3Xbt2USPNwJM2dHQ2QkJbsl247OzsoKAgb2/v8PBwDw+PpKQkRXVSjKOjI001a6dZZTtOnz6d5plfNcN+RDPJ+6HA5uPjk5CQwNrVRGMQ9UlWr17t4uLCtqdr9PHHH/OuDA9nOJ+SeTOcZ9a/eqgnT55UxOMUPTFEcytq16jLZobXiJ51NDz6X4Btc+zYMQcHBwrJ1KGdnR3twtq3bdtGfdL/XOyhfG2r13g1TQIpGgAsDdUGAMBcjVdXJSmao9hDwUC9AUPRlBIFBek5c+YMHTp01KhRRUVFiu1mY0BAwLx589hmM2fOHDhwIMsYtIo1bt++vXv37myZp5c7d+6MHDnyrbfe4u0UTtjduf3791Myyc3NpWV+D/Du3btRUVHz58/n29eaog33pbFRsF+0aBFblZyc7O7uzm/DksGDB/OeNWjfkJCQmJgYdieWTrCkpES5fzCETkSTog8fPkxH6dKlC7tqhv1IZpL1U1hY6Ofnt3jxYn4gNcMxSPok9CyiS8CWBw0apEnR+sMZzienmTfJPGuGqkifRaInhmhuRe0atW5meI0U243rxx57jG88a9asF198UbF1SNvHxsay9hEjRoSGhqpTtGRtq9d4NU0CKRoALA3VBgDAXI1XVw1T9Ntvv00dbtq0aeXKlRQPaG1gYKB6A4ai6dNPP7106dKEhISpU6d6e3unpaUptvuNtAtL1IQSDj3Mz89nD9PT0z///PPIyEieHyhOUA/UnpSURJ3s3LmTty9ZsoQtK7ZQt2bNGsUWZvbs2UPnGx8fP27cOJ6Q65KiDfc9d+4cjZDyWEYNV1fXQ4cOsV0UXRpUO3v2LO2rfmsuY5hgWTtFNYphwcHBiYmJPXr0YFfNsB/JTFI/dHX8/f2nTZum3kXNcAySPgldTT5XmhRteDjD+eQ08yaZZ32KloxT9MQQza2oXaPWzQyvEfOf//mfEyZMoIWffvqJTmrv3r2KrcP33nuP+iktLT1+/Dg9nDt3rjpFS9a2eo1X0ySQogHA0lBtAADM1Xh11TBFq61du5ZtoP/Epvod3eTNN9988sknaSE1NbVdu3a8vby8nHb/7rvv2MP58+ePGjWqd+/e/N2z/W2ot9DQ0AEDBpw4cYK3r1u3ji2TMWPGLFy4kBbGjh1Lm8XFxa1atWrSpEkU1fj2taZow30p19nb24++34EDB9guii4NqtG+6pPlNLFQk6JpVocMGUIRlEc1w34kM0n9ODo6RkZGUg/6S8MYjkHSJ5kzZ84rr7zCljUp2vBwhvPJaeZNMs+aoSq1nbvhE0M0t6J2jVo3M7xGDIX8Rx555MqVKx999JGvry+/Z04nNWvWLErL06dP//DDDzUpWrK21Wu8miYhLHNyzTJWAHgIodoAAJir8eqqYYpWf/Q3ISGBbaD/IavR96doCgMdO3ZUam7ZFRQUsPbMzEz1Q+bkyZMODg7FxcVKTXph7UuWLAkLC2PL1M7f/Uueeuqp999/n+IKJTH+PWS0Qd1TtGjfvLw8GqHhF3QxkhTN9tV8+Zmii4XqFL169Wo3N7eMjAx6yKOaYT+SmaR+KPEqtjNld0H1DMcg6ZOEhIQsX76cLWtStP5wovnkNPMmmWd9ipaM0/CJwdoN51bUrlHrZobXiPvVr371pz/9iZ69/Avt2UmdPn2acrWnp2dZWZk+RYvWtnqNV9MkkKIBwNJQbQAAzNUYdXX79u3jx48PDQ1tYzPehiUcikbPPvvsvHnz/vVf/9XR0ZHWjho1Sru/LUXPmjWrtLT05s2bP/zwQ79+/caNG6fY3uVLAWzGjBm0UF1dPXHixOHDhyu224n8a5l3795NKZp9JTJP0VVVVdOmTRs6dCjbhtopybAhUfxzcnKiEHXhwgUaD7tffebMGXd397qnaMm+ERERFA5v376t2Ma/b98+/hFuRZcGNUaOHBkVFcXOhSIle8evYYJl7d26dWOJVLk/qun7Ec0k64dNWklJiZeX1/r161m7muEYJH3u3buXLjf/qLP+c9HK/YeTzCejnzfRPOtTtGSchk8M1m44t6J2jbpspr9GfFVycvJjjz32yCOP8C+E5ye1YMGCDz74gBb0KVq0ttVrjJpWK6RoALA0VBsAAHM1sK5WXr+Z+8GOssJ//tqTYvsELMvPapmZmbTqueeeozDAWtq1azd16lT9jWjFlqLZNnZ2dhQ/aDOeH06fPh0YGPj444937dqVstDZs2cV28diH330UQrb/v7+1K5OaC4uLq6urp07d6akxL/JrL/tx6i9vb19fHxog8TERNZOYcPZ2TkgIIDaX3/9dXWKZv0Qiuh0CmyZUhadxauvvirZl+LQmDFjOnTo0LdvXxpGUFCQ+pvJ9WlQLT8/Pzw8nPb18/Pr0qXL119/rehioTpF07Swb6VS7o9qhv0YziTrh9/AT0lJoTHz7zbnRGMw7JNCoL0NmzTStm1bmqsvvviCdWV4ONF8Mvp5E82zPkUrgnEq4ieGaG5F7Rp12czwGjEU9T09PV966SXeoj8pwxRtuLbVa2BNqx+kaACwNFQbAABz1buuXk07evB3//X3rs8WpR7RrJKrrKzMy8s7c+YMLWjX1RlFJvXvQiu2u805OTm5ubmiX89SYzGjoqKC0hT/8WemqKgoOztbfbtYbteuXdHR0WxZsm9paWlmZqboY8ZyxcXFWVlZ6m/2rh/DfvQz2XCaPrdu3RoTE6Na/zMKdSx4S0jmU+SB5ll/7pInRtMwvEZ0Up06ddq/f7+6EUTqXdMaAikaACwN1QYAwFwPWlcrr9/MXrHxy4AXN9sP3vrIsKKU7+/fo2XQ36yrtwMHDqg/SQt6e/fujY+P1zTGxcWlpqZqGpudiU8Ms9D/etHR0Zpb8SDxoDXNFEjRAGBpqDYAAOaqe11lN5+3dQzf6f/iVudh25yHt9AITWJjY1NSUrSt8NCz4BPj+eefj4mJ0b+pHkTqXtO06xoAKRoALA3VBgDAXLXW1cXz3vzw+d9v9YpM7hH5ea/fUAv9tegIDQCtWK01LSEhITExkf0EvVmQogHA0lBtAADMVWtd/dsjQ39Ozo62/9r+tjgMzVz2ycm4D2mZ/kubYRnLWMaydZblf/RCccuWLT/88INiHqRoALA0VBsAAHPVWlf/OP3/fOI3blPbMP4adP9zryU9PvpBv1QMAKApJSQk/Nf9qIVeJf71r3+lF4rZ2dnaHRoAKRoALA3VBgDAXHWtq7u+OvXf65I8fs2C9O6BLyNIA4CVJSYm/r/7UcuWLVvoVeIPP/zAfhXcLEjRAGBpqDYAAOZ60Lp64/vMlIhZm9sN2WQ3eFv7EQjSAGBNaWlpVLg2THnjf2pQC+Xn7OxsitDm/pIZUjQAWBqqDQCAuepXV+9WVp3673V7np5ej9+LBgBoMvISZxakaACwNFQbAABzNbCuVl6/mfvBjrLCq9oVAAAWIC9xZkGKBgBLQ7UBADAX6ioAtGLyEmcWpGgAsDRUGwAAc6GuAkArJi9xZkGKBgBLQ7UBADAX6ioAtGLsd6QbG1I0AFgaqg0AgLlQVwEAGggpGgAsDdUGAMBcqKsAAA2EFA0AloZqAwBgLtRVAIAGQooGAEtDtQEAMBfqKgBAAyFFA4ClodoAAJgLdRUAWjF8uxgAAKoNAIDJUFcBoBWTlzizIEUDgKWh2gAAmKt+dbWsrOybb75ZuXJlvI16Fbl3796OHTv+7d/+LSYmZtGiRd9++61mA7WqqirqIS8vT7sCpH7zm99s2rRJ2woA95OXOLMgRQOApaHaAACYq3519Y033mijol5FAfuZZ55h7XZ2dvTf0aNHqzfg7ty589lnn82fP5+2+d3vfrdhw4aSkhLtRiDw9ttvp6WlaVsB4H7yEmcWpGgAsDRUGwAAc9WvriYlJVHj4sWL9SmaBexevXodPny4uro6Pz//q6++Um/AHDt2LCAgwMfHZ+bMmbT9iy++GBoa+thjj/3973/n21RWVmZkZBw9erSqqoo3Xrly5aeffrp27VpKSormDjatuKKWLgAAgABJREFUKiws5A/v3r178eLFGzdusFUU71l7RUUFtdN/+V6iDkUDoN0vXbp069Yt1bY/o91TU1NPnTpFh+aNrH/+8PLly+Xl5axdNCRCU3fkyJGDBw+WlpbyRrWioiLebU5Ozr59+3744Qf1OEWDp71KSkr2799/4cIF3g7QWslLnFmQogHA0lBtAADM1ZC6umPHDk2KvnfvXteuXanlb3/7W2ZmJkVldTJUb+br6/ub3/yGAh6lRNqeEiy1L1y40NnZmXImLaenp3t5efXv3//JJ5/s06fP8ePH2b7UEh0d3bNnz2HDhtHGy5Yt493SKjs7u+zsbPZw27Zt1PPkyZPZqo0bN7L26dOnUzs/I1GHkgF4enpSY/v27Wn5/PnzrH3KlCm9evWKiIigroKDg69fv863/+STT9gyoa5o3li7aEhZWVk0P/7+/jQkNze3Xbt28d25wYMHf/jhhxTXX3jhhe7duz/77LNBQUGjRo1iayWDp2NRC+3u5OS0Zs2af/YI0Brh28UAAFBtAABM1pC6qk/RFClZC0U4tkAhcOfOnaqdfnbq1ClaxT4vrU7RZWVl9vb2lMCrq6sDAgLmzZvHtp85c+bAgQMpeyu2HEghkN1h3r9/v4ODQ25uLtuMVoWEhMTGxrKHI0aMCA0N1aTow4cPu7u7d+nSRZ2i9R3KB8C6unPnzsiRI9966y22zcWLF9kCJduoqKj58+ezh7WmaM2Q6ChhYWGLFi1i2ycnJ9Na9d1shqXoY8eOUZjna2/evKnY7mNLBk9hm91F37ZtW8eOHdW3zQGgfpCiAcDSUG0AAMzVkLqqT9EnTpxgLT169Fi3bt2LL75Iy506dbp27ZpqP+X777+n9qNHjyr3p2iKf4888gjtmJWVRY1FRUVse4q19DA/P1+x5cAlS5bwrgYNGsRvqNKq9957jw5NfR4/fpwezp07V52iKTEGBwcnJibSNuoUre9QPoCEhIT09PSkpCRvb2/+bwQUU/fs2UNzFR8fP27cOP5pcNp+8eLF6TU8PT3VKVo/pHPnztGxKM9n1HB1dT106BDrjWMpmqK7o6Pj22+/nZOTw1fJB08jZO3/n717gc/hzPvHTyKRBI3QCG0IGiRFREmEsiXbll3Bj32sVvZx+CdKS556bXe16rBZkdq1W6zDw2pTq+1DnSpaVnWR2LQOTYk4RUgITYIQiUZzEub/7f1trp3OPXPl4M6dSfp5v7y85r5m5pprrrl9X/mYO3MXFBRQe3Z2ttgRAGoHKRoATA3VBgDAth6mrlqnaIpk3MIP7r59+za/1Pxq9HfffdeqVSvKlsqPU/Snn35KyxSAExMTmzVrJrYvKSmh9mPHjimWHEgxW6wKCwubP38+L/Nd31deeYWy9LRp0yhkalL02rVrBw4cSHFXk6KtO5QPgFBIDg4O7tu37+nTp3mbUaNG0cvo6OiVK1dOnDiRUi6308YBAQHDK7m5ualTtPWQKD87ODiI7dnhw4d/GEolTtG0sG/fvhEjRlC3Xbt23bJlC7XIBy9ujHP7xYsXxZYAUDtI0QBgaqg2AAC29TB11TpFE0qD1MIJOT8/nzc4cuSIehsSFxfn4uLy8ssvf/zxx7TBX//6VzoQRetXX32V1mZkZFBjTk4Ob5yWliZeUg4Un3YmvXv3XrduHS9zRDx37ly3bt28vb2Li4vVKXrVqlWenp4pKSmKZZDqFG3doXwA4veZFy9eHBISolju91L0Fc8bow7VKdroE926Q8rKympSjVvEIkWzsrIySu9OTk40BvngkaIBbA4pGgBMDdUGAMC2aldXd+zYMWbMmODgYA7JYyw4+C1dupRaHnvssTVr1owdO5aW/fz8dJ8xRnF35syZQUFBtA3l3kmTJh08eJBXPXjwoF+/ftOnT6eFioqKCRMmDBkyhFdRDqTAyceiOEpRXMRFERHnzZu3fv16WlCn6A4dOsyaNYu31KRo6w7lA+AUXV5eHhkZOWjQIFq+cuUKnQXfl6Zc6uXlVZ0UbTSk0NDQ8ePH3717V7FMBU0LjaGygx9wiqbILZ6m9uWXXzo6OhYVFckHjxQNPyl4uhgAAKoNAICN1a6uLlmyhPOzWlpammJJfa+//nrz5s25cfDgwSLm6VJ/oluNMnZAQEC7du3atm1LmTAjI4PbKQdS9vbx8fH19XVzc4uLixO7aPKq8uMUTV2J76PWpGjdDiUDoM3c3d1bt25N6TQ1NZXb6Viurq789V2zZ8+uToo2GlJubm5YWFjLli179OhBRwkMDFR/WxXjFE3J2cPDg58ZTgtr167ltZLBI0XDT4q8xNkKUjQAmBqqDQCAbdVRXb179y6F6oKCAu2KGqI8yV98JXAOLC0tpaDIj6R+SPIOrQcgkZeXl56ebn3fuHaKiopoDvnh4dYoWm/atEmxPJLt8uXLdFz+Gmq1Gg0eoFGSlzhbQYoGAFNDtQEAsK0GV1etbzg/JJt3WNcKCgo2bNjQvHnz8+fPa9cBwI/JS5ytIEUDgKmh2gAA2FaDq6tRUVHWH/9+GDbvsK6dPXv2hRde2Lp1q3YFAFiRlzhbQYoGAFNDtQEAsC3UVQBoxPB0MQAAVBsAABtDXQUAeEhI0QBgaqg2AAC2VWVdrd8/2gEBAJgPUjQAmBqqDQCAbZm5rsrHBgBgEkjRAGBqqDYAALZl5roqHxsAgEkgRQOAqaHaAADYlpnrqnxsAABVwtPFAABQbQAAbMzMdVU+NgCAKtmnjCBFA4CpodoAANiWmeuqfGwAAFWyTxlBigYAU0O1AQCwLTPXVfnYAACqZJ8yghQNAKaGagMAYFtmrqvysQEAVMk+ZQQpGgBMDdUGAMC2HrKuluXfyVy/szj3pnaFLcjHBgBQJTxdDAAA1QYAwMZqXVcz1mzfP/ilj9s+l5d4XLPKVuRjAwAwCaRoADA1VBsAANuqaV0tysj+Yuycrc2f/qhp8PYWz9RdhFaqGhsAgEkgRQOAqaHaAADYVvXrasaa7Z92GftR0wHU+M8e4+M9h9dphFaqGhsAgEkgRQOAqaHaAADYVpV1NfZ/fr8x4FcfOQ2iZf6zf2CEHSK0UtXYAABMAikaAEwN1QYAwLaqrKv1+0c7IACAmsDTxQAAUG0AAGysyrq6aM6b74x9eav3L3e2G76z7XMcbre3+Jkd7kUDADwkeYmzFaRoADA1VBsAANuqfl29mXTyyG/+sK3l0E86jd7iGIIgDQDmJy9xtoIUDQCmhmoDAGBbNa2rZfl30pdv3tP9v7Y4DNjWfDCCNACYmbzE2QpSNACYGqoNAIBt1bqu8q3pOv2+aACAhyQvcbaCFA0ApoZqAwBgWw9ZV8vy72Su31mce1O7AgDABPB0MQAAVBsAABtDXQUAeEhI0QBgaqg2AAC2hboKAPCQkKIBwNRQbQAAbAt1FQDgISFFA4CpodoAANgW6ioAwENCigYAU0O1AQCwLdRVAGjE8HQxAABUGwAAG0NdBYBGTF7ibAUpGgBMDdUGAMC2UFcBoBGTlzhbQYoGAFNDtQEAsC3UVQBoxOQlzlaQogHA1Oqo2hQXF3/xxRcrVqyIsRDthYWF3KLx4MED1d7f27RpE69asmTJxo0b8/PzNRv8FPy///f/PvroI20rANRQVFRUUlJSSUnJuHHjsrOztattrY7qKgCAGchLnK0gRQOAqdVRtXn99debqIj2y5cvq9uFiooK1d7fGz58eJ8+fWbOnDl9+vSgoCB3d/dz585ptmn03nrrLfrRX9sKADWUmprar1+/zp07z5s3T7uuDtRRXQUAMAM8XQwAoK6qTXx8PO21aNEiDsmi/bvvvtup0rdvX1o7bNgw1a4/oBT96quv8vKDBw8CAgIomYu1ZWVlKSkpJ0+eLC8vF40FBQVHjx5NTEy8du2aaLxx48Y333yTnZ397bffqhtpJLdu3UpISMjKyhLtjFqok7Nnz96/f1808i68fPv27Tt37vByUVHRzZs3xWa6+5KKiorjx48fOXKEtucW6uQbK+rTIXl5eeKg5MKFCwcPHjxx4oR6M92p4NEWFhYeOnToypUrol2DBkl90oDp0KJRt0MN3R15qtVKSkq4vbi4mLcpLS2ldvpb3o/Y/u7du+LOoe7AaOPc3FzxkjqkrmhuRYtQi4uuWI2QBqa+k0knSO28i+7wFMspqOdEfUF1d9F9x2pIplTN6IooBodWjEdrdFEUvamTv7et/y0oVkPljXUHKbmORtNi1F536qiuAgD8dCBFA4Cp1Wm1oZysSdFqlO6aNWtGa/fu3atdZ5Wi+/TpQyPhl8nJyZ06daKWnj17PvHEE6dOneJ2agwKCgoJCXFxcVm6dCk30mbe3t60ZYsWLWj58uXL3BgeHt65c+fBgwe7urqKjcmUKVO6dOkSGhpKa/v37y8+SU67fPDBB7xM+4pI/5e//IWGKt/3/Pnz3bp18/Pzo8N5enry+c6bN6+nBQ2AR0hoS96FDRgw4J13vv8fX8onv/rVrx577LHnnnsuMDDw+eef5w2MpoJapk2bRi3UA83G6tWrRZ9Ceno6deXj4zNs2LD27dvHx8crxh2q6e6oqKaaOTs70xuA2zdv3szb0KjoivPbSdIPb5+Tk+Pr6xsbG6sYD4xamjZtSl3xy+3bt1P/kydP5pdqtbjo1iMsKCigbZYvX84bjBo1auzYsYrx8MiqVavc3Nx4TuhabNiwgduNdtF9x2oYTamG0RUxOrRiPFrdi6IYTJ3kva37b4H7Vw/1zJkzRoOUXEejaTFqrzt1WlcBAH4K9H92rBLqLwDYR51WG3mKnj17Nq3q1auXdoUFRVMKMBSkZ82aNWjQIMqNeXl5iuVGlr+//5w5c3izGTNmPPXUU/xr1eJj4Tt27KDAycviB+h79+4NHTp04cKF3Eg/l/Mdy0OHDjk5OWVmZvL231TeFKXgOm7cuLlz54p+qkzRuvvS2CjYL1iwgFft2rXLy8tLfUOSgq7oWUOk6NTUVMpUYi++Ey6ZChotzR7fzKRg2apVK80tVtosKCgoIiKC26mrwsJCSYfyHXmVeooIzbAmRX/11Vd07h4eHvR2kvdD2+fm5nbv3n3RokW81mhgtDH1ExUVxaueeeaZ4OBgoxRdo4tuNMJjx47RtaBzefvttynLUa6WDI/QPx964/Fyv379OJdKdtF9x2roTql2I4MrIjm0YjBaRe+iMN2pEzTvbcm/Bc1QJYOUXEejaTFqrzt1WlcBAH4K9H92rBLqLwDYR51WG0mKpuzRsmVLWrVx40btOguKpk8//fSSJUtiY2OnTp3q4+PDvyF8/vx52osTNaEfoOnl1atX+WVycvKnn346cuRIEavoB2jqgdrj4+Opkz179nDj4sWLeQPFkhbE3Vr6SX3//v10yjExMaNHjxYJWf1TvlGK1t330qVLNEL6cT+lkru7+9GjR3kXxSppqIkUTVnF2dn5rbfeunDhglgrmQoaLQ2D22mqqV3zRKWMjAxqVH8WWpF2KOjuyHQzG7dThqGU1b9//7i4uMcff5zeTvJ+VqxY4efnFxkZyS2SgdHGa9asoT6LiopOnTpFL1977TWjFF2jiy4Z4bJly+iIlKUpUSvS4RF6D4t3iMilkl1037EaulOq3cjgikgOrRiMVtG7KEx36gTNe1vyb0EzVMkgJdfRaFqM2utOndZVAICfAp2fHasD9RcA7KNOq40kRdMP69ROP84a/fKt+hPd5M033+zZsyctJCYmNmvWTLSXlJRQPxxmyNy5c59//vmuXbuKD3D2saDegoOD+/bte/r0aW589913RSdhYWHz58/n5VGjRtFm0dHRK1eunDhxIsUA0U+VKVp3X8oMDg4Ow3/s8OHDvItilTTURIom+/btGzFihJubG53dli1bFOlUqEfL7RcvXhRbKpZRqfdlkg4F3R2Zbmbjdroca9euHThwIIUuzjDyfpydnUeOHElb8i1HycD4oK+88gpl6WnTptF0SVJ0jS66ZITZ2dk0wsGDB/NLyfDIrFmzJk2axMsil0p20X3HauhOqXYjgysiObRiMFpF76Iw3akTNO9tyb8FzVAlg5RcR6NpMWqvO3VaVwEA6heeLgYAULfVxihFl5WVdejQgdopgmpWCcN/nKIpI7Vq1UqpvEOYk5PD7WlpaeqX7MyZM05OTgUFBUrlD9Dcvnjx4pCQEG4UHyslvXv3XrdunWK55UU/5YunOtE21U/RRvtmZWU1sboVrFbNFM1o6iiu0NnRgSRToR6tbormUWkeziTpUNDdkelmNm5ftWqVp6dnSkoKveQMI++Hspximefx48cr0oHxQc+dO9etWzdvb+/i4mJJiq7RRTcaYUVFxTPPPEOJsWPHjvS2VKTDI0FBQcuWLeNlkUslu+i+YzV0p1S7kcEVkRxaMRitondRFOOpEzTvbcm/Bc1QJYM0uo68SndajNrrTp3WVQCA+iUvcbai/dmxmuSDQ/0FAFupo2qzY8eOMWPGBAcHN7EYYyF+en7vvfeo8ZFHHhFPurZG0fSVV14pKiqibU6cONGrV6/Ro0crlk+Q0g/306dPpwXKMxMmTBgyZIhiyYrikb/79u2jnMlP5RWZpLy8PDIyctCgQdxIP0nzeChXuLi48A/oV65coYHx3T+KnV5eXtVP0ZJ9Q0NDKXjcvXtXsYz/4MGD4le4FaukoSZSNMUP8QCtL7/80tHRkU7WaCqUH49WN0WToUOHjhs3jmeJglBubq6kQzXrHbldN7Nxe4cOHTiDKaoMI+mHL1lhYWGnTp02btwoGZg46Lx589avX08LkhRd04uuO8L58+fTu5G/Eb1FixYnT56UDO/AgQPOzs7il4dFLpXsovuO1TCaUg3dKyI5tNFoFb2Lokinjlm/t43+LWiGKhmk0XXkVbrTYtRed+qorgIAmIG8xNkKUjQAmFodVRv+wLZGWlqaYvn5uGfPnvTy97//vXY3FYqmvFfTpk3pJ+CpU6eKL5Q6d+5cQEBAu3bt2rZtSz9qZ2RkKJZfuWzTpg3FGz8/P2pX//Tv5ubm7u7eunVr+kE8NTWVG2fOnOnj4+Pr60tr4+LifjiqJYO5urr6+/vTqtmzZ6tTNPdDKKI3b96cl+mH+GbNmr300kuSfSl9hYWFtWzZskePHjSMwMBA9efYrZOGIFI0JWcPDw9+iDEtrF27ljfQnQrlx5nEKEVfvXp12LBhNKru3btTn59//rli3KGa7o6KVRBSp2jqUDw8TGQYST/iZmxCQgLN2OXLl40GpjmoIk3RNb3o1iPcv39/q1atxFeXx8bG0jUtKirSHd6uXbscLPitQhwdHelAu3fvVoynWvcdq2E0pRpGV0T30PLR6l4UxXjqmPV72+jfgvV11B0kb2l0HY2mxai97tRRXQUAMAN5ibMVpGgAMLWHrDZl+Xcy1+8szv3PFybbDf04rv5eaMVy7+7ChQuZmZlGv2st8I/spaWl9JO69f3wvLy89PR09e1iub1794aHh/OyZF/KWmlpabpfZWyEMsamTZt4mfqk3EKdi6/8FaynovoKCgrOnz+vfma4Ur0OdXeshRr1U52BGan1Ra/+CDXD27ZtW0REhGr99yjhc5RlD3NGD6kWo9UlmToj1f+3YD0/8utoEg9ZVwEAzExe4mwFKRoATK3W1eZm0smE56J2tA7NSzyuWWV+1je+Hsbhw4fVv6hpE5TcNmzY0Lx5c803SEOt2faiV8eBAwdiYmI0jdHR0YmJiZpGM2goo7X/dayFWtdVAADzw9PFAABqXG3K8u+cXfxevNcIWrXV+emGGKFJVFRUQkKCttVMzp49+8ILL2zdulW7AmrL/BcdqqNBXMea1lUAANBAigYAU6t+teGbz1ucn/7IcSC1b2/xswYaoQEA6lT166p2HQAAWCBFA4CpVVltFs15892R07Z4hG6l/NwkmP8gQgMAGKmyrsbGxsbFxSUlJWnXAQCABVI0AJhaldXm/1y+D89bLH/zny1NB6S+ufZM9Du0zL8bg2UsYxnLWFYvy//Qj3Bbt249ceKEAgAAepCiAcDUqqw2i+a8+c7Yl7d1Grnr8ZF7fMfxj4BbHEOubkH9AQCQiY2N/cP4/+8PKtRCP7+9//779COc+BJ4AIAGhP/HsK4hRQOAqVW/2txMOnnkN3/Y/siwf/pP2O72MwRpAAC5uLi4mDbf33kWqGXr1q1UUU+cOJGdna3dAQDA9OQ/OtoKUjQAmFpNq01Z/p305Zv/6f/rLQ4DtjYbhCANAGAkKSnpb05P/UuFWig/p6enU4Q27fddAwBIyH90tBWkaAAwtVpXG741/XGbZ/GYMQAAI/IaCwDQ4NinrCFFA4CpPWS1Kcu/k7l+Z3HuTe0KAACoqsYCADQ49ilrSNEAYGqoNgAAdcc+j+EBALAb+5Q1pGgAMDVUGwAAAAAwFaRoADA1VBsAAAAAMBWkaAAwNVQbAAAAADAVpGgAMDVUGwAAAAAwFaRoADA1VBsAgLpjn8fwAADYjX3KGlI0AJgaqg0AQN2R11gAgAbHPmUNKboGysrKtE0AUMd+mtUGAMA+5DUWAKDBsU9ZM1eKLi4u/uKLL1asWBFjoV714MGDzz777He/+93kyZN/+9vf7t69m1rUGwj37t378MMPp0+fPnXq1OXLlxcUFGi3qImdO3c+++yzXl5eTk5Os2bN0q4GgDpWR9UGAACUqmosAECDY5+yZq4U/frrrzdRUa+aM2cON7Zp04YX/ud//ke9ASssLAwODu7WrVtsbCyl8Z/97GcdOnQ4e/asdrvqWb16dfv27Tdv3nzjxo379+9rVwNA3aujagMAAEpVNRYAoMGxT1kzV4qOj4+nvRYtWmSdojk8R0dH0/Kf//xnWm7RooX17eiIiAiK0N9++y2/pA3Gjh3bq1cvWrh9+/Y3VsrLy3nLsrKylJSUkydPipaioiI6RHJy8nGL0tJSbicUqr/77rtbt24lJCRkZWWJdkIvExMTKbeL1F1RUUEHEp8Gv3nzJvXMy3fu3Ll+/TovK3r7MuqBBnDkyBGxo/xcGA2yuLiYl+/evZudnS1WWR9I3qH1ABRL/7obW88kb6w7Y+pB0gxTPzzPRu0a1dyMTvPChQt0yrSBaNSMn5SUlHC7pE/droxO2Wj+BaNpUfSuEdMMgA6h7plOgdrFLroDUyzjUZ84jUGs0t2F54oOJP5l2VMdVRsAAFDs9RgeAAC7sU9ZM1eKZjt37rRO0b6+vtSycuVKWl6/fj0te3t7qzdQLNnA2dn5vffeUzeeP3+eNqbUMW/evJ4Wrq6utC8v01rahqJyp06d+vTpQy1PPPHEqVOnqDEpKYm27Nq165NPPhkYGEi7HDt2jPukLcPDwzt37jx48GDaZunSpdw+ZcqULl26hIaG0qr+/fvn5+crliQ/derUESNGcCwZPnz48uXLaeHy5csdO3bcvHmzZF/FMv5u3br5+fnRsTw9Pffu3UuNknMRaJDceU5ODs1ebGwst+seSNKh7gC4f7ElOXPmjGIwk7yx7oyJQZJp06bRleL3jFG7RnU2S09Pp8vn4+MzbNiw9u3bx8fHc7tm/PTOoTcetxv1qduV5JR151/NaFp0r5GiN4CCggLaht9RZNSoUWPHjuVlo4GRVatWubm58Ym7uLhs2LBBvouYqxYtWtAyvXUre7KHOq02AAAAAAA11WBS9JdfftmjRw8nJ6ennnqKAg/9iE/BWL0B+eqrr2iv06dPa9ofeeQRETPIgAEDPvjgA/GyoqLC399/zpw5/HLGjBl0CIq+NHjq7aWXXuL2N954g8LkvXv3FEuooAHcvn2blg8dOkSjyszMpGVxf/L+/fvjxo2bO3cuv6RD0MsJEyZQO6fo69evU29///vfeQOjfWkYISEhCxYs4FW7du3y8vJS3znUnIsap7jc3Nzu3bsvWrRItOseSNB0KBkA9a85tNFM8sa6MyaiJl076tnDw0OTojXtGlVuRkcPCgqKiIjg27M0wsLCQrGvevw0PE2K1vSp25X8lHXnX81oWnSvke4AaOHYsWMUbmm0b7/9NiVqfhCAZGCE/m0OHTqUl/v168cpWrKLmBN6/9OOCxcu5G3so06rDQAAAABATTWYFL1p0yZPT8/mzZv37dvXxcWlTZs277//vnoDxZJDaK+rV69q2jt27Ki+E6gJinyzOi8vj19SjOFOuLcLFy5we35+Pr3ku3MUKhYvXix6oByyevVqxZJz9u/fTyceExMzevRoCsxim9LS0h49ekyfPp0aaXKoh6ioKLFWMdj30qVLdFAaSUold3f3o0ePir3kKXrFihV+fn6RkZHqdt0DCZoOJQOwTtFGM8kb684YxzOKhf3794+Li3v88cfVKdq6XaPKzTIyMmgMFGXVjUyeoq371O1Kfsq6869mNC2610h3AGzZsmU0TsrS4uMSkoGRJUuWiOsuUrRkFxon/QtKTk6Oj4/38fHZs2cPb2MfdVptAAAAAABqqmGk6IKCAkrO1PLJJ5/Qy39Z7hI7OzuLn/gZJV5qT0pKUjeWl5c7Ojr+4x//EC2aoJiYmNisWTPxsqSkhDqhNHL8+HFauHv3rlhFY9i3b59iCRXvvvuuaA8LC5s/f75i+Twthfzo6OiVK1dOnDiRDiS2oVG1bds2ODjY2YIyDKUR9W+Z6u5L8dXBwWH4jx0+fFjsJU/RdKCRI0dSvuK7nUz3QIKmQ8kArFO00UwqxjPGkXXt2rUDBw6k6KhJ0dbtGlVuRuNXD0lNnqKt+9TtSn7KuvOvZjQtutdIdwAsOzubjjV48GDRIhkYmTVr1qRJk3hZpGjJLn0s6NLTG5gGZv1xjzpVp9UGAAAAAKCmGkaK5rtkhJ+2zXfJSGpq6n92s+jatevLL7+sbtm4cSNlA/ERWcUqKPItvpycHH6ZlpbGLwsLC8URybVr18RLShTiQ86kd+/e69ato1FR4BTBmDYQAbW4uLhbt250UEpTXbp0eeGFF6jxxRdfnD59Om9gtG9WVhYdVPfBVEyeovmrucLDw8ePH8+NRgcSNB1KBmCdoo1mkje2njFuX7VqlaenZ0pKCr1Up2jddo0qN+Pxax7cxSQpWrdP3a7kp2w9/xq602J0jXQHoFg+if3MM89Q2O7YseOaNWu4UTIwEhQUtGzZMl4WKVqyS5/KT3STxYsXh4SE8LJ91Gm1AQD4ibPPY3gAAOzGPmXNXCl6x44dY8aMCQ4ObmIxxoIi3L1799q1a0ctw4YNW79+/fPPP9/E8pVX1g9k3rZtm7Oz8/vvv8+/z3nkyJH27du/9tpr6m00QZG2pCBBgZYWKJBMmDBhyJAhvGr48OGUdamRVk2bNo2yBP9KKi1QuOJsSdHLxcWFwsaVK1eaVP5W9sWLF728vERAffXVV0ePHi365F/SvnXrFo2Np0iyb2hoKGUwviVOwzh48CCNh1cpVueiJpJPYWFhp06dNm7cqEgPxKw7NBqAdYqWzKTujHF7hw4dxBdxq1O0brtGdTYbOnTouHHj+HHZFE3FJ6IlKdqoT+uu5KdsPf8autMiuUbWA6CF+fPn9+rVi79rvUWLFidPnlSk1+LAgQP0b0T8v5JI0ZJdxLmUl5dHRkYOGjSI2+2jjqoNAAAoVdVYAIAGxz5lzVwpesmSJZyf1dLS0hTL08V69+4tGp988knrp4uxTZs2eXt7e3h4UBZq2bLlwoULNd8VZB0Uz507FxAQQEG9bdu2FCQyMjK4PSsriyI9NdKqnpWPoVYsoWLmzJk+Pj6+vr5ubm5xcXHcTnHd1dXV39+f2mfPns3hJykp6dFHH7127RpvI1I0+fjjj8XnunX3JZSUwsLC6ER69OjRunXrwMBA9VcQWZ+LoL5/mJCQQPvyo5WNDsSsOzQagHWKVoxn0mjGqJ02Fk/8Uqdo3XaN6mx29erVYcOG0fi7d+9O74rPP/+c2yUp2qhP3a4kp6w7/2pG02J0jawHsH///latWtEYeIPY2Fi6TPyFZLoD27Vrl4OFeyVHR0c61u7du412USzjpOHRxnQWFK2tPwNSp+qo2gAAgFJVjQUAaHDsU9bqJ0WX5d/JXL+zOPemdkVVbt26RaH65s0qdnzw4MGlS5fOnz8vvqW5Oiguiqyrdv36dfExV8YBrLS0lFLHnTt31Kvy8vLS09PVt4urT7Iv5SI6caNfr60pyYGM1GgA1jMpmTH7KCgooPeD+vHmtabblfUpV4dkWiTXSHcARjQD27ZtW0REhGr99yZPnsz/g8Bqdy515yGrDQAASMhrLABAg2OfsmbvFH0z6eSXv35zh3toXuJxzaoGRPc2LEhgxnTZf1oOHDgQExOjaYyOjjb6ZIcZ1LraAABAleQ1FgCgwbFPWbNTii7Lv5O+fPOnncd81DR4i2NI7p4vf7xHAxMVFZWQkKBtBWOYMV2YluqoabUBAIDqs89jeAAA7MY+Za3OUzTffN7m+rMd7qHUvtVpYEOP0ABgT9WvNtp1AAAAAAB1oK5S9KI5b74z9uWt7YdTeN7abBC1IEIDQC1UWW1iY2Pj4uI0XxQPAAAAAFBH6ipF/5/L098nZ6eBnJ/5z/Got89Ev0MLfJ8dy1jGMparXP5IVUN0//ztb3/bunXriRMnFAAAAACAuldXKZrvRW/rODK+wy8/6TiKf9jd4jDg8sY92q0BAKohNjb2Dz9GLRSh33///X/961/p6enaHQAAAAAA6kBdpWj170Uf+c0ftrcaurvbr7Y6D0KQBoDaiYuLo6qydFzk3ypRy9atW6nOnDhxIjs7W7sDAABUhT/+AwDQaNinrNV5iuYWfkb3Hr9fU4re4jgQQRoAaiopKYlKyt+cnvpXJWqh/Jyenk4Rul6+hxwAoKGT/0QHANDg2Kes2SlFC3xreofHzxv090UDQH2RFx8AAKgRFFUAaGTsU9bsnaJZWf6dzPU7i3NvalcAAEjJiw8AANQIiioANDL2KWv1k6IBAGpHXnwAAKBGUFQBoJGxT1lDigaAhsQ+T4wAAPiJQFEFgEbGPmUNKRoAAAAAAACgupCiAQAAAAAAAKoLKRoAAAAAAACgupCiAQAAAAAAAKoLKRoAGhL7PDECAOAnAkUVABoZ+5Q1pGgAaEjkxQcAAGoERRUAGhn7lDV7p+ji4uIvvvhixYoVMRaatUePHp0/f35ERMSf/vSnvLw8zVq2adMm3lft0KFD2u0AoDGSFx8AAKgRFFUAaGTsU9bsnaJff/31JirqVUuXLm3atCk1urm50d/t2rW7cOGCegM2fPjwnj17Rqh4enrS4bTbAUBjJC8+AABQIyiqANDI2Kes2TtFx8fHU/uiRYs0KfratWvNmjWjlp07d96/f3/cuHG0/Mtf/lK16w8oRb/66qvqlgEDBqhTdFlZWUpKysmTJ8vLy/+zkaIUFBR8o0KbUeONGze+++479WaMNj569GhiYiINTN2u2zl1Qh1mZ2d/++23qm2VrKws6uHs2bN0Rtxy+/Zt9RiY6KqiouL48eNHjhwpKir6Ty81HLmaZhs6l5KSEl62HhsdXXRObt68KYZx586d69ev8zL1WVxczMulpaW0C/0tVuXm5vIyoZ5pLZ0yv7Q+IrM+a/ksCeqR3L17l+ZftBudteTyqYntdQ9BlyM/P1/sTnJycsQuTNKnYjAMxXII9S7iLHSHwaxnVTJ71lOtWA1VDEl3kDy3t27dSkhIoEOr2yXvCqNVtSMvPgAAUCMoqgDQyNinrNk7RTOKypoUvW/fPm6hwEYvV69eTcsODg6aPKlUlaKTk5M7derUp0+fnj17PvHEE6dOnRKbzZw508PDo6cF9ZyUlESNtOUHH3wgthGok6CgoJCQEBcXl6VLl3KjUefU4u3tTY0tWrSg5cuXL1PjlClTunTpEhoa2rlz5/79+3PumjdvHg/A1dWVdyHnz5+nVfR3t27d/Pz8Bg8e7OnpuXfvXu5cqeHI1TTb0Jhp5hWDsT148GDq1KkjRozg1ETzvHz5clqg0+nYsePmzZtFn2J52rRpdJnEVaZVTZs2TU9P55fbt2+ntZMnT1YMjqgYnLVkltTESCjE+vr6xsbGinbds67y8jFnZ2fenldZH4I6p91punib1NRUJycnyor8Uuxo1KfRMMiqVavc3Nx4F3rjbdiwQfRmPQzFYFaNZk93qrlz9VDPnDmjGA+SWsLDw+lw1An1L/5pyN8VRqtqxz5PjAAA+IlAUQWARsY+Zc0sKfrEiRPc8sUXXyiVP20TdcZgkhRdUVHh7+8/Z84cbp8xY8ZTTz0l0s7LL79MLbzs7u4uz6LUFS/s2LHjscce4xajzkVOuHfv3tChQxcuXEjL33zzDW/Jt9bnzp3LLxmNWX1c6ocS+4IFC/jlrl27vLy8xK3IGo1czShPGo2NzpFeTpgwgdo5RV+/fp2i19///nfRiTjZr776igZJ8V6dl4KCgqKiovjlM888ExwczCla94jys1asZkmDR5Kbm9u9e/dFixap263PWn75rLfnZd1DlJaWPvroo+KsX3nllV//+te8LBj1KRkGoX8y9P7h5X79+mlStPWZ6s6qoJ49yVRbv5Ekg6SN6Vz48wWHDh1ycnLKzMzkdsm7wmgVAAAAAEBDZJYUTT+jU36glhYtWtBP8LyWULpW7fc9SYo+f/487SIeS0Y/39PLq1ev8supU6eKHdVZlGJJcnIy7av5oCk1fvrppyNHjuRYKOmcOomNjaXt4+PjfXx89uzZo1jOaP/+/TQJMTExo0ePpmGr+tbmw0uXLlFvFEtSKtEIjx49ymtrOnJBbMO8vb05y0nGRl316NFj+vTp1EizSj2IVMw4FFFs69+/f1xc3OOPP67OS2vWrKGWoqKiU6dO0cvXXnuNU7TuEeVnrVjNkgb1v2LFCj8/v8jISE279VnLL59u4uVVuof4/e9/P378eFqgIEpjPnDggHqtYtynZBhkyZIl4lpoUrTuMHRnVVDPnmSqNUNVpIOkjRcvXiy2pEGuXr2a2yXvCqNVAAAAAAANkVlStGL5hc+FCxdSln7++ecpffEGmg/KKtIUnZiY2KxZM9FeUlJCPRw7doxfjho1StzHU2fRgIAA6jM4OLht27YUg8Xuc+fOpZF07dqV76RJOu9jwZ307dv39OnTiuVwtBwdHb1y5cqJEyfSIMW+ilU+pHjj4OAw/McOHz7Ma2s6ckFsw9zc3DjLScZGnVNv1KezBe3l4+Oj/n1vDkVr164dOHAgpThNXqKTeuWVVyhLT5s27Z133hEpWveI8rNWrGZJgw5HIxw5ciSNQfz2Nbdbn7X88ukmXl6lewgKls2bN6c353vvvdetWzdxM1kw6lMyDDJr1qxJkybxsiZF6w5Dd1YF9exJplozVEU6SNr43XffFavCwsLmz5/P7ZJ3hdEqAAAAAICGyEQpWu2NN96gtZQQtCukKTojI4P2ysnJ4fa0tDT1S0oy27Zt42Xdz0UvXrw4MDCQl4UzZ844OTkVFBRIOuecwO3USUhICKUsCi0ifC5YsECScBTLM6KoN/VTo9RqN3LFKiBxlpOMrbi4mDIh7UJRrUuXLi+88AI1vvjii9OnTxedUJ+rVq3y9PRMSUmhl9Yp+ty5c9SJt7c39cYp2uiI8rNWrGZJgw5HsZMWwsPD+c6waLc+a/nls96el40OQUaMGPHnP/+ZrvVf/vIXdTsz6lMyDBIUFLRs2TJe1qRo62EYzaqgnj3JVFunaMkgaWPxsXDSu3fvdevWcbvkXWG0CgAAAACgITLMsXK1TtE7duwYM2ZMcHBwE4sxFvzD/csvvzx79mzKJBTbmjZtSglh3759mt0VaYp+8OABZQ+KfLRQUVExYcKEIUOGKJabaX/96189PDwKCwt5F+ssWl5eHhkZKbYXTzWjMVCKpkBo1Dl3wimaOxk0aNCVK1fo7Pim9MWLF728vCQJh4WGhlJAunv3rmI5kYMHD9JRajpyDd0sJxkbTezo0aN5eXjl08Vu3brVvn17dSjq0KEDhzrFKi/x4ebNm7d+/Xpa4BQtOaLuWfMqRW+W1MS00+R06tRp48aNot36rOWXz3p7sUr3EIrlV4sfffTR5s2b37x5UzQKRn1KhnHgwAFnZ2fxq87Wvxet/HgYklllmtkzmmrrFC0ZJG1MV5z/wdIZubi4iHQteVcYraod+zwxAgDgJwJFFQAaGfuUNXun6CVLlnB+VktLS1MsDxwWLV27dqWUotmXSVI0OXfuXEBAQLt27dq2bUtJICMjgxoXLVr09NNPqz8qrM6ibm5u9LJ169YUFfhhZpcuXWrTpk2vXr38/PyoHxFmdDu37iQ1NVWxBEhXV1d/f39fX9/Zs2fLEw7Jzc0NCwtr2bJljx49qJ/AwECKxzUduYZRltMdG3VLsVB8s5dI0eTjjz8Wn+umPmkGRKrXTdGC+ES37hEVg7MWu1vPkprIliQhIYF256ejG5215PLpbs+rdA+hWB7B5e3t/eKLL/JLDUmfusOgd7uDhXslR0dHmrHdu3dzb7rDMJpVppk9o6m2vmqKwSAVy8YzZ86kNwMdkd5+cXFxol3yrjBaVTvy4gMAADWCogoAjYx9ypq9U7TcrVu3zp49e+XKFe2KGqLAoPme55qigHHhwoXMzEzrrymufud5eXnp6enqm6tVKioqSktLU//uax2pxdgekuSIdjtrpSaXT47G/Mgjjxw6dEi7ono0w9i2bVtERIRq/fcmT54ssrcRyazqqtFUW88VR+7S0lKK2fyldLVWnHszc/3OsvwadyIvPgAAUCMoqgDQyNinrJkrRQM0CPTGDg8P19z7fRgHDhyIiYnRNEZHRycmJmoa65fujetay0s8/nHb5/49+rWbSSe164zJiw8AANQIiioANDL2KWtI0QA1Nnbs2IiICPHp7p+OqKiohIQEbetDoCC9zWXwR02Ddz32y7SlH1Tn1rS8+AAAQI2gqAJAI2OfsoYUDQD16fs70q1DtzQbuMXp6a3NBx8a+Vv5rWn7PDECAOAnAkUVABoZ+5Q1pGgAqGccpLc6DaLSQX+2uQ6p/q1pAAAAAAA7q6sUjT/4gz/485B/trcamrv3sHW75o+2AAEAAAAA1KW6StG4Fw0A1cT3orc1f5pT8VaXwfEdfnFuyUa+F11ltdE2AQAAAADUJaRoAKhPlR/nHril2cCtzk8f+sWrmt+LrrLaaJsAAAAAAOoSUjQA1BvLM7qHfNQ0WH3zWaPKahMbGxsXF5eUlKRdBwAAVbHPY3gAAOzGPmUNKRoA6scP3xcdVsVDuVFtAADqjrzGAgA0OPYpa0jRAFAPinNvZq7fqXvzWQPVBgCg7shrLABAg2OfsoYUDQCmhmoDAFB35DUWAKDBsU9ZQ4oGAFNDtQEAqDvyGgsA0ODYp6whRQOAqaHaAADUHfs8hgcAwG7sU9aQogHA1FBtAAAAAMBUkKIBwNRQbQAAAADAVJCiAcDUUG0AAAAAwFSQogHA1FBtAAAAAMBUkKIBwNRQbQAA6o59HsMDAGA39ilrSNEAYGqoNgAAdUdeYwEAGhz7lDWkaAAwtXqsNr/4xS927typbVWU3NzcoqIio5cAAA2IvMYCADQ49ilrSNEAYGr1WG369OnzwQcfaFsVpV+/fhs2bDB6CQDQgMhrLABAg2OfsoYUDQCmVo/VhlN0YWHhoUOHrly5wo35+fkBAQHLli375ptv8vLyNC9pgxs3bnz33Xe3bt1KSEjIysr6UY+KcuHChYMHD544caK8vFyzihQUFBw9ejQxMfHatWvqduqHGs+ePXv//n3RSAf65sdKSkq4XTKAsrKylJSUkydPagZAPdPY6CjUj7qdcZ/iJQ2Pj6UYjE1Dt3PJ+IuLi3mb0tJSaqe/xV66XemelLqfu3fvZmdni1WCZK6MzkszADqEumc6BWoXu+gOTLGMR33i6rnV3YXnig707bffikY1o8lkun0CMHmNBQBocOxT1pCiAcDU6rHaUIqeNm3aE088MWDAABcXl9WrV1Pjm2++6ebm1rlz5379+k2ZMkXzkvcKDw+nlsGDB7u6ui5dupR7o2T1q1/96rHHHnvuuecCAwOff/559bFYp06dgoKCQkJC6HBiR+q2S5cuoaGh1Gf//v0pt3M7Hcjb27tnJWdnZ/78udEASHJyMh2CNqDt6bxOnTrF7enp6TQkHx+fYcOGtW/fPj4+XuzCNLflaV8+ltHY1Iw6l4x/8+bNvA3Nf5MmTcTF1e3K6KREPzk5Ob6+vrGxsdyuZjRXRudlPYCCggLaZvny5bzBqFGjxo4dy8tGAyOrVq2itw2fOF1r8VkGo13EXLVo0YKWL1++XNnTD4wmUzHuE4DZ5zE8AAB2Y5+yhhQNAKZWj9WGggdFJr77t3379latWvE9Rvknumkvyiq3b9+m5UOHDjk5OWVmZtJyamoqRSBx1/HOnTtiF6GiooIXduzYQXmbl7+pvOlKRx83btzcuXP5pVGyNRoAde7v7z9nzhzefsaMGU899dQDC4ruERERfHa0WWFhoeiWGR3LaGyCpHOjPkX6/eqrr7y8vDw8PPji6nZldFKin9zc3O7duy9atEgcSM1ornTPS3cAtHDs2DG6sjTat99+mxI15WpeazQwQu/YoUOH8rJ4/0h2EXNy79492nHhwoW8jWA0mZI+AQAAoNaQogHA1Oqx2lAyoZ55maJRkyZN+LO7VaboxYsXq9fyTWwKZs7Ozm+99daFCxd4VWlp6c1KItgkJyd/+umnI0eOjIqK4hZatX//fhpJTEzM6NGjhw8fzu1GwcloAOfPn6dT4I+dE4qL9PLq1asZGRm0QGlT7GKN+qQgmlzJ29ubj2U0NkHSuWT8lBgpqfbv3z8uLu7xxx/ni6vbldFJcT8rVqzw8/OLjIxU76JmNFe656U7ALZs2TIaJ2VpStTcIhkYWbJkiZgr8f6R7ELjjI2NpZmPj4/38fHZs2cPbyMYTaakTwAAAKg1pGgAMLV6rDbqZFJSUkLx4+LFi4pVbLZO0e+++654GRYWNn/+fF7et2/fiBEj3NzcunbtumXLlo8++qhFJXGHdu7cuc8//zxtID7VPGrUqL59+0ZHR69cuXLixIkDBgzgdqPgZDSAxMTEZs2aiXY+I0p9hw4dUrfroj4DAgKGV6JT4GMZjU2QdC4ZP5372rVrBw4cSGlWpGjdroxOSrH04+zsPHLkSOqB7zZbM5or3fPSHQDLzs6mYw0ePFi0SAZGZs2aNWnSJF4W7x/JLn0saOaDg4NpYKdPnxabMaPJlPQJAAAAtYYUDQCmVutq8/XXX7/99tszZ86cOnXqH//4R82vkmZkZFBeoiRDqTUtLU29SjBK0UFBQe+9957YTPOS9lqwYIF42bt373Xr1omXiuVRT5TNnJycjJ4URc6cOUMbFBQUZGZmOjg4iC2p5+qkaN0B8K3UnJwcbqez5pdZWVm0YP0cMjXdY0nGJkg61+2T21etWuXp6ZmSkkIvRYrW7cropBRLPxRWaSE8PHz8+PHqvQTduTI6L90BKJZPTT/zzDMUtjt27LhmzRpulAxMsbxnli1bxssiRUt26aP6XfHFixeHhITwsmA0mZI+AQAAoNaQogHA1GpdbVq0aNFEhUJpYmIirzp06JCrq6tY5ezsvG/fvh/v/T2jFD1mzJjf/va34jnMmpe0FwU//uw3JRkXFxcOLZS+0tPTeZsvv/zS0dFR8y3TdAjRQuOhARcXF1+5coWOy/ce6eheXl7VSdG6A3jw4AEFtunTp9MCBb8JEyYMGTKE9x06dOi4ceP4idaUHq0/tKx7LMnY1Iw61+2T2zt06MABWFGlaEWvK8lJieRZWFjYqVOnjRs3crua7lxJzst6ALQwf/78Xr16UeMXX3xB77qTJ08q0tk+cOAAveXEr16LFC3ZRZxLeXl5ZGTkoEGDuF0wmkxJnwDMPo/hAQCwG/uUNaRoADC1WlebESNGfPLJJzdv3kxOTvb09KRcxL+JSnGie/fu9HLKlCl5eXkzZsygZUpZ4sleglGKpgzs5+dHQejpp5+2fkl7zZw508fHx9fX183NLS4ujnugzTw8PPhByrSwdu3aHw5T6dKlS23atKE8Rr21bdtWfEr8tddeo8zv7+9PHc6ePbs6KVp3AOTcuXMBAQHt2rWj/ilcZWRkcPvVq1eHDRvWsmVLmhka2+effy52YUbHMhqbmlHnRn1SO41QfMRdnaJ1uzI6KZE8SUJCQuvWrXUfba07V0bnZT2A/fv3t2rVisbAG8TGxvbo0YP/N0R3YLt27XKwcK/k6OhIx9q9e7fRLoplnDQ82pjOgmJwamoqtwtGk6kY9wnA5DUWAKDBsU9ZQ4oGAFOzSbUZP348ZeDAwEDF8qxsvgV94sQJpfLxS+Tw4cPa3WqF80xpaSmlF82DuCmoU5BLT09Xf5evWnl5+YULFzIzMzXf60tpn/ayzvm6JANgubm5mu+jZgUFBTQb6u8uro5qjq12nevS7cropOQkcyU5L90BGNEMbNu2bREREar135s8ebIIvYrVLjZRF31C4yCvsQAADY59yhpSNACY2sNXmxs3bnh5eVFO5q87ohjDsZkfXExZiF/+4x//0O5ZK5q7gvZX7wNoQOw/VwcOHIiJidE0RkdHi183ALAzeY0FAGhw7FPWkKIBwNQestrk5uYGBgZSSB41atS9e/eo5cMPP+TYzM9tLisr45d///vftTvXSlRUVEJCgrbVjup9AA0I5gpAXmMBABoc+5Q1pGgAMLWHqTbnzp3z8fGhhPziiy+Kz0h/9tlnHJv5Ycs3b97klzt27PjRzgAAPwH2eQwPAIDd2KesIUUDgKnVutr8+9//9vDwoHj8u9/97sGDB6L91q1bzZo1o/aPP/6YXu7du5eWmzZtyg9qtrmysjJtEwAAAAA0ZEjRAGBqta42rVq1onjcvHnzfpV+/vOf86rIyEha1aFDh9/+9rcdO3ak5RdeeOHHez+UnTt3Pvvss15eXk5OTuIbm+pXVFRUUlJSSUnJuHHj6uj/CwAAAAB+IpCiAcDUal1tKD/zR7WFtm3b8qri4uLf/OY3jo6O1Ojg4DB+/HjNVzc/jNWrV7dv337z5s03btwQXyJd71JTU/v169e5c+d58+Zp1wEAAABATSBFA4Cp1V21KSgoOHv2bH5+vnZFJYrB33zzTXZ29rfffqtu1HzF0YMHD2gz/kokSuMtWrRITk4+blFaWio24x1v3bqVkJDAv5It0MvExEQajDp1aw507do1/n4so3ZWVlaWkpJy8uRJ9Xdl0S7FxcW8TEOi0aoHJvD5qomedbsld+/eVW8vBqY+Im2jvvttfbK3b99Wd8L4QDSrNI1HjhxR/zeHZpxiSLqDNJp2yZxIVgEAAAAoSNEAYHL1WG369Onj7e3ds2dPCsa0fPnyZW7UfDcSpfEmTZpQ1qLlpKQkV1fXrl27Pvnkk4GBgbT7sWPHeDPaMTw8vHPnzoMHD6Ztli5dyu1Tpkzp0qVLaGgorerfv79I9ZoDPfHEE/yVwkbthNJ7p06daAMaM7WfOnWK26ll8+bNvDxt2jQare50ifNlzs7O3LNRt2TVqlVubm68vYuLy4YNG0RXfMScnBxfX9/Y2Fhu1z3ZefPmcQ80LWIA5y26devm5+dHM+bp6bl3717RuXqcZ86cUYwHaTTtkjmRrAJofOzzGB4AALuxT1lDigYAU6vHaiPS1L1794YOHbpw4UJulKRoGgYtv/TSS7zqjTfeoBzI37BFO1K646/XOnTokJOTU2ZmJi3zjuT+/fvjxo2bO3cuvzRKy0btFRUV/v7+c+bM4fYZM2Y89dRT/Fg1cSJfffWVl5eXh4eH7nTp9izpltDM08zwcr9+/TQpOjc3t3v37vw13czoZNmAAQPEAOgQISEhCxYs4Je7du2ikfO9butLIBmk0bRL5kSyCqDxkddYAIAGxz5lDSkaAEytHqsNpanY2Njk5OT4+HgfH589e/ZwI8VCajx//jx/0Fedoimn0fKFCxe4h/z8fHrJ90Vpx8WLF4vOKXOuXr1ascTF/fv30ynExMSMHj16+PDhvIE4EPP29hYpWredxkPHysvL490pK9LLq1ev8i4UCym49u/fPy4u7vHHH9edLt0ULemWLFmyRAxYk6JXrFjh5+cXGRnJLczoZJk6RV+6dIkORPOZUsnd3f3o0aOK1TiVqs5dd9olcyJZBdD4yGssAECDY5+yhhQNAKZWj9WmjwUlveDg4L59+54+fZobAwICuLFt27YUsNUp+vjx47R89+5d0YmLi8u+fft4x3fffVe0h4WFzZ8/nxZGjRpFnUdHR69cuXLixImUJHkDcSDm5uYmUrRue2JiYrNmzUT/JSUlNBL+PDnHwrVr1w4cOJByrFEs1E3Rkm7JrFmzJk2axMuaFO3s7Dxy5Eg6Ft8HZkYny9QpmvKzg4ODOE12+PBhxWqcSlXnrjvtkjmRrAJofOQ1FgCgwbFPWUOKBgBTq8dqw2mKlxcvXhwSEsKNIsJRY2BgoDpFFxYW0vLZs2d5g2vXromXtKP4fDLp3bv3unXrMjMzKSuKp5fRBuoUbZ1pJe0ZGRl0rJycHG5PS0sTL2mXVatWeXp6pqSk0EujWKjbs6RbEhQUtGzZMl7WpGj+iq/w8PDx48dzo+RkmTpFZ2Vl0YF0v5TLOkVLBqk77dxuNCeSVQCNj7zGAgA0OPYpa0jRAGBq9VhtRIouLy+PjIwcNGgQN3KE48YhQ4aoUzQZPnz4iy++WFFR8eDBg2nTptH2/DBqWqA8xrGQ0qmLiwvFvCtXrtC+fJf74sWLXl5etU7RdDjKsdOnT6cFOvqECRNobLwN7dKhQwfxzdVGsVC3Z0m3Bw4ccHZ2Fidu/XvRiuW/FTp16rRx40ZalpwsU6doEhoaSgmcb+zT0Q8ePMgPQrdO0ZJB6k47txvNiWQVQONjn8fwAADYjX3KGlI0AJhaPVYbSlNubm7u7u6tW7emVJaammrdeOrUKU2KzsrK4g97t2vXTjxBmnecOXOmj4+Pr68v9RAXF8ftr732mqurq7+/P7XPnj271imanDt3LiAggI5LR6dUmZGRwe20CzVSoOWXRrHQqGfdbnft2uVg4V7J0dGRTmT37t3clbiNn5CQQHPFTzg3OlmmSdG5ublhYWEtW7bs0aMH9RAYGMhfYWWdohWDQSrG0y6ZE8kqADMrzr2ZuX5nWf4d7QoAALA1pGgAMLUGWm2uX78uPmDMOPuVlpZS3rtz50c/5ubl5aWnp/ON1odH4fPatWva1oem6Xbbtm0RERGq9d+bPHmyiPRGanqyRUVFaWlp6l+ulrA+d8m0AzQ+eYnHP27z7JHf/OFm0kntOgAAsB2kaAAwtUZTbXTvoDZcBw4ciImJ0TRGR0cnJiZqGutXI5t2gCplrt+5tdmgLQ4D/vnkhPTlm3FrGgCgLiBFA4CpNZpqExUVlZCQoG2FOoZph5+gjP/dvqXpgI/bPLuv739vdw/FrWkAAJtDigYAU0O1AQCoKQ7SVCG3Oj/9WeBvPvEZbXRr2j6P4QEAsBv7lDWkaAAwtSqrDf7gD/7gD/5U+efjts/S3zta/zx372HrtZo/2lILANBw2KeIIUUDgKmh2gAA1FRewtfbXYeIVLy1+eD49r8499Y/+F50lXVV2wQA0HDYp4ghRQOAqaHaAADUiIjQWxwHbnV+OnH4q5rfi66yrmqbAAAaDvsUMaRoADA1VBsAgOqjCL212aCPmgarbz5rVFlXY2Nj4+LikpKStOsAAExPXuJsBSkaAEwN1QYAoJryEo/vcB9mffNZA3UVABoxPF0MAADVBgCgWopzb2au36l781kDdRUA4CEhRQOAqaHaAADYFuoqAMBDQooGAFNDtQEAsC3UVQCAh4QUDQCmhmoDAGBbqKsAAA8JKRoATA3VBgDAtlBXAaARw9PFAABQbQAAbAx1FQAaMXmJsxWkaAAwNVQbAADbQl0FgEZMXuJsBSkaAEwN1QYAwLZQVwGgEZOXOFtBigYAU0O1AQCwLdRVAGjE5CXOVpCiAcDUUG0AAGwLdRUAGjE8XQwAANUGAMDG6rGuxsfHv/rqq1OmTJk/f/5nn30m2u/du/fhhx9Onz596tSpy5cvLygoUO2kbNq06fPPP1e3/NRUVFTExMTcvn1buwIA6glSNACYGqoNAIBt1VddfeWVV9q3b79gwYKVK1dGRUV1796d2wsLC4ODg7t16xYbG7tixYqf/exnHTp0OHv2rNhx+PDhlL3Fy5+gkpKSJk2aXLx4UbsCAOoJUjQAmBqqDQCAbdVLXf3uu+8cHBz2798vWu7fv88LERERFKG//fZbfvngwYOxY8f26tWLFrilOim6oKDg6NGjiYmJ165dU7dnZWVRI2VycThy48aNb36MYiq30zhv3bqVkJBAO/6nF0UpKytLSUk5efJkeXm5up26vXDhAh2COlG3M+5QvKSx8YGY7tg0rly58vXXX1MnnKJTU1PpcOoNdAdmdCLUnpubK17ScWnY4hY3rS0uLubl0tJSWkV/i1W6HSrGA6Dds7OzxWUVrM9aMkuSIVVUVBw/fvzIkSNFRUXcosv6AkmuvtGxjPoR29+9e5dOVmxsfY4akvk02lczADq0+oh0CtQudtG9KIplnOoTV0+77i6S6whI0QBgaqg2AAC2VS91laIa5cBPPvlE004/1js7O7/33nvqxvPnz9PGFBj4ZXVSdKdOnYKCgkJCQlxcXJYuXcqNU6ZM6dKlS2hoaOfOnfv375+fn8/tffr08fb27lmJBrBz505uDw8Pp40HDx7s6uoq+klOTqb+aS1t/MQTT5w6dYrb09PTAwMDfXx8hg0b1r59+/j4eG4XaJcPPvhAvKR9+UCK8djUtm/f3qJFCxrML37xC5qQ5557jpapZfXq1byB0cCMToTamzZtSsMW/VO3kydPFms3b97My9OmTaNV4j1g1KFkADzDNFpavnz5MrfrnrVkloyGRO+Qbt26+fn50Xg8PT337t0rdlfTvUCSq697LEk/vH1OTo6vr29sbCxvrHuOGkbzabSv9QAKCgpom+XLl/MGo0aNGjt2LC8bXRSyatUqNzc3PnH6l7Jhwwb5LkbXERSkaAAwOVQbAADbqq+6+t///d+UWOjH/T//+c+pqanc+NVXX1FcOX369I+3VR555BGREKqToisqKnhhx44djz32GC+L24b3798fN27c3Llz+aVRbKN2WuZ7s4cOHXJycsrMzKSe/f3958yZwxvPmDHjqaeeemBBuT0iIoJvANJmhYWFok9mdCDFeGzCvXv3KNhwTqNrQbPEmScxMbFly5Y0SKOBKQYnwu005qioKN7lmWeeCQ4Otk7RdFG8vLw8PDzUKdq6Q/kAuCs6i6FDhy5cuJC30T1rySzpDokOERISsmDBAt5m165dtEp9W5UZXSCjw+keS94PbZ+bm9u9e/dFixaJDnXPUUN3PhWDfY0GcOzYMQq3NNq3336bEjU/TUByUQj9u6bLwcv9+vXjd5RkF6PraHJ4uhgAAKoNAICN1WNdpcBDYaBHjx6UCX/1q1/Rj+8UIWj56tWrmi07duz4pz/9iZetU3RpaenNSiIhJCcnf/rppyNHjhQpkVbt37+fziUmJmb06NHUD7dLctTixYtFO8WM1atX843xvLw8bqS0wwPOyMigBfUHpK1Rh5Svkit5e3uLfGg0NuHMmTMODg6UXhSr34tu3779P//5T6OBKQYnwu1r1qx5/PHHi4qKTp06RS9fe+01TYqmqNa/f/+4uDjaTJ2irTuUDyA2NpZOOT4+3sfHZ8+ePbyN7llLZkl3SJcuXaID0TsnpZK7u/vRo0d5F8HoAkmuvvWxFGk/K1as8PPzi4yMVLfrnqOG7nwqBvsaDYAsW7aMxklZmhI1t0guClmyZIkYj0jRkl2MrqPJyUucrSBFA4CpodoAANiWGeoqdd6sWbP/+7//u3DhAv3InpSUpF5bXl7u6Oj44Ycf8kvrFP3RRx+1qCTuAM+dO/f555/v2rWr+FzuqFGj+vbtGx0dvXLlyokTJw4YMIDbJTnq3XffFe1hYWHz589PTEykoYpGDrQUWijFqdt1UYcBAQHDK7m5uYl8aDQ2ISEh4ZFHHuFlTYr29/f/xz/+YTQwxeBEuJ1O/JVXXqEsPW3atHfeecc6Ra9du3bgwIEU5zQp2rpD+QAInXJwcDCdpvisge5ZS2ZJd0g08w4ODmJ7dvjw4cqB/MDoAkmuvvWxFGk/zs7OI0eOpC3Vj0/XPUcN3flUDPY1GgDJzs6mMQwePFi0SC4KmTVr1qRJk3hZpGjJLkbX0eTkJc5WkKIBwNRQbQAAbKt2dfXrr79+++23Z86cOXXq1D/+8Y/q35AsLi7+4osvVqxYEWPxn32kKL3w7TjKvS+//LJ61caNGykbiJtjw61StMSZM2ecnJwKCgoyMzMpa4mnIi1YsKA6KVp8Tpj07t173bp1fCcwJyeHG9PS0vhlVlYWLWgeDaVhdCDJ2IRz5841bdqUH3ClSdGPPvroZ599ZjQwxeBEuJ3GQz1369bN29ubLpwmRa9atcrT0zMlJYVealK0dYfyAYj/y6CrHBISohiftdEs8SrrIfHMq5+tpcvoAhkdTvdYirQfCqW0EB4ePn78eG40OkcN3fk02tdoABUVFc888wyF7Y4dO65Zs4YbJReFBAUFLVu2jJdFipbsonsdzU9e4mwFKRoATA3VBgDAtmpXV1u0aNFEhZKqePrX66+/rl6l3ku4devWkiVLrl+/zi8/+eQTR0dH/hbobdu2UWZ+//33+bPZR44cad++vfo3MClFT58+XXyEm4jfgmYUMsWDmvft20djo3x45cqVJpW/cU3508vLqzopmrITxzNqcXFxoSxBo6K8QQOgBTruhAkThgwZwjsOHTp03Lhx/KBmCj/Wn7k1OpBkbAIdq2vXrv/7v/9Ly1u3bqXt3377bcUysNatW9+5c0cyMN0T4XYez7x589avX08LmhTdoUMHToaKVYq27lA+AE5f5eXlkZGRgwYNUozP2miWeJXukEJDQym43r17V7F8CvrgwYOatwTTvUBGhzM6lmLcD59jYWFhp06dNm7cqBifo4bufEr21R3A/Pnze/Xqxf+HRf88T548qVhmw+iiHDhwgP6hiV+9FilasovudTQ/eYmzFf1KVyX54IzqLwBATaHaAADYVu3q6ogRIyj6UoJNTk729PSkH/eHV/6CZXx8PG2/aNEiSYouKCigH82bNWtG+7Zp0+aRRx556623xNpNmzZ5e3t7eHhQjGnatOnSpUs5UTM60A8BvZLmk6WXLl2iPilR+Pn5tW3bVjx5mCKiq6urv7+/r6/v7Nmzq5OiZ86c6ePjQ9u7ubnFxcXxBufOnQsICGjXrh11TnkjIyOD269evTps2LCWLVt2796dBs//KaBmdCDFeGxqFA7d3d27des2ceJEOmuKN7RMA9uyZQtvYDQwoxPRjEexStHUlfiEvCZF63YoGQBtRoOnwE/XXTxMTvesJbNkNCSKkWFhYTTzPXr0oEMEBgZqvtKJ6V4go8MZHUsx7kfcp01ISKBh8Ac0dM9Rw2g+jfa1HsD+/ftbtWpF888bxMbG0lTw/yXpXpRdu3Y5WLhXcnR0pGPt3r3baBfF+DqaHJ4uBgCAagMAYGMPX1fHjx9PoY6ii7qRoghHXHWjRnFx8YULF7KysvihWWoUmykMJyUlPfbYY+JxwdVHIYp6zszM1KSpvLy89PR03RuV1jhflZaWUqi4c+eOZi0lN82XUbOCgoLz589bPyO6StUZW0lJSU5OjvhE9/Xr1/kGrJr1wOQnUgvyDq0HIFGds64mCo1paWnq30nWVesLpFH9fqo8R8l8Svat/gAUq4uybdu2iIgI1frvTZ48WfyHhWK1C8jJKp3Ew9dfAIDqQLUBALCth6yrN27c8PLyolCn/nYfpXopujrOnDnzX//1X19//bV2Rd2zvlVrEprfi66SzU/E5h3+xNl/Pg8cOGD9zILo6GjxexlQU7WsdA9ZfwEAqgnVBgDAth6mrubm5gYGBlKiGzVqlOZ+sq1SdD2KiopKSEjQtppAeXn5yJEjrX/v2ojNT8TmHf7EYT4bgVpWuoepvwAA1YdqAwBgW7Wuq+fOnfPx8aGc/OKLL1r/GmojSNEAANVUy0pX6/oLAFAjqDYAALZVu7r673//28PDg0Ly7373O/Wjv4QGl6LLysq0TQDQ8OHpYgAAqDYAADZWu7raqlUrSsjNmzfvV+nnP/85r9qxY8eYMWOCg4M5RY+xqPLrfOsFRf1nn33Wy8vLyclJfKdR/YqKikpKSiopKRk3bpw5Jw2gYZGXOFtBigYAU0O1AQCwrdrVVcrPHJKFtm3b8qolS5ZoVpG0tDT17mawevXq9u3bb968+caNG/fv39euriepqan9+vXr3LnzvHnztOsAoObkJc5WkKIBwNRQbQAAbMsMdZVy7Dc/VlJSItaWlZWlpKScPHnS+revGe+enZ397bffato13wP04MED2rKioqKoqKhFixbJycnHLUpLS8U2vNetW7cSEhKysrJUeyv0MjEx8ezZs+rUrTnKtWvXxOAlq3RPirYvLi7mZRoSDVU9MEEyXbrdkrt376q3F6NSH5G2Ud/9tj7Z27dvqzthfCCaUprGI0eO8HcUM804xZB0B2k07ZI5kawCEOQlzlaQogHA1FBtAABsywx1tU+fPt7e3j0rOTs7i++tpaDbqVMn2oDan3jiiVOnTv141++J3SkY0/Lly5dFu+YLhAoKCpo0aUJxKykpydXVtWvXrk8++WRgYCDtfuzYMbFXeHh4586dBw8eTNssXbqU26dMmdKlS5fQ0FBa1b9///z8fLG9+ig0SDF4o1VGJ0Utmzdv5uVp06bRUHWn3Wi6jLolq1atcnNz4+1dXFw2bNgguuIj5uTk+Pr6xsbGcrvuyc6bN497oGkRAzhv0a1bNz8/P5oxT0/PvXv3is7V4zxz5oxiPEijaZfMiWQVgCAvcbaCFA0ApoZqAwBgW2aoq0Zps6Kiwt/ff86cOdw+Y8aMp556yvphZiJN3bt3b+jQoQsXLhTtRimaTocWXnrpJW5/4403KAfyl3XRXjSA27dv0/KhQ4ecnJwyMzNpmfbije/fvz9u3Li5c+fyS6PBG62SnJQ4ka+++srLy8vDw0N32mvaLaErSDPDy/369dOk6Nzc3O7du6u/8dvoZNmAAQPEAOgQISEhCxYs4Je7du2ikfO9buv5lwzSaNolcyJZBSDg6WIAAKg2AAA2Zoa6qhsLaeH8+fOUdfPy8ridYhW9vHr1qtiS0e6xsbHJycnx8fE+Pj579uwR7ZQMqZ364c/6ihRNOY0WLly4wFvm5+fTS74vSnstXry4su/vM+fq1asVS1zcv38/TUVMTMzo0aOHDx/OG4ijMG9vb3WKtl4lOSmOhRRc+/fvHxcX9/jjj+tOu+50SbpVLL+sLgasSdErVqzw8/OLjIzkFmZ0skydoi9dukQHovlMqeTu7n706FHFapyK9IIaTbtkTiSrAOwMKRoATA3VBgDAtsxQV3VjIS0kJiY2a9ZMtJeUlFDoEh+9FvpYUNILDg7u27fv6dOnRXtAQAC3t23bljK2SNHHjx+nhbt374pOXFxc9u3bx3u9++67oj0sLGz+/Pm0MGrUKOo8Ojp65cqVEydOpCTJG4ijMDc3N3WKtl4lOSmOhWvXrh04cCDlWKNYqDtdkm7JrFmzJk2axMuaFO3s7Dxy5Eg6Ft8HZkYny9QpmvKzg4ODOEd2+PBhxWqcivSCGk27ZE4kqwDsDCkaAEwN1QYAwLbMUFd1YyEtZGRkUMrKycnh9rS0NPVLgdMULy9evDgkJES0i26pPTAwUKTowsJCWjh79iyvvXbtmnhJe4nPJ5PevXuvW7cuMzOTsqJ4ehltoE7RuoM3WiU5Kdp+1apVnp6eKSkp9NIoFta0WxIUFLRs2TJe1qRo/oqv8PDw8ePHc6PkZJk6RWdlZdGBdL+UyzpFSwapO+3cbjQnklUAdoYUDQCmhmoDAGBbZqirurFQsXyumCLf9OnTaaGiomLChAlDhgz5z26VRIouLy+PjIwcNGiQaOduuZ32FSmaGocPH/7iiy9St9T5tGnTaGN+GDUtUB7jWEjDcHFxoZh35coV2pHvcl+8eNHLy6vWKVpyUrR9hw4dxDdXG8XCmnZ74MABZ2dn8avO1r8XTQuFhYWdOnXauHEjLUtOlqlTNAkNDaUEzjf26egHDx6kAShW4+S1RoPUnXZuN5oTySoAO0OKBgBTQ7UBALAtM9RV3VjIy+fOnQsICGjXrl3btm0pgGVkZIjNBNrdzc3N3d29devWlMpSU1N120+dOqVO0VlZWfxJb+pcPEGa95o5c6aPj4+vry/tHhcXx+2vvfaaq6urv78/tc+ePbvWKVoxPinanhop0PJLo1hYo2537drlYOFeydHRkU5k9+7d3JW4jZ+QkEATxU84NzpZpknRubm5YWFhLVu27NGjB/UQGBjIX2FlnaIVg0EqxtMumRPJKgABTxcDAEC1AQCwsQZRVymnXbt2TdtqC9evX9d8RJyzX2lpKeW9O3fuqFfl5eWlp6fzjdaHV0cnpel227ZtERERqvXfmzx5soj6Rmp6skVFRWlpaepfrpawPnfJtAOQ4tybmet3luXX+L0hL3G2ghQNAKaGagMAYFuoqxq6d1AbrgMHDsTExGgao6OjExMTNY31q5FNO9SFvMTjH7d5dl+/yVkf/PCd5NUhL3G2ghQNAKaGagMAYFuoqxpRUVEJCQnaVqhjmHaoDgrS29x+RnWJ/j4avrA496Z2CyvyEmcrSNEAYGqoNgAAtoW6CgANCAXpnW2f2+EeStXpo6YD9vj9Wn5rWl7ibAUpGgBMDdUGAOD/Z+9OwGM69z+Ak00kiCBCLUFRSklLIrbaWvRail5V3CK1F23v1VK1FqFXa6ml/LWxlyRESC1XiSRCkCCJJRuRWBIkIokQSSSZ/y/z1tuTMzMnmWRmnBnfz3Mez5n3vOc975xJf8/59syiW6irAGBcWJA+4Ni/OEgrF4lb0/h2MQAAVBsAAB0rta5iwYIFi8wXvzrv07++dr1TjoaqbhUt4jKnC0jRACBrqDYAALqFugoAxuWuX5CPRWeqTj5WXY+9/am/0+Ajb46IW72HfYN3qTVN3KQLSNEAIGuoNgAAuoW6CgBGhEVov9rvH3tnjK9d77P/WpgWEinsUGpNEzfpAlI0AMgaqg0AgG6hrgKAsUg5FOJj1dXbrJPw5rNIqTXNw8PD09MzJCREvK0CkKIBQNZQbQAAdAt1FQCMQvHvRdd+X/Xms8hLqWlI0QAga6g2AAC6hboKAPKXk5KWsNlP7c1nkZdS05CiAUDWUG0AAHQLdRUATMlLqWlI0QAga6g2AAC6hboKAKbkpdQ0pGgAkDVUGwAA3UJdBQBT8lJqGlI0AMgaqg0AgG6hrgKAKXkpNQ0pGgBkDdUGAEC3UFcBwJS8lJqGFA0AsoZqAwCgW6irAGBKXkpNQ4oGAFlDtQEA0C3UVQAwJS+lpiFFA4CsodoAAOgW6ioAmJKXUtOQogFA1lBtAAB0Sx919cKFCytXrpw2bZq7u/v333+fmJhYlk1Cu3fvXqK0fPny7du3p6eni3sAAKijj5pWKqRoAJA1VBsAAN3SR121tbWtJGBpaRkUFFTqJqF+/fq1b9+ewvbkyZNdXFzs7Oyio6PFnQAAVOijppUKKRoAZA3VBgBAt/RRV/v37+/v75+WlhYeHu7g4EBpmVJxqZuEqPHLL79k60VFRe3atZs9ezbfmpeXFxERERkZmZ+fzxszMjLOnTtHmfzevXu88cGDB3fu3Ll79+7jx495I2t/+vTpw4cPAwMDk5KShJvoIQ1y7dq1wsJC3sj6s/VHjx5lZWWx9ezsbHouvJvafUlBQcHFixfPnj1L/VkLDXJHhfDpcDRUfHw8DUsdWAt7UkLPnj1j7Tk5OaxPbm4utdO/EuMoNJxJ4ThPnjyhs8c3cdqeQIXKBOgQwpHpKVA730XtxBTK+QifOH9RFBp20fQHACZMHzWtVEjRACBrqDYAALql77o6fPhwisrOzs7iDZKbRCm6ffv2NA32kOJ348aNqaVNmzavv/765cuXWTs1uri4uLm5WVtbr1ixgjVSt4YNG1JPW1tbWudvIKf10aNHN2nSpFu3blWrVuX9x40b17Rp0969e9Omjh078neSU/+dO3eyddqRR/off/yR/18ATfvGxsa2aNGiVatWdCwHB4ejR49S49y5c9so0dHZDAn1ZLtwcXFxdH6cnJx69epVr169AwcOKARPirGysvLz82Pte/bsYTtOnDiRzi1/1dSOo+lM8nGSk5ObN2/u4eHB2oW0PYGqE8jIyKA+q1evZh0GDRo0dOhQtq5pYmTdunU2NjbsidMLvXXrVuldNP0BgAnTd01TCykaAGQN1QYAQLf0WlcfPHjg6OhIcW7x4sVl36RQpmgKXRSkp0+f3qVLl759+6ampiqUN3Vbt249a9Ys1m3KlCnvvPMOxWy2iTX6+vq+9tprbJ0HwufPn/fs2XPBggW8nbLWo0ePaD04ONjS0jIhIYHW+X3awsLCYcOGzZkzh/cvNUWr3ZfmRsF+/vz5bNPBgwfpWQvvoHbq1ImPLEL7uri4jB8/nt2hpSeYmZmpKDkZQk9ElKLDwsLoKPb29uxVUzuOxJlk46SkpLRs2VLtq6PQ8gSqnQCtnD9/nsItzXblypWUqClXs62aJkboT5FeR7beoUMHlqIldtH0BwAmTK81TROkaACQNVQbAADd0l9dpRhGSZhy8qBBgyjDlHETQ9G0a9euy5cv9/DwcHd3d3JyCgkJUSjv69JeLFETSm708Pbt2+xheHj4H3/8MWDAgBkzZrAWClE0ArUfOHCABjl8+DBvX7p0KVtXKPPY+vXrFcq8d+LECXq+S5YsGTx4ME/IZUnRave9efMmzZByZsQLdnZ2586dY7soJFP0jRs3aF86V6J26RRNSbVjx46enp4NGjRgr5racSTOJI2zZs2aVq1aTZgwQbiLkFYnUO0EmFWrVtE8KUtTomYtEhMj9CfBTzhP0RK7aPoDABOmv5omASkaAGQN1QYAQLf0VFejo6MptFCYGTlypOijrRKbOOE7usl3333Xpk0bWgkKCrKwsODtz549o3F4AJszZ07fvn2bNWvG39jcXolGc3V1ffvtt69cucLbf/vtN7ZOBg4cOG/ePIXyfcXUbdGiRWvXrh01ahRFXN6/1BStdl/Kz2ZmZv1KCg0NZbsoJFM07St8spx0it64cWPnzp0pzfIUrXYciTNJ41hZWQ0YMIBGYHebVWl1AtVOgLl79y4dq1u3brxFYmJk+vTpY8aMYes8RUvsoukPAEyYnmqaNKRoAJA1VBsAAN3SR109deqUvb09JZmvv/6avxe31E1C/Uqm6A0bNlSvXl3x4q5mcnIya4+JiRE+ZK5evWppacneHsyCJWtfunSpm5sbW6d2/i5r8tZbb23atCkhIYESL/8aKupQ9hStad+kpCSaodov6GIkUjTbV/TdXQrJFL1u3ToHB4eIiAh6yFO02nEkziSNQ2FVoXymw4cPF+7FaXUC1U5AoXwndo8ePShsN2rUiF5i1igxMeLi4rJq1Sq2zlO0xC6a/gDAhOmjppUKKRoAZA3VBgBAt/RRVynxUoypUqVKhxf69OlT6iYhiqaff/55dnZ2VlbWpUuX2rZtO3jwYIXyDcO0y+TJk2mFMtiIESO6d++uUN5+5F9/fezYMUrR7FumeYjKz8+fMGFCly5dWB9qp5DJwi1FUGtrawpdt27dormx25XXr193dHQse4qW2Ld3796URZ88eaJQzv/kyZP8I9wKyRRNevbsOWzYMPZcKJ2yN0VLpOj69euzAKwQpGiFunE0nUk2DjtpmZmZjRs33r59O2sX0vYEqk6AVubNm0evLDWePn3a1tY2MjJSofklJgEBAVZWVvyj1x1epGiJXTT9AYAJ00dNKxVSNADIGqoNAIBu6aOuUkiuVFLt2rVL3SRE0ZRtrVy5MiVDd3d3/oNS0dHR7dq1q1u3Lu1I2enGjRsK5cePa9WqRZGsVatW1M6/uplClI2NjZ2dXc2aNSlZRUVF8fZp06Y5OTk1b96cOnh6erL2mTNnVq1atXXr1tT+1VdfCVM0G4dQRKdnwdYpPVpYWEyaNEliX0qMAwcOrFat2htvvEHTcHZ2Fr6PXTpF3759u1evXrRvy5Yt7e3t//zzT4VkiqbTwr64S1EyRasdR+2ZZOPw+7eBgYE0Z9Wvttb2BKpO4MSJE9WrV+c/A+7h4UHnh/2vELUTO3jwoJkSO/PE3NycjnXo0CFNuyg0/wGACdNHTSsVUjQAyBqqDQCAblWwrualZyVs9stJ+fs3kw2Doqnwd6EVypuN8fHxCQkJmj5rLcSCaG5uLqUv/uPPTGpqalxcnPB2sbSjR4+OHj2arUvsS/kwJiZG08eMpWVkZMTGxgq/2bt81I6jeibLonwnUO0ENBFNbO/evePHjxdsLzZ27Fj2fxCY8j0XMDEVrGnlgxQNALKGagMAoFvlrqtJ2w8HvDtlf+33U4MuijbJn+h2bkWEhoYKPyH8itDhCSyjgICAJUuWiBoXLVoUFBQkaoRXXLlrWkUgRQOArKHaAADolrZ1NSc59eyo+Xurdveq7LrPtocxRmgyY8aMwMBAcSuUGU4gyJa2NU0nkKIBQNZQbQAAdKvsdTVp++HDb3zsVbkTNR5q+uEBh75GGqEBwISVvaaJt1UAUjQAyBqqDQCAbpVaV5f+59ttHT72qtKV1tlyzHk0IjQAyFOpNc3Dw8PT0zMkJES8rQKQogFA1lBtAAB0q9S6utuqC8/PbNlr1TXmx11XF/1K6/QvdcM61rGOdfmsSy90oejj43Pp0iWF7iBFA4CsodoAAOhWqXV18azvfh061afBB/vrvO9bvSe7DPWtbqyfiAaAV4SHh8fCkqiFrhJ37NhBF4pxcXHiHSoAKRoAZA3VBgBAt8peV9NCIkNHLdhr2+NA/X94VUaQBgBZ8/T0/LkkavHx8aFqdunSpbt374p3qACkaACQNVQbAADd0rau5qVnxa3ec6j5MK/KnfZW6YYgDQDyFBIScrwkaqH8HBcXRxFa9DvnFYQUDQCyhmoDAKBb5a6r7Na0kf5eNACADiFFA4CsodoAAOhWBetqXnpWwma/nJQ08QYAABlg3zqmb0jRACBrqDYAALqFugoAJky6xOkKUjQAyBqqDQCAbqGuAoAJky5xuoIUDQCyhmoDAKBbqKsAYMKkS5yuIEUDgKyh2gAA6BbqKgCYMOkSpytI0QAga6g2AAC6hboKACYM3y4GAIBqAwCgY6irAAAVhBQNALKGagMAoFuoqwAAFYQUDQCyhmoDAKBbqKsAABWEFA0AsoZqAwCgW+WrqxcuXFi5cuW0adPc3d2///77xMREvun06dOLFi2aMGECbZo3b15ERMTfu6mTn5+/ZMmSpKQk8QaQNGTIEC8vL3ErALwMSNEAIGuoNgAAulW+umpra1tJwNLSMigoiG3q16+fcFPlypV9fHyE+3LPnz/39/efM2cOdfvXv/61e/fuzMxMcSfQYNmyZSEhIeJWACgJ3y4GAIBqAwCgY+Wrq/3796cAnJaWFh4e7uDgQDGYwjPbdODAgcuXL2dnZ1+5cqVRo0a06R//+IdwXyYqKqp169bNmzefMmUK9fn4449dXV3r1Kmzf/9+3icvLy8iIiIyMjI/P583Pnjw4OnTpw8fPgwMDBTdwaZNKSkp/GFhYeGdO3cePXrENuXk5LD23Nxcaqd/+V6aBtQ0Adr97t27jx8/FvQtRrsHBQVdu3aNDs0b2fj84b179549e8baNU2JFBQUXLx48ezZs3QmeaNQamoqHzY+Pv7kyZOXLl0SzlPT5GmvzMzM4ODgW7du8XYAUyVd4nQFKRoAZA3VBgBAtypeV4cPH04x2NnZWbxBoejSpQttGjNmjKi9qKioRYsWQ4YMoYBHKZH6UIKl9nnz5lWtWpVyJq1TPm/cuHH79u3btGnz+uuvUzJn+1LL6NGjmzRp0q1bN+q8YsUKPixtqly5clxcHHu4b98+Gnns2LFs0549e1j7xIkTqZ0/I00DSkygYcOG1Ghra0vr/N3s48aNa9q0ae/evWmojh07pqen8/47d+5k64SG8vPzY+2aphQbG0vnp1WrVjQlBweHo0eP8t25Tp06/frrrxTXP/roo9dee+3999+nl6Bv375sq8Tk6VjUQrtbW1uvX7/+7xEBTJF0idMVpGgAkDVUGwAA3apgXX3w4IGjoyMlwMWLF/NGb2/voUOHtm3bltop3SUnJwv2KHbt2jXadObMGVoXpuicnBwzM7Pff/+9oKCgdevWs2bNYv2nTJnyzjvvUPZWKHMghUB2hzk4ONjS0jIhIYF1o00uLi4zZsxgD3v06OHq6ipK0WFhYTRhe3t7YYpWHVB6Amyo58+f9+zZc8GCBazPnTt32Aol22HDhs2ZM4c9LDVFi6ZER3Fzc5s/fz7rf/DgQdoqvJvNsBQdFRVFYZ5vzcrKUijvY0tMnsI2u4u+b9++6tWrC2+bA5ge6RKnK0jRACBrqDYAALpVkbqakpJCkYwy8KBBgyhS8vYff/yxTp06lIdpEyXAkydPCnYqduHCBdoUGRmpKJmiKf5VqVLlt99+i42NpcbU1FTWn2ItPbx9+7ZCmQOXLl3Kh+rQoQO/oUqbNmzY0KBBAxrz8uXL9HDmzJnCFE2JsWPHjp6entRHmKJVB5SegIeHR3h4+IEDB5ycnA4fPsz6UEw9ceIEnaslS5YMHjyYv8Wd+i9evDj8hYYNGwpTtOqUbt68SceiPB/xgp2d3blz59hoHEvRFN2trKyWLVsWHx/PN0lPnmbI2jMyMqj97t27fEcA0yNd4nQFKRoAZA3VBgBAt8pdV6OjoylDUgwbOXKk8JO3XHp6eq9evahD8+bNRZuePn1avXp1dvtamKL/+OMPWqcAHBQUZGFhwfs/e/aM2s+fP69Q5kCK2XzTwIED582bx9bZXd/PP/+csvTEiRMpZIpS9MaNGzt37kxxV5SiVQeUngChkOzq6vr2229fuXKF9Rk0aBA9XLRo0dq1a0eNGkUpl7VT53bt2vV7wcbGRpiiVadE+dnMzIz3Z0JDQ/+aygssRdPKsWPH+vfvT8M2a9bM29ubWqQnz2+Ms/br16/zngCmB98uBgCAagMAoGPlq6unTp2yt7enDPb111+ztwozz58/Fybq2bNnUx9houM8PT2tra2nTp26f/9+6vPTTz/RgShaf/nll7T1xo0b1MjfCh4TE8MfUg7k73Ymb7311qZNm9g6i4gU71u0aNGwYcOcnBxhil63bp2DgwP75S1RilYdUHoC/PPMS5cudXNzUyjv91L05d83RgMKU7Smd3SrnVJSUlKlMtwi5imaycvLo/RuaWlJc5CePFI0gM4hRQOArKHaAADoVvnqKsVdCmBVqlTp8EKfPn2oPTExsW7duhRc582bN27cOCsrq0rKj0YL9+Uo7k6bNs3FxYX6UO4dM2YMf+83JXMac/LkybRSUFAwYsSI7t27s02UAylwspBJcZSiOI+LPCLOnTt38+bNtCJM0fXr158+fTrrKUrRqgNKT4Cl6Pz8/AkTJnTp0oXWb926Rc+C3ZemXOro6FiWFK1pSr179x4+fPiTJ08UylNBp4Xm8GKAv7AUTZGbf5vamTNnzM3Ns7OzpSePFA2gc0jRACBrqDYAALpVvrpK+blSSbVr16b2+/fvs7d5M9Tt008/pUbhviLCd3QLUcZu164dZXIamTLhjRs3WDvlQMredJTmzZvb2Nh4enryXUR5VVEyRdNQ/PeoRSla7YASE6BudnZ2NWvWpHQaFRXF2ulYVatWZT/f9dVXX5UlRWuaUkpKysCBA6tVq/bGG2/QUZydnVXfM89SNCVne3t79p3htLJx40a2VWLySNEAOocUDQCyhmoDAKBb+qirqamplOJu3bqlmv20RXmS/fAVx3Jgbm4uHYJ9JXUFSQ+oOgEJ9MTj4uJU7xuXT3Z2dkxMDPvycFUUrXfv3q1QfiVbYmIiHZf9DLWQVpMHgHJDigYAWUO1AQDQLaOrq6o3nCtI5wPqW0ZGxtatW6tUqRIbGyveBgAl4dvFAABQbQAAdMzo6uqMGTNU3/5dETofUN+uXbv2ySef+Pj4iDcAgArpEqcrSNEAIGuoNgAAuoW6CgAmTLrE6QpSNADIGqoNAIBuoa4CgAmTLnG6ghQNALKGagMAoFul1tWXu4gnBACgDcOUEaRoAJA1VBsAAN2Sc12VnhsAQKnw7WIAAKg2AAA6Jue6Kj03AACZQIoGAFlDtQEA0C0511XpuQEAyARSNADIGqoNAIBuybmuSs8NAEAmkKIBQNZQbQAAdEvOdVV6bgAAMoEUDQCyhmoDAKBbcq6r0nMDACgVvl0MAADVBgBAx+RcV6XnBgBQKsOUEaRoAJA1VBsAAN2qYF3NS89K2OyXk5Im3qAL0nMDACiVYcoIUjQAyBqqDQCAbpW7rqYcPnOy97T9td9PDboo2qQr0nMDACiVYcoIUjQAyBqqDQCAbmlbV/PSsy7O+MnXrrdXZdd9Nu/qL0IrSpsbAECpDFNGkKIBQNZQbQAAdKvsdTXl8JljHcd6mbtRo1/dfn519HgXmpGeGwBAqfDtYgAAqDYAADpWal1dPOu7Le9+6m37rlflTvSQlj+afGiACK0obW4AADKBFA0AsoZqAwCgW6XW1Ze7iCcEACA/SNEAIGuoNgAAulVqXV0867tfh071qdt3X41e3uadqcXHovN+u14GuBcNAGAUkKIBQNZQbQAAdKvsdTUtJPL0P+f4VO2+rzrFaTcEaQAABikaAGQN1QYAQLe0rat56Vlxq/f4Ow32quy617obgjQAyBm+XQwAANUGAEDHyl1X00Iiz3z8nV5/LxoAoIKkS5yuIEUDgKyh2gAA6FYF62peelbCZr+clDTxBgAAGZAucbqCFA0AsoZqAwCgW6irAGDCpEucriBFA4CsodoAAOgW6ioAmDDpEqcrSNEAIGuoNgAAuoW6CgAmDN8uBgCAagMAoGOoqwAAFYQUDQCyhmoDAKBbqKsAABWEFA0AsoZqAwCgW6irAAAVhBQNALKGagMAoFuoqwAAFYQUDQCyhmoDAKBbqKsAYMLw7WIAAPqqNhcuXFi5cuW0adPc3d2///77xMREcQ+FYsuWLUuUnjx5It6mUOzevZttXb58+fbt29PT08U9XgFDhgzx8vIStwKAvOmprgIAyIF0idMVpGgAkDU9VRtbW9tKApaWlkFBQcIOR44c4Vvv3bsn3MT069evffv2lMMnT57s4uJiZ2cXHR0t7mTqli1bFhISIm4FAHnTU10FAJAD6RKnK0jRACBreqo2/fv39/f3T0tLCw8Pd3BwoKhMqZhvzcjIaNCgQa1ataRT9JdffsnWi4qK2rVrN3v2bL41Ly8vIiIiMjIyPz+fN9Kw586do7guHPDBgwd37ty5e/fu48ePhY1Pnz59+PBhYGBgUlISb2eohQa5du1aYWEhb2S7sPVHjx5lZWWx9ezsbHqavJvafUlBQcHFixfPnj1L/VkLDXJHhfDpkNTUVH5QEh8ff/LkyUuXLgm7qT0VbLaZmZnBwcG3bt3i7SI0SRqTJkyH5o1qBxRRuyM71ULPnj1j7Tk5OaxPbm4utdO/0uPw/k+ePKHXjq2rnRh1TklJ4Q9pQBqKzi1v4crxoitUZkgT4/Mh9ASpne2idnoK5VMQnhPhC6p2F7V/sWBc9FRXAQDkQLrE6QpSNADImgGqzfDhwykqOzs785YxY8ZYW1tv2bKl7Cm6ffv2NBP2kJJ548aNqaVNmzavv/765cuXWTs1uri4uLm50eArVqxgjdStYcOG1NPW1pbW2XvLaWX06NFNmjTp1q1b1apVeWcybty4pk2b9u7dm7Z27NiRv5Ocdtm5cydbp315pP/xxx/5/yDQtG9sbGyLFi1atWpFh3NwcDh69Cg1zp07t40STYDNkFBPtgvTqVOnX38t/vQR5bSPPvrotddee//99+lM9u3bl3XQdCqoZeLEidRCI9DZWL9+PR+Ti4uLo6GcnJx69epVr169AwcOKDQPKKR2R4XgVDNWVlZ+fn6sfc+ePawPzYpecfbnJDEO65+cnNy8eXMPDw+F5olRS+XKlWko9nDfvn00/tixY9lDoXK86KozzMjIoD6rV69mHQYNGjR06FCF5umRdevW2djYsHNCr8XWrVtZu6Zd1P7FgnExQF0FAHhZpEucriBFA4Cs6bvaPHjwwNHRkYLN4sWLWYu/vz89pPB59uxZ6RRNAYaC9PTp07t06UK5MTU1VaG8qdu6detZs2axblOmTHnnnXcoZrNNrNHX15cCJ1vnkez58+c9e/ZcsGABa6Tcwu5YBgcHW1paJiQksP78pigF12HDhs2ZM4ePU2qKVrsvzY2C/fz589mmgwcP0gkR3pCkoMtHFuEpOioqijIV34vdCZc4FTRbOnvsZiYFy+rVq4tusVI3FxeX8ePHs3YaKjMzU2JA6R3ZJuEpInSGRSk6LCyMnru9vT39OUmPQ/1TUlJatmzJ/mwkJkadaZwZM2awTT169HB1ddWUorV60TXN8Pz58/Ra0HNZuXIlJWrK1RLTI/SfD/3hsfUOHTqwFC2xi9q/WDAu+q6rAAAvEb5dDABAv9WGghBlOcrJgwYNokigUL6NuX79+pSKKZmUmqK7du26fPlyDw8Pd3d3Jycn9gnh2NhY2oUlakJBiB7evn2bPQwPD//jjz8GDBjAYxVlEhqB2g8cOECDHD58mDUuXbqUdVAosw2/W0tJ5sSJE/SUlyxZMnjwYJ6Qy5Ki1e578+ZNmiHFtogX7Ozszp07x3ZRlC1FU8yzsrJatmxZfHw83ypxKmi2NA3WTjGP2oXvQyY3btygRuF7oRWSA3Jqd2SkUzS94h07dvT09GzQoAH9OUmPs2bNmlatWk2YMIG1SEyMOm/YsIHGzM7Ovnz5Mj2cOXOmphSt1YsuMcNVq1bRESlLU6JWSE6P0N8w/wvhKVpiF7V/sWBc9FpXAQBeBUjRACBr+qs20dHRlAEoG4wcOZJ/7POXX36hln/961807Pjx4yspUew5c+ZMyb1LvKObfPfdd23atKGVoKAgCwsL3v7s2TMagYUZMmfOnL59+zZr1oy/hbi9Eo3m6ur69ttvX7lyhTX+9ttvfJCBAwfOmzePrVPgp26LFi1au3btqFGjKMfycUpN0Wr3pfxsZmbWr6TQ0FC2i6JsKZocO3asf//+NjY29Oy8vb0VkqdCOFvWfv36dd5ToZyVcF9GYkBO7Y6MdIreuHFj586dKa+yFC09jpWV1YABA6gnu3UsMTF20M8//5yy9MSJE+l0SaRorV50iRnevXuXZtitWzf2UGJ6ZPr06WPGjGHrPEVL7KL2LxaMi/7qKgDAKwIpGgBkTU/V5tSpU/b29hQMvv76a+FbgtetW8eSswhlUcHexfqVTNGUkapXr654cYcwOTmZtcfExAgfMlevXrW0tMzIyFC8iHCsfenSpW5ubqyRv8WavPXWW5s2bVIobwlS4uXf6kR9yp6iNe2blJRUSeVWsFAZUzSTl5dHSY+eHR1I4lSUmqLZrERfsiUxIKd2R0YiRdPr7uDgEBERQQ9ZipYeh5KnQnmehw8frpCcGDtodHR0ixYtGjZsmJOTI5GitXrRNc2woKCgR48eFLYbNWpEf5YKyekRFxeXVatWsXWeoiV2UfsXC8ZFT3UVAODVgRQNALKmp2pDiZdSQZUqVTq80KdPH4XyncnHX6A0WEnJx8dH9XukKZp+/vnn2dnZWVlZly5datu27eDBgxXKN9/SaJMnT6YVyjMjRozo3r27QpkV+ddfHzt2jHIm+55nnkny8/MnTJjQpUsX1khZjiVbSnrW1tYswNA0aD7s7h/FTkdHx7KnaIl9e/fuTWmQ/Sw2TfvkyZP8I9yKsqVoynL8C7TOnDljbm5OT1bTqVCUIUWTnj17Dhs2jJ0lypApKSkSAwqp7sjaJVJ0/fr1WTBWvEjRCslx2EuWmZnZuHHj7du3S0yMH3Tu3LmbN2+mFYkUre2LrnaG8+bNo79Gajx9+rStrW1kZKTE9AICAqysrPjnrnmKlthF7V8sGBc91VUAgFcHUjQAyJqeqg3lZ5aQudq1a4v6lPq5aLa1cuXKlMHc3d35D0pFR0e3a9eubt26NCZFkRs3biiUHz+uVasWxZtWrVpRO/8mZMokNjY2dnZ2NWvWpKASFRXFGqdNm+bk5NS8eXPa6unp+ddRlRmsatWqrVu3pk1fffWVMEWzcQhFdHqCbJ3CmIWFxaRJkyT2pfQ1cODAatWqvfHGGzQNZ2dn4S8blSVFU3K2t7dnX91MKxs3bmQd1J4KRdlS9O3bt3v16kWzatmyJY35559/KjQPKKR2R4VkiqYB+ZeH8RQtMQ6/GRsYGEhnLDExUdPERAdVSKZobV901RmeOHGievXq/KfLPTw86DXNzs5WO72DBw+aKbE/FWJubk4HOnTokELzqVb7FwvGRU91FQBADvDtYgAAFa02eelZCZv9clL+/sFkg6FoKorfFE3j4+MTEhIkfuiYYdErNzeXkgz/5WcuNTU1Li5OeLtY2tGjR0ePHs3WJfalrBUTE6P2p4w1oby9e/dutk5jUpikwdmPMAupnoqyy8jIiI2NFX5nuKJsA6rdsRy0GqcsE9Ok3C962Wcomt7evXvHjx8v2F6MEj77nwtMRZ4RyFYF6yoAgJxJlzhdQYoGAFkrd7VJC4k8/c85vjX7pAZdFG2SP9UbmBURGhoq/MCtTlBy27p1a5UqVUS/IA3lptsXvSwCAgKWLFkialy0aFFQUJCoEUxMuesqAID8SZc4XUGKBgBZ07ba5KVnxa3e4+/0oVdlVx+Lzg8CwkvuYRxmzJgRGBgobpWTa9euffLJJz4+PuINUF7yf9HBZGhbVwEAjIh0idMVpGgAkLWyVxt289mnavd9NXpR+94qXY00QgMA6FWpddXDw8PT0zMkJES8DQBA9qRLnK4gRQOArJVabRbP+u7XoVN9HPv61ujlbdGFWhChAQAklFpX6RLOx8fn0qVL4m0AALKHbxcDACi92vxu3ZUlZ754V+50dYkn1VBaZ5UU61jHOtaxLlyXXnbs2EGXcPzn6wAAQAQpGgBkrdRq89e96Nc+2F/7/X3VerJLQB/LLvf+FyruDQAAAp6enj+XRC0+Pj50/Xbp0iX26+UAAKAKKRoAZK3s1SYtJDJ01Py9Nj0OOH6AIA0AUKqQkJDjJVEL5ee4uDiK0Kq/uAYAAAxSNADImrbVhn1H96Hmw7wqd/K26IwgDQAAAAC6hRQNALJW7mrDbk372hvl70UDABgG+7A0AIDJMExZQ4oGAFmrYLXJS89K2OyXk5Im3gAAAKXVWAAAo2OYsoYUDQCyhmoDAKA/0jUWAMDoGKasIUUDgKyh2gAA6I90jQUAMDqGKWtI0QAga6g2AAD6I11jAQCMjmHKGlI0AMgaqg0AgP4Y5mt4AAAMxjBlDSkaAGQN1QYAAAAAZAUpGgBkDdWYFiTiAAAwLElEQVQGAAAAAGQFKRoAZA3VBgAAAABkBSkaAGQN1QYAAAAAZAUpWgt5eXniJgDQs1ez2gAAGIZhvoYHAMBgDFPWTDBFP3/+fNeuXZMnT3Z3d1+9enVGRoa4hzb8/Pzee+89R0dHS0vL6dOnizcDgJ7JudoAABg76RoLAGB0DFPWTC1FZ2Zmurq6tmjRwsPDY82aNe+++279+vWvXbsm7lc269evr1ev3p49ex48eFBYWCjeDAD6J9tqAwBgAqRrLACA0TFMWTO1FD1+/HiK0I8fP2YPi4qKhg4d2rZtW1p59OjRHRX5+fmsZ15eXkRERGRkJG/Jzs62tbUNDw+/qJSbm8vaCYXqp0+fPnz4MDAwMCkpibcTehgUFES5nafugoICOhB/N3haWhqNzNazsrLu37/P1hXq9mVoBJrA2bNn+Y7Sz4WjceLj42lM2sobafKiHZ89e8bac3JyWB96stQufMpqh1I9aYqS4zx58uTu3bt8E6fVCWREE6BDCEemp0DtfBe1E1Mo5yN84jQHvkntLuxc0YH4X5SIppPJqB0TtCXbagMAYAKkaywAgNExTFkzqRRNGcnKymrLli3CxtjY2EqVKlH6mjt3bhulqlWrNmzYkK3TVupDUblx48bt27enltdff/3y5cvUGBISQj2bNWv25ptvOjs70y7nz59nY1LP0aNHN2nSpFu3btRnxYoVrH3cuHFNmzbt3bs3berYsWN6erpCmeTd3d379+/PolS/fv1Wr15NK4mJiY0aNdqzZ4/Evgrl/Fu0aNGqVSs6loODw9GjR6lR4rlwcXFxNG0nJ6devXrVq1fvwIEDrJ0mz3chdMb8/PxYO5/MxIkT6aTxl0/tUGpPmnCc5OTk5s2be3h4sHYhrU6gQt0EMjIyqA87k2TQoEFDhw5l65omRtatW2djY8OeuLW19datW6V34efK1taW1uklezHSXzSdTIXmMUFb8qw2AACmQbrGAgAYHcOUNZNK0WFhYZT9rly5ImqvUaMGj1ukU6dOO3fu5A8LCgpat249a9Ys9nDKlCnvvPMORV+aPI02adIk1v7tt99Smn3+/LlCmZ0oFz169IjWg4ODLS0tExISaP3Oi/u0hYWFw4YNmzNnDntIh6CHI0aMoHaWou/fv0+j/d///R/roGlfmoabm9v8+fPZpoMHDzo6OgrvoIqeC0c7uri4jB8/nt2epQlkZmayTTR54S70REQpmk4jHcXe3p69fGqH0nTS+DgpKSktW7ZcvHgxP5CQVidQ7QRo5fz58xRuabYrV66kRM0+AC8xMUJ/kz179mTrHTp0YClaYhd+Tuh1px0XLFjA+nCaTqbEmKAteVYbAADTYJiv4QEAMBjDlDWTStGUxyj33r59W9TeqFEj4R1RUfJkN6tTU1PZQ4pzbBA2Wnx8PGtPT0+nh+yOImWnpUuX8hEoj61fv16hzHsnTpygJ75kyZLBgwdTYOZ9cnNz33jjjcmTJ1MjnRwaYcaMGXyrQsO+N2/epIPSTCJesLOzO3fuHN9LU4q+ceMG7UhRVrxBc/BjiZGSaseOHT09PRs0aMBePrVDaTppbJw1a9a0atVqwoQJwl2EtDqBaifArFq1iuZJWZq/TUBiYmT58uX8ReEpWmIXmif95YSHhx84cMDJyenw4cOsD6fpZEqMCdqSZ7UBAAAAgFeWSaVoSryUVUJCQoSN+fn55ubm27Zt4y2i5BkUFGRhYcEfPnv2jAahVHbx4kVaefLkCd9kbW197NgxhTI7/fbbb7x94MCB8+bNUyjfV/z2228vWrRo7dq1o0aNogPxPjSr2rVru7q6WilRlqNUJvy0rdp9KT+bmZn1Kyk0NJTvpSlF047CJyWkKfixFL1x48bOnTtTmuUpWu1Qmk6aQjkOPcEBAwbQCOxusyqtTqDaCTB3796lY3Xr1o23SEyMTJ8+fcyYMWydp2iJXdor0TmnF44mpvo2B00nU2JM0JY8qw0AAAAAvLLklaIvXLiwcuXKadOmubu7f//998KPofr7+y8p6ezZs3/v+UKzZs2mTp0qbNm+fTvlGf5WYYVK8mS3OpOTk9nDmJgY9jAzM5NW+Pd737t3jz+k7MTfZU3eeuutTZs2JSQkUOLlwZg68BSdk5PTokULOiilyqZNm37yySfUOHLkyMmTJ7MOmvZNSkqig6r9gi5GU4pmO4q+uIvRFPyofd26dQ4ODhEREfSQp2i1Q2k6aQrlOOwnwUaPHj18+HDhXpxWJ1DtBBTKd0336NGDwnajRo02bNjAGiUmRlxcXFatWsXWeYqW2IX9nwXWvnTpUjc3N7bOaTqZEmOCtvRUbQAAAAAAykdeKdrW1raSgKWlZVBQENs0duxY4Sby448/lty72N69e62srHbs2ME+g0pJu169ejNnzhT2ESVP6kmBigItrVAwGzFiRPfu3dmmfv36UdalRto0ceJEikzso7m0QiGThVtKTdbW1hSQbt26VenFp7KvX7/u6OjIU/SXX345ePBgPib7kPbDhw9pbuwUSezbu3dvyqLsljhN4+TJkzQftkmh8lyEevbsOWzYMPZ12RRN+TuiNQU/aq9fvz7/TWyeohXqhpI4aTx5ZmZmNm7cePv27axdSNsTqDoBWpk3b17btm2p8fTp0/SXExkZqZB8NQMCAuhvg///FJ6iJXbhzyU/P3/ChAldunRh7ZymkykxJmhLT9UGAAAAAKB85JWi+/fv7+/vn5aWFh4e7uDgQJmq34tPsbIUPWvWLL8XKGiV3Psvu3fvbtiwob29PWXCatWqLViwQPSbSarJMzo6ul27dnXr1q1duzaFnxs3brD2pKQkV1dXaqRNbdq0uXr1Kmun7DRt2jQnJ6fmzZvb2Nh4enqydorrVatWbd26NbV/9dVXLASGhITUqVPn3r17rA9P0WT//v38fd1q9yWUGAcOHEhP5I033qhZs6azs7PwZ5NUnwt3+/btXr160Y4tW7aks/Hnn3+ydk3Bj9rpafIvIROmaLVDaTppwvu3gYGBNGe1X21d9hOoUDeBEydOVK9enebAOnh4eND5Yb8EpnZiBw8eNFOye8Hc3JyOdejQIU27KJTzpOlRZ3oWFIOjoqJYO6fpZCo0jwna0lO1AQAAhaG+hgcAwGAMU9bklaKFhg8fTrGZQiN7yFL03LlzKaGdOXNG+gd4i4qKbt68GRsby3+luSwor/KsK3T//n3Re3FZdsrNzaWklJWVJdyUmpoaFxcnvF1cdhL7Uj6MiYnR9DFjCRkZGXQehF/rXW5qh9J00qSV7wSqnYAmoont3bt3/Pjxgu3F6I+Kh16Fyi46oY8xXzUGqDYAAK8s6RoLAGB0DFPWZJqiHzx44OjoSLGZ/1SS6B3dLVq0UL0xaDCiO5CgLcOfwICAgCVLlogaFy1axD8yALKl72oDAPAqk66xAABGxzBlTY4pOiUlxdnZmaLyoEGD2O8zk2XLltGYXl5ea9asqVOnDm1t165dyf0MZ8aMGYGBgeJWKDOcQCg7vVYbAIBXnHSNBQAwOoYpa7JL0dHR0U5OThSSR44cqelt2xs3bmR3pMvxDmcAMC76qzYAACBdYwEAjI5hypq8UvSpU6fs7e0pHn/99dfsS7a52NhYvu7h4cFSdHp6uqCLXmj1yWoA0Dk9VRsAAFAY6mt4AAAMxjBlTV4punr16pSNq1Sp0uGFPn36sE1mZmbvv//+rFmzPvvsMysrK+rWt2/fknvrjJ+f33vvvefo6Ghpacl/+enlmjFjRkhIyLNnz4YNGybx89EApkdP1QYAAAAAoHzklaIpP7ObzFzt2rXZpg8++IBvtbCwcHd319ON6PXr19erV2/Pnj0PHjwQ/UTWSxQVFdWhQ4cmTZrMnTtXvA3ApOmp2gAAAAAAlI+8UrS0vLy8pKSk69evl/Fd1hSD79y5c/fuXfaDzMJ20a8lFRUVUc+CgoLs7GxbW9vw8PCLSrm5ubwP2+vhw4eBgYE0DcHexT8rHRQUdO3aNWHqFh3l3r17z549K3UTPbWIiIjIyEjhZ8Kpf05ODlunKdFUhRPj2PMVkh6WPHnyRNifz0p4ROojvPut+mQfPXokHIThB6KzSmfy7Nmz7MecGdFUeWfVeUqcdk2nRVM7GKmXUm0AAAAAADQxphStrfbt2zds2LBNmzYUjGk9MTGRt4t+ZikjI6NSpUoUt0JCQqpWrdqsWbM333zT2dmZdj9//jzfa/To0U2aNOnWrRv1WbFiBWsfN25c06ZNe/fuTZs6duzI75CLjvL666/znybWtInSe+PGjWkrzZkaL1++zPvv2bOHrU+cOJGmqvbE8ufLWFlZSQ9L1q1bZ2Njw/pbW1tv3bqVD8WOmJyc3Lx5cw8PD9au9snOnTuXjUCnhU+AfY6d/m3RokWrVq3opDk4OBw9epSPL5zq1atXFRrmqem0s01qT4umdjBSRlFtAAAAAODVYeIpmqWp58+f9+zZc8GCBbxdU4qmCdPKpEmTWPu3335LIZD92hbtRdGOfSt4cHCwpaVlQkICrdNerHNhYeGwYcPmzJnDHmqKypo2FRQUtG7detasWaxxypQp77zzDvuKNf5EwsLCHB0d7e3t1Z5YbYcl9BrRmWHrHTp0EKXolJSUli1b8p/sVmh+skynTp2EE6CjuLm5zZ8/nz08ePAgTZ7d7lZ9CTTNU9NpV2g+LZrawUgZRbUBADBShvkaHgAAgzFMWTPxFO3h4REeHn7gwAEnJ6fDhw/zdkqG1B4bG8ve68tTNOU0WomPj2c909PT6SG/Kbp06dIXYxdnzvXr1yuUWfHEiRP0ZJcsWTJ48OB+/fqxDvwoTMOGDYUpWnUTTYaOlZqayvpQVqSHt2/fZv0pFlJw7dixo6enZ4MGDdSeWLUpWmJYsnz5cj5hUYpes2ZNq1atJkyYwFoYTU+WEaXomzdv0rHolEa8YGdnd+7cOYXKVBXKu9Zq56nptCs0nxZN7WCkjKLaAAAYKekaCwBgdAxT1kw8RRNKeq6urm+//faVK1d4e7t27Vh77dq1KWPzFH3x4kVaefLkCR/E2tr62LFjbK/ffvuNtw8cOHDevHm0MmjQIBp80aJFa9euHTVqFCVJ1oEfhbGxsRGmaNVNQUFBFhYWfPxnz57RTNj7yVks3LhxY+fOnSnHaoqFalO0xLBk+vTpY8aMYeuiFG1lZTVgwAA6lvBHuTU9WUaUoik/m5mZ8afJhIaGKlSmSjTNU9NpV2g+LZrawUgZRbUBADBS0jUWAMDoGKasmXiK5p+PXbp0qZubG2/nEY7anZ2deYrOzMyklWvXrrGt9+7d4w9pL/7mZPLWW29t2rQpISGBgiL/9jLqIEzRqplWYtONGzfoWMnJyawxJiaGP6T+69atc3BwiIiIoIeaYqG2wxIXF5dVq1axdVGKZj/xNXr06OHDh7NGiSfLiFJ0UlISHUvt73KppmhN81R72tm6ptOiqR2MlFFUGwAAIyVdYwEAjI5hytorkaLz8/MnTJjQpUsX3s4iHGvv3r07T9HU2K9fv5EjRxYUFBQVFU2cOJE6sy+jphXKYywTUjq1tramjHfr1i3akd3lvn79uqOjY7lTNB2OcuzkyZNphY4+YsQImhjvX79+ff7L1ZpiobbDBgQEWFlZ8Y86q34umlYyMzMbN268fft2Wpd4sowoRZPevXtTCGf39mkCJ0+epDkoVKbKtqqdp9rTznbRdFo0tYORMopqAwBgpKRrLACA0TFMWXs5KTovPSths19OSpp4g05RmrKxsbGzs6tZsyZFsqioKLXtly9fFqbopKQk9k7vunXr8q+PZntNmzbNycmpefPmtLunpydrnzlzZtWqVVu3bk3tX331VblTNK1ER0e3a9eOjktHp0h548YN3p8aKdCyh5pioVbDHjx40EzJ7gVzc3N6IocOHWJD8dv4gYGBdKLYN5xrerKMaopOSUkZOHBgtWrV3njjDRrE2dmZ/YSVaopWaJinptPONqk9LZrawUhVsNoAAIAEw3wNDwCAwRimrBk6RaeFRJ7918L9td5LDboo2iQr9+/f5/c8GRb8cnNzKexlZWUJN6WmpsbFxbG7rBVHyfPevXvi1goTDbt3797x48cLthcbO3Ysj/qalOPJZmdnx8TECD9fLUE0T4nTDq+IclcbAAAAAAB9MFCKzkvPilu958ibI7zNOvlYdL6xybfkHkZA7e1T4xUQELBkyRJR46JFi4KCgkSNL5eJnXYoB22rDQAAAACAXuk9RbObz/tq9D761ijfGr28K3e68cs+8Q7GYMaMGYGBgeJW0DOcdih7tRFvAwAAAADQA32l6MWzvvt16NS9jQf6Nxp09M0R3uZu1Gi8ERoAXpZSq42Hh4enp2dISIh4GwAAAACAHugrRf9u3bU4Ntt2p3/5cmHqf68u+pVW2Ge+sY51rGO91HUvQQ1Ru/z8888+Pj6XLl1SAACAlljJBQAwGYYpa/pK0cX3oodM8XF4f1+1Hl6VO7GL3b1WXe8fPyfuDQBQBh4eHgsXLlzw5vsLX6AWitA7duw4fvx4XFyceAcAACiN9BUdAIDRMUxZ01eKFn4uOmTINz7W3Xysi+9LI0gDQPl4enpSVVlSq/jmM0MtPj4+VGcuXbrEflQcAAC0In1FBwBgdAxT1vSeollLXnpW7E+/H2w40Kuyq7d5ZwRpANBWSEgIlZSfLd85/gK1UH6Oi4ujCI0fQgMAKAfpKzoAAKNjmLJmoBTNsVvT+2r0kvnvRQOAPEkXHwAA0AqKKgCYGMOUNUOnaCYvPSths19OSpp4AwCAJMN8YwQAwCsCRRUATIxhytrLSdEAAAAAAAAAxggpGgAAAAAAAKCskKIBAAAAAAAAygopGgAAAAAAAKCsypmiRQzzGW4AAFQbAAAdQlEFABNjmLKmmxQtfWsaAEBXUG0AAHQIRRUATIxhyhpSNAAYE1QbAAAdQlEFABNjmLKGFA0AxgTVBgBAh1BUAcDEGKasIUUDgDFBtQEA0CEUVQAwMYYpa7pJ0Yb5DDcAAKoNAIAOoagCgIkxTFnTTYoGgFdKfsbjB4EXX5ElPzNb/PwBAHTtFamrqKgAYBqQogFAa3Ql5FXJ9RVZUoMuip8/AICuvSJ1FRUVAEwDUjQAaI1d7cWu/ulBoJcJL7GrfsI1HwAYhsnXVVRUADAlSNEAoDV2tUdXRUVFl0x4uX/SC9d8AGAYJl9XUVEBwJSoSdExMTFJSUnClvT09PDw8KKiImEjALyyTP5qjy3smu9/q34NDQ2NiIiIj49PTk7OysoSnw4AgAoz+brKKmrghh0opwBQbomJieFKkZGRt27dUs2nvMOFCxcSEhKeP38u6qAralJ0p06dxo8fL2zZuXNnpUqVnj17JmwEgFeWyV/tsYVd8/ksWunv7x8QEBAWFkZXfmlpaeLTAQBQYSZfV1lFPbBsHcopAJTb2LFjLSwsateubW9vb2ZmZmdnN3HixAcPHqh2IObm5o6Ojvv27RMMoDNI0QCgNZO/2mMLu+bbOWfZ7t27/fz86MovIiIiOTlZfDoAACrM5Osqq6h75q9AOQWAcqOQ3KNHD7aem5t77NixNm3aNGnS5OHDh6odKL1Sxra2ts7JyWEtOqR1ir5y5cqoUaPefvttNzc3d3f3e/fu8W6HDh0aMGCAs7Pz8OHDL17863MvS5cu/f333zds2NClS5fPPvuMdwYA42XyV3tsYdd8O7712LZtGwVpf3//0NDQxMRE8ekAAKgwk6+rvKKinAJAuQlDMkNp1NbW9ttvv1XbITAwkGJsfHw8b9EV7VI0Jf66detOnTr15MmThw8fnj9/Pp/Tli1bqlWr9sMPP5w4cWLhwoVVq1aNioqi9j59+jRo0ODDDz/09vamXYTDAoCRMvmrPbawaz7vhT9Rit6+fbuPj09AQIA+CjEAgMnXVZ6iUU4BoNxUUzQZMWKEs7MzWxd2uH///qhRo5o2bZqfn88764p2Kfr69eu0cvfuXeFW8vz5cwcHh7Vr1/KWcePGjRw5UqFM0W+++abqJ78BwHiZ/NUeW5CiAcBgTL6uIkUDQMWpTdFz5sypXbs2W6cOlQTq169/4cKFkt11Q7sUTWm5bdu2TZo0+eabb44fP85j/ZUrV6jDlClTFi5cuGDBgvnz5/ft27ddu3YKZYqeOnWqcDQAMHYmf7XHFqRoADAYk6+rSNEAUHFqUzQlU0dHR7ZOHSjMJipFRERQDnVwcLh161bJPXRATYp+7733RowYIWzZsGGDlZVVYWEhrWdnZ2/atGnIkCE1atRo1qxZQkICNZ4/f55SND2B5QK//PKLQpmiZ8+eLRwNAIydxNXezZuHwsJ2CZfHj0+rdpPPsmHDnF9/XaDaXoQUDQAGJFFXiwSlNTz89xs3/sjPD1ftU/Zl2bIZe/b8oNpe8aXUiooUDQAVoTZF9+vXr0uXLmxd1KGoqKh27doLFizgLbqiJkVPnjy5TZs2wpZp06a1atVK2KJQxmlqpOSsUP6gtJmZmdqvEUeKBjA9Eld7Y8cOompga1uVL2fObFPtVr7l888/Xr78C9X2iiyjR/9j/Pghqu1FSNEAYEASdbVIWVotLMxr17ajxdzczNGx9t69P6p2K+PSp4/r7NnjVNsrvpRaUZGiAaAiVFP0hQsXzM3NV69erbZDYWFhrVq1Zs2axVt0RU2KDg8Pr1y58n//+9/c3Fw68P/+979q1aqtWrWKNiUlJdFDdlOakvPrr7/+ww8/sL0+/fTTZs2asW8UI9HR0cePH1cgRQOYIomrPbrU69Gjg2q7TpYBA7p/+eUo1faKLKVe8yFFA4ABSNTVopKlNSfn3MSJw6ytrZ4+PavasywLUjQAGCkKya6urtevX4+Lizt9+vTixYtr1KjRs2dPyq2iDoQC9qRJk8zMzEJCQkoOowNqUjTZuHEj+yXrKlWqWFpaTp06lX0E+vLly46OjlZWVo0aNaJNQ4YMefr0KdvlyZMn7u7uFhYWFPdtbW3p302bNimQogFMkcTVnqYUvWTJtF27PNav/7ZLl/afffYha/T0XNSzZ8f27Vt++umA+PiDws6//75s06Z5nTu3e/fdd6hbkfKNgq+95tCypdOIEX1puXv3GOv8xx8/U7p2dn5j+PD3L1zYLT0ILYWFF3/88d8uLm26dXPetm1xqdd8SNEAYAASdbVIpbSePLm5UqVKcXEH2MNTp7ZQB1fXtlRgZ8789NGjYN7z8OF1gwa9265di969XaiKskZhir5//4S7+2Avr/+yh/quqEjRAFARY198eZi5uXmdOnV69epFufX58+eqHQgFbErU+/fvFwygM+pTtEL5tdsxMTEUmykeizbduXOH2tPT00Xt5PHjx7QpKSmpoKBAvA0ATIXE1R5dyXXv/nZOzjm25OaeZ+100dagQd0PP+xJ12qHDq2lljVrvqlatcqqVV8fObJ+8OAederUfPgwkHdu1Mjxk0/6HTiw2sNjupmZ2fHjm8LCdnXo0Jou73x8VtCSlRVSpMzh1arZLF/+BXVYuHAyDRgZ6S0xCLX/8MOX1avb0tUkXSxShq9Xr7b0NR9SNAAYgERdLSqZou/dOz5q1AdNmzbIywtjLStXzqQoe+zYL35+q7p2daYizNo3b55vaWnx3Xfj//xzI2Vgnpx5io6J2U/jfPHFyIKCC0UGqahI0QBgGjSmaAAATSSu9uhSj/8vQEK5l1+Bvflms8LCi+xhfn64vX2NFSu+4g+dnOrPnz+Rd6Ydeed+/TpPm/Zxkco7umkvBwf7n3+exVvGjRs8cmR/iUHoopOOu27dt6wxMzPEzq6a9DUfUjQAGIBEXS1SKa3169cJD/9dtRstqaknqUN09H4qd7Vq2S1aNEW1D0vRp05tqVOnJsVv1miYiooUDQCmASkaALQmcbVHl3qdOrW9efMQW5KT/2TtdAU2depw3i0+/iBd512+7MNbPvvsw4EDu/POwrRMOw4b1rtIJUXT7pWKf2PvnwsXTl6wYBKF8L59O7dr10JikLi4A7RLTMx+3k67SF/zIUUDgAFI1NWikqX10qU9VNAo8SYlHWFbHzwImDPns169XN56q3mbNq9Xrlz58OF1UVHFFZLfTBYuVB47dnyzenVb/kbuIkNVVKRoANCT3NRH2dfvUC1lC61Ti7iT7iBFA4DWJK72NH0uWvgxPFoiIrzo2uvGjT94y/TpI+gSUG3nadM+/vDDnkUqKfrcuR2Vin9jb+yyZTP4ovaDf3wQdtxbt47y9qFDe0lf8yFFA4ABSNTVIpXSWlh4sXZtO8q67KGLS5t//KPb//63gZLztWu+lpYW+/evPH9+J5U74VdO8IXKY7duzra2Vdes+YY3GqaiIkUDgE4U5OSmnY6MXbnt9Ef/PtrmI58qXanCqC7UTltPf/QV9aT+tJd4oPKqUIouel7w4OSFhN8OXl30K/1L69Qi7gQAJkfiaq+MKTorK6Ry5cp+fqt4y7vvvjNhwlC1nXmKpn9nzPiEtz98GGhmZqbp517UDpKZWXzcI0fW8/aWLZ2kr/mQogHAACTqapFKaS0ouFCrlt2sWWNpPSXlOEXZ2Fg/tolW6CGl6PT0IKqQwrvNfGHlMTjYs0YNW/7zgYapqEjRAFARhXn5d/afPD30Kx6bD7cYGDJkUuQ382LX/HRz6wYqNWyhdWq59OW3IYMnUJ+/QrVVl6C+k296+hU8fSYeWkvlTNH5mdmX527cb99bFPf32/e6PHc9bRXvAAAmROJqr4wpmpaRI/u3b9+Srv9ofefOpXQpdu7cDrWdeYr+4ouRXbq0v3fv+OPHp9nH8z79dECzZg34WxavXfP988+N0oMMH/6+q2tbur4sUn7DGV01Sl/zIUUDgAFI1NUiZWmlwhUff5CW8PDfJ00aRrXr1KkttOnJk1BLS4tffvmuSPnJ5L59O1M5pRRND0eN+uD11xteubK3SPmxZ9a/SFAeqera29dYuHAyazdARUWKBoDyyXv0OGr2mv21iuPnwQZ9I2bOvXtwW+7D4u+aLctCPak/7UX70gi+NXpEzV5NY4oPU2blSdGPLsT4N/wr0B9tOzRswn+uLFxM/9I6a/Rv+MGjC9Hi3QDAVEhc7ZU9Rd+/f4J60iVXzZrVbWysV636WlNnfrl248YfXbs6U2f23TnUkp19xt19sIWFea1adra2VenfjRvnSg9y9+4xZ+c36KKTrh2pT6nvP0SKBgADkKirRcrSWumFGjVsKbj6+hbnZLasXTvbysqyXr3a1arZ/PTTf6gYshSdlRXy8cfvU6iuU6cmdRB+9wQvjxERXg4O9t98U3xb2wAVFSkaAMrhts9xys/e5p3Ojpp+P2BP0YtvOizPUniRRqBxaDRf+17XPH2zsrL4z02XndYpmiL0Xpt3qQ6e6DrqYdhfbx/iC7VQO23da9MdQRrAVElf7Wm13L59NCrK58mTUNVNZV/oSpEGSUw8/Px58Y+1lLoUFl6MidmfkPD3p7LVLkjRAGAwFayrGRmnLl/2ycxUc1smLS0wMtKbvfGnLIteKypSNABoK2r2Wqoex91GZF49rFpbyr3QaDQmjXxqyuLk5GRts7R2KTo/M5vdhT435ovCfPW1ldppq1fxrfb+9xKStJ0QAMhfBa/2jGVBigYAgzH5uooUDQDlcM1jC5WO8MkzC59X4P6zhoXGpJFp/JNfLEtMTExLSyt7btUuRV/+7hd2F7ogL1x1HnyhreyO9MlJC6lEliPcA4CcmfzVHluQogHAYEy+riJFA4C2MqKu+1h2Dh3xuWpJ0eFC43tbdD69+wAVpbIHaS1SdNHzgv213qMKqPpGbtWF+lDPvXY9g08GRkREaBvuAUDOTP5qjy1I0QBgMCZfV5GiAUBbZ0fP963Zs+xfIVa+hcano/j1mRAaGlr2IK1Fik4NKq7vR9/666doSl2OvjWE+u9f+jMVShaks7KyxIMCgBEy+as9tiBFA4DBmHxdRYoGAK0U5uXvs303fMrf3z6rv4WO4m3dzX+/X9mDtBYpOmFz8e3l8EkzVQ+sdgmf9B/q//tns319fVmQTk5OLnVCACB/Jn+1xxakaAAwGJOvq0jRAKCVR2HXqGhc/2WNaj3R+UJHoWPtWbbmyJEjYWFhZbn7q0WKjl62jUaPmrNA9cBqF+pJ/Xf984udO3f6+fkFBwdTuSx1QgAgfyZ/tccWpGgAMBiTr6tI0QCglfi1PlQ0olf8oFpPdL7QUYrv/o75hlWnq1evpqWliSdUkhYp+sW96G9UD6x24feit27dunv3bkr2ERERpU4IAOTP5K/22IIUDQAGY/J1FSkaALSS9Pv/qGhEflvWO7gVWegoxQVq8ne7du3y9/cPCwtLTk4WT6gkLVL0i89F/1P1wGoX9rnoPfNXUIpmt6NDQ0NLnRAAyJ/JX+2xBSkaAAzG5OsqUjQAaOX+8fNUNE4NmqhaT3S+0FHoWNu/XrJjxw5fX9/g4ODExETxhErSIkWX4zu6vau/6/X7bkrRZZ8QAMgfu9qLXfUTXRWZ8EJPECkaAAzD5Osqq6hI0QBQRqwq7qv2rgG+o5uOoixQy8peoLRI0Yq/fy96TBl/L9p76Axvb29cgAKYGFbXXpEFKRoADOAVqatI0QBQRqwq+li4GeD3oukoygKltxSdn5nt33AgHeP0qC8L8y+oToIWaj835gvq4127j/fWHUjRAKaHSkFq0EW2BG7YcWDZuj3zV9C1kUku2zdupiK2e/duf3//0NBQvKEGAPThFamrVFFRTgGgLFiKPj+++Ju2wifPLHx+UTV4VnChMWlkfhQ9pmjy6ELMXpviW95HXD5RfWs3tbC70F5VunovX0sR2svLC+/oBjBhERERVGv8/Pzowmi7iaKnRk8w4MUv9olPAQCATplwXUU5BYAyYin6/kmvqNnzaeW424jMq4dVk3C5FxqNxqSRafz7f31xgz5TtEIZpPfX68/emXOgxaCAvu4BPf4V9MH4Q60/ZI3Fd6GVEZpQucS3iwGYMKoyYWFhVG78/f19TBQ9NXqC9DTpyeKHBgBA30y4rqKcAkAZ8RRNifeW96/7a/XyNu90dtT0+wF7igorcF+68CKNQOPQaDQmjVz099cf6jlFk3sJSccnLPJWfg67xGLb3XvYF+yN3OxGNOVn/NIVgAlLTk6mQkP/dYeGhgaYKHpq9ATpadKTxY/eA4C+mXBdRTkFgDISpmhactNPR82e71ujOH4ebNA3Yubcuwe3lf2Lx6gn9ae9aF8agfIzjUZjsq2GS9FU+Gjo4JOBvovX7HnnEzoq/btn3gqv33fz/EzJmUVodiM6ODiYdkHFBDAx9B91WloaXQ8lJibGmyh6avQE6WnSk83NzRWfAgAAnTLhuopyCgBlJErRbHn+5FzCb+uD+o7zserCbuIebjEwZPCES19+G7vmp5tbN/DfBaB1aon8Zl7IkEnUh3X2qdL19NBJt323FOSGCYc1XIqmwkdFkH1uZ++I4k9j7xoybavSNiW2ziK0r69vwIsPwKBiAgAAAAAAgAS1KfrvOP30fGqIT8xPK05/NPlomyEUj/9+c7RgoXbaSn2oJ/WnvVSHMmiKVij/R2liYiJl4z/GfkdH3fPRF7/++uvmzZv/T4lW6KHwOySoM25EAwAAAAAAgDTpFK26PHsQ/Dj+GL8XTevUotpN7WLQFJ2bm5uWlkbZ+MSUJXRUv9Gzdu7cSQfeokQr9PDIkSPBwcEsQlNn3IgGAAAAAAAAadqm6IosBk3RCmWQzsrKOjtzFR2VsvQff/zh5+e3V4lW6KHwCyQQoQEAAAAAAKBUppyimch5G+moYbN+Dg8PP3PmTLASrdBDfHsEAAAAAAAAaMWIUzRN/eqiX0tdTvacQkelf0998V/RotqZxhQfBgAAAAAAAOAFI07RFHq9VL7orIILjSk+DAAAAAAAAMALRpyicS8aAAAAAAAADMyIU7TQ48ePHz58mJKScuvWrRslUVqmo9K/51WIenI0CA1FA9Kw+NQ0AAAAAAAAcEjRaiBFAwAAAAAAgFpI0WogRQMAAAAAAIBaSNFqIEUDAAAAAACAWkjRaiBFAwAAAAAAgFpI0WogRQMAAAAAAIBaJpKiJVxV/qw0/SvOyjduiLsCAAAAAAAASEKKBgAAAAAAACgrpGgAAAAAAACAskoLiaSMee/4btXQq/OFjlKcor9bjhQNAAAAAAAARin7xh3KmDe3/aIaenW+0FHoWNtX/IwUDQAAAAAAAEapMC9/n22P8CnfqIZenS9hk7/2tu667TdPpGgAAAAAAAAwVmdHL/Ct2Sv3YYhq7tXhQuPvrdHDq9vYbdu2IUUDAAAAAACAscqIuu5j2SV0xAzV6KvD5dRHU73M3bx/3IAUDQAAAAAAAMbtmsdWSpqhn/2n8PlF1QBcwYXGDP3s3zS+1yf/8fLy2rp1644dO3x9fYODgxMTE8VTKQkpGgAAAAAAAOQoavZ6CpuH3v5nxpVDqkm43Evm1cM0Jo3s/eF0itC7du2iFE3/+vv7h4WFJScni+dRElI0AAAAAAAAyNSZlVu9q/fwMut04sPJ907sKSqswH3pwos0QsCQyTSaV7V3vf+9hEVo4du5r169mpaWJp5ESUjRAAAAAAAAIFOJiYnnAoL9hv/Hq2o3Cp57HfqcnjLrtt+Wsn/xGPW87bf1zNRZ++r2KX4LN+XnD6d7b9nBI/TWrVt379595MiRsLAwOlxWVpZ4EiVVNEUX5OQeafUxTYX+jb8ajRQNAAAAAAAAupKWlhYfHx8aGuq/13fPpLm7237kZdG5OAxXct3f+IP/9RkbMmFm5A8/xG1ed/+kF1toPfKH/575fNbR99ypD+vsZdnF23W018yl3r/vpvxMsXnnzp2UnylF07q/vz8dgg5Eh8vNzRVPoqQKpeiiwsLTw2b/NadKrsf6Tb8eH48UDQAAAAAAADpBmZYH6SNHjlAA3vHblu3fLdv5yVe/d/xkT4P+FI95Ji2xUHvDD7w6jfb69Bvvxau8duyitLxr1y4Kz+z+M/tGMRqQhi17hFZUMEVH/Ht18f8AqPXeXb8g+pfWA90XIkUDAAAAAACArvAgHRYWduzYMV9fX3Ynefv27SwMb1v7y/b//rzj22VsofXt6zZuK4n1ZGhH2p0GoaFoQBq27BFaUZEUHb/Oh2KzT5VuqUEX6WHy8XPeVl2pJWTeuhglStFlnAQAAAAAAACAJixIJyYmRkREBAcHHzlyxM/Pz8fHh99e3rFjx3ZJ1IG6UWfahXak3WkQGooGpGHLHqEV5U7Ryf6nvM3dvCp3Stp1VKF8So8fPz6/chu1eJl1Cl23k6Voaiz7VAAAAAAAAADUomiZlZWVnJwcHx9P0Tc0NDQgIICSsL+/P0ViX19fH0nUgbpRZ9qFdqTdaRAaigakYbXKreVJ0Y8uxOyz7eFVyfXq4t8ULyL0w4cPKTYHffFD8Q3qqt0v7TtKD6kRQRoAAAAAAAB0gmXptLQ0HqfDwsIoEgcHBwdIog7UjTrz8EyDaJufGa1T9NNb9w7W/wdF5fPjFrMWFqFTUlIoNsfExPzvw3/TVl+HvtGnzlEjC9IlxwAAAAAAAACoEGGiTkxMjJdEHSqSnIW0S9H5mdlH244s/haxPtMK858rlPNmEfrWrVssRUdfuXrIbRz1Odjyo5tXY1iQruAsAQAAAAAAAORAixRNsZnCM8VjCtIUpxUv3svNIzQXF3GZIjT1PNLls6SEm9QB7+sGAAAAAAAAE6BFij4/bnHxHeb6/3h6655C8HFoHqFpJeWFxPCo/XX7Uf8TH31D7fiANAAAAAAAAJiAsqboq4t/o0i8z7bHowsxCkGEZh+H5hGapWW2Kf5/IXtt3qW9Tn21gm9CkAYAAAAAAADjVaYUnbTrqFflTt7mbsn+p/6/vft3pT2MAzhuYpXZ4k+4CwOTTNxBBovJYvRjUuZrlvwF6g4YlESJZEApP4pb53ZTDFKOUnfBgK/v8eTb8evrnGPwPfV6DWf6PM/+7nm+54leJnQ4iC5O6NsnYeDP9EJ4EGtv8reQBgAAoNp9XtH5jb25uraZmuZ/U3NRCQkdViVju+OFQ+zZ2taj2eW3YwAAAFBFPqno/7mT+YaOOIMPRiaikhM6SIY3B34VboPXt/9d3/5oGAAAALIvraJvLq4Wm7rjAN7sGX24v4+KnoZO/lEsvYpDSF/m82udQ/E+841dx/tHyZLX0wAAAJBtaRW91TsWp+9qS//ddaGQb18+DR0OolMSOgghnT87X/rRF++20jmYHF+nrAIAAIAMSqvom4urOKTj3+i9p6FDDKcndBDWnh7mVn8O53b2y1oLAAAA2ZFW0cXCXe5XCV36eXJl59gAAACQKWVXdFDBt83F31QHKhoAAIDqUl5Fnz+rIIDDve4vbgIAAADfqLyKTlRWv0lIf3EfAAAA+BaP5a64l4rcU/cAAAAASUVORK5CYII=;" vertex="1" parent="1">
          <mxGeometry x="156.5" y="100" width="1303" height="1085" as="geometry" />
        </mxCell>
      </root>
    </mxGraphModel>
  </diagram>
</mxfile>
